<svg width="63" height="9" viewBox="0 0 63 9" fill="none" xmlns="http://www.w3.org/2000/svg">
<path d="M2.05841 7.3715C2.05841 7.51282 2.02916 7.64629 1.97065 7.77191C1.91746 7.89229 1.843 7.99959 1.74726 8.09381C1.65684 8.18279 1.5478 8.25345 1.42014 8.30579C1.29781 8.35813 1.1675 8.3843 1.02921 8.3843C0.885596 8.3843 0.749964 8.35813 0.622311 8.30579C0.499976 8.25345 0.390939 8.18279 0.295199 8.09381C0.204777 7.99959 0.132972 7.89229 0.0797834 7.77191C0.0265945 7.64629 0 7.51282 0 7.3715C0 7.23542 0.0265945 7.10718 0.0797834 6.9868C0.132972 6.86118 0.204777 6.75388 0.295199 6.66491C0.390939 6.57069 0.499976 6.49742 0.622311 6.44507C0.749964 6.3875 0.885596 6.35871 1.02921 6.35871C1.1675 6.35871 1.29781 6.3875 1.42014 6.44507C1.5478 6.49742 1.65684 6.57069 1.74726 6.66491C1.843 6.75388 1.91746 6.86118 1.97065 6.9868C2.02916 7.10718 2.05841 7.23542 2.05841 7.3715Z" fill="#EA0C0E"/>
<path d="M12.5596 3.91599H9.31281C9.1167 3.91599 8.9687 3.96515 8.86879 4.06346C8.76889 4.15813 8.71894 4.29831 8.71894 4.48401V8.4H7.2759V4.48401C7.2759 4.24005 7.30735 4.02159 7.37025 3.82861C7.43316 3.63563 7.51641 3.46632 7.62001 3.32068C7.72731 3.17139 7.84942 3.04577 7.98632 2.94382C8.12322 2.83823 8.26568 2.75267 8.41368 2.68713C8.56539 2.62159 8.71709 2.57425 8.86879 2.54512C9.0242 2.51235 9.1685 2.49597 9.30171 2.49597H12.5596V3.91599Z" fill="#EA0C0E"/>
<path d="M19.9469 4.45124C19.9469 4.64785 19.9117 4.86086 19.8414 5.09025C19.7711 5.31599 19.6564 5.52718 19.4973 5.7238C19.3419 5.91677 19.1366 6.0788 18.8813 6.20988C18.6297 6.34096 18.3226 6.4065 17.9599 6.4065H15.3569V5.05748H17.9599C18.156 5.05748 18.3078 4.99922 18.4151 4.8827C18.5224 4.76255 18.576 4.61508 18.576 4.44031C18.576 4.25462 18.515 4.10897 18.3929 4.00338C18.2744 3.89779 18.1301 3.84499 17.9599 3.84499H15.3569C15.1608 3.84499 15.0091 3.90507 14.9018 4.02523C14.7945 4.14174 14.7409 4.28739 14.7409 4.46216V6.44473C14.7409 6.63407 14.8001 6.78153 14.9185 6.88713C15.0406 6.99272 15.1904 7.04551 15.368 7.04551H17.9599V8.4H15.3569C15.1571 8.4 14.9407 8.36541 14.7076 8.29623C14.4781 8.22705 14.2635 8.11599 14.0637 7.96307C13.8676 7.8065 13.703 7.60442 13.5698 7.35683C13.4366 7.10559 13.37 6.80156 13.37 6.44473V4.45124C13.37 4.25462 13.4051 4.04343 13.4754 3.81769C13.5457 3.5883 13.6586 3.37711 13.814 3.18414C13.9731 2.98752 14.1784 2.82367 14.43 2.69259C14.6854 2.56151 14.9943 2.49597 15.3569 2.49597H17.9599C18.1597 2.49597 18.3744 2.53056 18.6038 2.59974C18.8369 2.66892 19.0515 2.78179 19.2476 2.93836C19.4474 3.09129 19.6139 3.29337 19.7471 3.5446C19.8803 3.7922 19.9469 4.09441 19.9469 4.45124Z" fill="#EA0C0E"/>
<path d="M26.7181 6.4065C26.7181 6.65045 26.6866 6.87074 26.6237 7.06736C26.5608 7.26034 26.4776 7.43147 26.374 7.58075C26.2704 7.7264 26.1501 7.85202 26.0132 7.95761C25.8763 8.05956 25.732 8.1433 25.5803 8.20884C25.4323 8.27438 25.2806 8.32354 25.1252 8.35631C24.9735 8.38544 24.8292 8.4 24.6923 8.4H20.785V6.97997H24.6812C24.8773 6.97997 25.0253 6.93082 25.1252 6.83251C25.2251 6.7342 25.275 6.5922 25.275 6.4065C25.2565 6.02783 25.0623 5.83849 24.6923 5.83849H22.4556C22.1374 5.83849 21.8672 5.78387 21.6452 5.67464C21.4232 5.56541 21.2419 5.42887 21.1013 5.26502C20.9644 5.10117 20.8645 4.92458 20.8016 4.73524C20.7424 4.5459 20.7128 4.36931 20.7128 4.20546C20.7128 3.88869 20.7702 3.62289 20.8849 3.40806C20.9996 3.1896 21.1439 3.013 21.3178 2.87828C21.4917 2.74356 21.6804 2.64707 21.8839 2.58882C22.0874 2.52692 22.278 2.49597 22.4556 2.49597H26.0021V3.91599H22.4667C22.3927 3.91599 22.3335 3.9251 22.2891 3.9433C22.2484 3.95787 22.2169 3.97971 22.1947 4.00884C22.1762 4.03433 22.1651 4.06346 22.1614 4.09623C22.1577 4.12536 22.1559 4.15449 22.1559 4.18361C22.1596 4.24187 22.1707 4.28739 22.1892 4.32016C22.2077 4.35293 22.2299 4.37659 22.2558 4.39116C22.2854 4.40572 22.3168 4.41482 22.3501 4.41847C22.3871 4.41847 22.4223 4.41847 22.4556 4.41847H24.6923C25.0623 4.41847 25.3768 4.48401 25.6358 4.61508C25.8948 4.74616 26.1039 4.91183 26.263 5.11209C26.4221 5.30871 26.5368 5.52354 26.6071 5.75657C26.6811 5.9896 26.7181 6.20624 26.7181 6.4065Z" fill="#EA0C0E"/>
<path d="M34.1886 4.45124C34.1886 4.64785 34.1534 4.86086 34.0831 5.09025C34.0128 5.31599 33.8981 5.52718 33.739 5.7238C33.5836 5.91677 33.3783 6.0788 33.123 6.20988C32.8713 6.34096 32.5642 6.4065 32.2016 6.4065H29.5986V5.05748H32.2016C32.3977 5.05748 32.5494 4.99922 32.6567 4.8827C32.764 4.76255 32.8177 4.61508 32.8177 4.44031C32.8177 4.25462 32.7566 4.10897 32.6345 4.00338C32.5161 3.89779 32.3718 3.84499 32.2016 3.84499H29.5986C29.4025 3.84499 29.2508 3.90507 29.1435 4.02523C29.0362 4.14174 28.9825 4.28739 28.9825 4.46216V6.44473C28.9825 6.63407 29.0417 6.78153 29.1601 6.88713C29.2822 6.99272 29.4321 7.04551 29.6097 7.04551H32.2016V8.4H29.5986C29.3988 8.4 29.1823 8.36541 28.9492 8.29623C28.7198 8.22705 28.5052 8.11599 28.3054 7.96307C28.1093 7.8065 27.9447 7.60442 27.8115 7.35683C27.6783 7.10559 27.6117 6.80156 27.6117 6.44473V4.45124C27.6117 4.25462 27.6468 4.04343 27.7171 3.81769C27.7874 3.5883 27.9003 3.37711 28.0557 3.18414C28.2148 2.98752 28.4201 2.82367 28.6717 2.69259C28.927 2.56151 29.236 2.49597 29.5986 2.49597H32.2016C32.4014 2.49597 32.616 2.53056 32.8454 2.59974C33.0786 2.66892 33.2932 2.78179 33.4893 2.93836C33.6891 3.09129 33.8556 3.29337 33.9888 3.5446C34.122 3.7922 34.1886 4.09441 34.1886 4.45124Z" fill="#EA0C0E"/>
<path d="M41.3094 6.44473C41.3094 6.64135 41.2743 6.85436 41.204 7.08374C41.1337 7.30949 41.019 7.52068 40.8599 7.71729C40.7045 7.91027 40.4991 8.0723 40.2438 8.20338C39.9922 8.33446 39.6851 8.4 39.3225 8.4H36.7195C36.5196 8.4 36.3032 8.36541 36.0701 8.29623C35.8407 8.22705 35.6261 8.11599 35.4263 7.96307C35.2302 7.8065 35.0655 7.60442 34.9323 7.35683C34.7991 7.10559 34.7325 6.80156 34.7325 6.44473C34.7325 6.24811 34.7676 6.03511 34.8379 5.80572C34.9083 5.57633 35.0211 5.36515 35.1765 5.17217C35.3356 4.97555 35.541 4.8117 35.7926 4.68062C36.0479 4.54954 36.3568 4.48401 36.7195 4.48401H39.3225V5.83849H36.7195C36.5233 5.83849 36.3716 5.89857 36.2643 6.01873C36.157 6.13524 36.1034 6.28088 36.1034 6.45566C36.1034 6.64135 36.1644 6.787 36.2865 6.89259C36.4123 6.99454 36.5603 7.04551 36.7306 7.04551H39.3225C39.5186 7.04551 39.6703 6.98726 39.7776 6.87074C39.8849 6.75423 39.9385 6.60858 39.9385 6.43381V4.45124C39.9385 4.26554 39.8793 4.11808 39.7609 4.00884C39.6462 3.89961 39.5001 3.84499 39.3225 3.84499H36.1533V2.49597H39.3225C39.5223 2.49597 39.7369 2.53056 39.9663 2.59974C40.1994 2.66892 40.414 2.78179 40.6101 2.93836C40.8099 3.09129 40.9764 3.29337 41.1096 3.5446C41.2428 3.7922 41.3094 4.09441 41.3094 4.45124V6.44473Z" fill="#EA0C0E"/>
<path d="M47.792 3.91599H44.5452C44.3491 3.91599 44.2011 3.96515 44.1012 4.06346C44.0012 4.15813 43.9513 4.29831 43.9513 4.48401V8.4H42.5083V4.48401C42.5083 4.24005 42.5397 4.02159 42.6026 3.82861C42.6655 3.63563 42.7488 3.46632 42.8524 3.32068C42.9597 3.17139 43.0818 3.04577 43.2187 2.94382C43.3556 2.83823 43.498 2.75267 43.646 2.68713C43.7977 2.62159 43.9494 2.57425 44.1012 2.54512C44.2566 2.51235 44.4009 2.49597 44.5341 2.49597H47.792V3.91599Z" fill="#EA0C0E"/>
<path d="M54.5354 8.4H50.6226C50.4228 8.4 50.2045 8.36541 49.9677 8.29623C49.7309 8.22705 49.5107 8.11417 49.3072 7.95761C49.1074 7.7974 48.939 7.59168 48.8021 7.34044C48.6689 7.08557 48.6023 6.77425 48.6023 6.4065V4.48401C48.6023 4.34928 48.6171 4.20728 48.6467 4.058C48.68 3.90871 48.73 3.76125 48.7966 3.6156C48.8632 3.46632 48.9483 3.32432 49.0519 3.1896C49.1592 3.05488 49.2868 2.93654 49.4348 2.83459C49.5866 2.73264 49.7605 2.65072 49.9566 2.58882C50.1527 2.52692 50.3747 2.49597 50.6226 2.49597H54.5354V3.91599H50.6226C50.4339 3.91599 50.2896 3.96333 50.1897 4.058C50.0935 4.15267 50.0454 4.29831 50.0454 4.49493V6.4065C50.0454 6.5922 50.0953 6.7342 50.1952 6.83251C50.2951 6.93082 50.4413 6.97997 50.6337 6.97997H54.5354V8.4Z" fill="#EA0C0E"/>
<path d="M62.4 8.4H60.957V4.48401C60.957 4.29831 60.9089 4.15813 60.8127 4.06346C60.7165 3.96515 60.5721 3.91599 60.3797 3.91599H57.7767V2.49597H60.3797C60.5166 2.49597 60.661 2.51235 60.8127 2.54512C60.9644 2.57425 61.1142 2.62159 61.2622 2.68713C61.4139 2.75267 61.5582 2.83823 61.6951 2.94382C61.832 3.04577 61.9523 3.17139 62.0559 3.32068C62.1595 3.46632 62.2427 3.63563 62.3056 3.82861C62.3685 4.02159 62.4 4.24005 62.4 4.48401V8.4ZM57.194 8.4H55.7509V0H57.194V8.4Z" fill="#EA0C0E"/>
</svg>
