<svg width="18" height="18" viewBox="0 0 18 18" fill="none" xmlns="http://www.w3.org/2000/svg">
<path d="M6.896 17.333L6.583 14.708C6.44433 14.6247 6.29167 14.5347 6.125 14.438C5.95833 14.3407 5.80567 14.2503 5.667 14.167L3.229 15.188L0.875 11.125L2.958 9.54199V8.45799L0.875 6.87499L3.229 2.81199L5.667 3.83299C5.80567 3.74966 5.95833 3.65966 6.125 3.56299C6.29167 3.46566 6.44433 3.37533 6.583 3.29199L6.896 0.666992H11.604L11.917 3.29199C12.0557 3.37533 12.2083 3.46566 12.375 3.56299C12.5417 3.65966 12.6943 3.74966 12.833 3.83299L15.271 2.81199L17.625 6.87499L15.562 8.45799V9.54199L17.625 11.125L15.271 15.188L12.833 14.167C12.6943 14.2503 12.5417 14.3407 12.375 14.438C12.2083 14.5347 12.0557 14.6247 11.917 14.708L11.604 17.333H6.896ZM9.25 11.979C10.0693 11.979 10.7707 11.6873 11.354 11.104C11.9373 10.5207 12.229 9.81933 12.229 8.99999C12.229 8.18066 11.9373 7.47933 11.354 6.89599C10.7707 6.31266 10.0693 6.02099 9.25 6.02099C8.43067 6.02099 7.72933 6.31266 7.146 6.89599C6.56267 7.47933 6.271 8.18066 6.271 8.99999C6.271 9.81933 6.56267 10.5207 7.146 11.104C7.72933 11.6873 8.43067 11.979 9.25 11.979ZM9.25 10.229C8.91667 10.229 8.62833 10.1077 8.385 9.86499C8.14233 9.62166 8.021 9.33333 8.021 8.99999C8.021 8.66666 8.14233 8.37833 8.385 8.13499C8.62833 7.89233 8.91667 7.77099 9.25 7.77099C9.58333 7.77099 9.87167 7.89233 10.115 8.13499C10.3577 8.37833 10.479 8.66666 10.479 8.99999C10.479 9.33333 10.3577 9.62166 10.115 9.86499C9.87167 10.1077 9.58333 10.229 9.25 10.229ZM8.417 15.583H10.083L10.333 13.417C10.7363 13.3057 11.1253 13.139 11.5 12.917C11.8747 12.6943 12.215 12.4303 12.521 12.125L14.542 12.979L15.375 11.604L13.604 10.25C13.6733 10.0553 13.722 9.85399 13.75 9.64599C13.778 9.43733 13.792 9.22199 13.792 8.99999C13.792 8.80533 13.778 8.60733 13.75 8.40599C13.722 8.20466 13.6803 7.99299 13.625 7.77099L15.396 6.39599L14.562 5.02099L12.542 5.89599C12.222 5.57666 11.878 5.30933 11.51 5.09399C11.142 4.87866 10.7567 4.71533 10.354 4.60399L10.083 2.41699H8.417L8.146 4.60399C7.74333 4.71533 7.358 4.87866 6.99 5.09399C6.622 5.30933 6.285 5.56966 5.979 5.87499L3.958 5.02099L3.125 6.39599L4.875 7.74999C4.81967 7.97199 4.778 8.18733 4.75 8.39599C4.722 8.60399 4.708 8.80533 4.708 8.99999C4.708 9.19466 4.722 9.39266 4.75 9.59399C4.778 9.79533 4.81967 10.007 4.875 10.229L3.125 11.604L3.958 12.979L5.979 12.125C6.285 12.4303 6.622 12.6907 6.99 12.906C7.358 13.1213 7.74333 13.2847 8.146 13.396L8.417 15.583Z" fill="#080C42"/>
</svg>
