<svg width="71" height="12" viewBox="0 0 71 12" fill="none" xmlns="http://www.w3.org/2000/svg">
<path d="M12.3969 4.08567C12.3969 4.56878 12.3335 5.00032 12.2066 5.3803C12.0797 5.76027 11.9067 6.09682 11.6875 6.38995C11.4741 6.67764 11.2261 6.92462 10.9435 7.1309C10.6609 7.33717 10.3639 7.50816 10.0525 7.64386C9.74682 7.77414 9.43539 7.86913 9.11818 7.92884C8.80674 7.98855 8.51261 8.01841 8.23578 8.01841L12.9333 11.8372H9.45557L4.76672 8.01841H3.14897V5.90141H8.23578C8.51838 5.87969 8.77502 5.82541 9.00572 5.73856C9.24218 5.64628 9.44404 5.52415 9.61129 5.37216C9.78431 5.22017 9.91696 5.03832 10.0092 4.82662C10.1015 4.60949 10.1477 4.36251 10.1477 4.08567V2.75033C10.1477 2.63091 10.1304 2.54135 10.0957 2.48164C10.0669 2.4165 10.0265 2.37036 9.97463 2.34322C9.92849 2.31065 9.87659 2.29165 9.81891 2.28622C9.76701 2.28079 9.71799 2.27808 9.67185 2.27808H2.24927V11.8372H0V1.22772C0 1.08116 0.0288368 0.942738 0.0865103 0.812461C0.144184 0.682184 0.222043 0.568192 0.320088 0.470484C0.4239 0.372776 0.545015 0.296781 0.683431 0.242499C0.821847 0.188217 0.971799 0.161076 1.13328 0.161076H9.67185C10.1736 0.161076 10.5975 0.247928 10.9435 0.42163C11.2896 0.589905 11.5693 0.804319 11.7827 1.06487C12.0019 1.32 12.1576 1.59684 12.2499 1.89539C12.3479 2.19394 12.3969 2.47349 12.3969 2.73405V4.08567Z" fill="#080C42"/>
<path d="M26.8268 11.8372H24.5776V8.97106H16.6705V11.8372H14.4213V5.99911C14.4213 5.14689 14.577 4.36251 14.8884 3.64599C15.1999 2.92946 15.6324 2.31336 16.1861 1.79768C16.7397 1.282 17.3943 0.880314 18.1499 0.592619C18.9054 0.304924 19.7301 0.161076 20.624 0.161076H25.6935C25.8493 0.161076 25.9963 0.188217 26.1347 0.242499C26.2732 0.296781 26.3943 0.372776 26.4981 0.470484C26.6019 0.568192 26.6826 0.682184 26.7403 0.812461C26.798 0.942738 26.8268 1.08116 26.8268 1.22772V11.8372ZM16.6705 6.85406H24.5776V2.27808H20.624C20.5548 2.27808 20.4078 2.28893 20.1828 2.31065C19.9637 2.32693 19.707 2.37307 19.4129 2.44907C19.1245 2.52506 18.8189 2.64177 18.4959 2.79919C18.1729 2.9566 17.8759 3.17373 17.6048 3.45057C17.3338 3.72741 17.1088 4.07481 16.9301 4.49279C16.757 4.90533 16.6705 5.40744 16.6705 5.99911V6.85406Z" fill="#080C42"/>
<path d="M41.845 10.9334C41.845 11.0853 41.8133 11.2265 41.7498 11.3568C41.6922 11.487 41.6114 11.601 41.5076 11.6987C41.4096 11.791 41.2913 11.8643 41.1529 11.9186C41.0145 11.9729 40.8674 12 40.7117 12C40.5733 12 40.432 11.9756 40.2878 11.9267C40.1494 11.8779 40.0254 11.7992 39.9158 11.6906L31.6974 3.61342V11.8372H29.4481V1.06487C29.4481 0.847745 29.5115 0.652329 29.6384 0.478626C29.7711 0.299495 29.9383 0.166504 30.1402 0.0796531C30.3536 -0.00177007 30.5727 -0.0207688 30.7977 0.0226569C31.0226 0.0606543 31.2158 0.158362 31.3773 0.31578L39.5957 8.38481V0.161076H41.845V10.9334Z" fill="#080C42"/>
<path d="M57.4688 11.8372H54.2765L49.2157 7.06576H47.6325V4.93247H49.2157L54.2765 0.161076H57.4688L51.093 5.99911L57.4688 11.8372ZM46.7328 11.8372H44.4836V0.161076H46.7328V11.8372Z" fill="#080C42"/>
<path d="M70.8 8.4011C70.8 8.81907 70.7423 9.19633 70.627 9.53288C70.5174 9.864 70.3703 10.1571 70.1858 10.4122C70.0012 10.6674 69.7849 10.8845 69.5369 11.0636C69.2889 11.2428 69.0323 11.3893 68.767 11.5033C68.5017 11.6173 68.2306 11.7014 67.9538 11.7557C67.6827 11.81 67.4261 11.8372 67.1839 11.8372H58.5069V9.72015H67.1839C67.6164 9.72015 67.9509 9.60073 68.1874 9.36189C68.4296 9.12305 68.5507 8.80278 68.5507 8.4011C68.5507 8.20568 68.519 8.02655 68.4556 7.8637C68.3921 7.70086 68.2999 7.55972 68.1787 7.4403C68.0634 7.32088 67.9192 7.2286 67.7462 7.16346C67.5789 7.09833 67.3915 7.06576 67.1839 7.06576H62.0106C61.6472 7.06576 61.255 7.00605 60.834 6.88663C60.413 6.76178 60.0208 6.56365 59.6575 6.29224C59.2999 6.02083 59 5.66528 58.7578 5.22559C58.5213 4.78591 58.4031 4.24852 58.4031 3.61342C58.4031 2.97832 58.5213 2.44364 58.7578 2.00938C59 1.5697 59.2999 1.21415 59.6575 0.942738C60.0208 0.6659 60.413 0.46777 60.834 0.348349C61.255 0.223501 61.6472 0.161076 62.0106 0.161076H69.6667V2.27808H62.0106C61.5838 2.27808 61.2493 2.40021 61.007 2.64448C60.7706 2.88875 60.6523 3.21173 60.6523 3.61342C60.6523 4.02053 60.7706 4.34351 61.007 4.58235C61.2493 4.81577 61.5838 4.93247 62.0106 4.93247H67.1839H67.2012C67.4434 4.9379 67.7 4.97047 67.9711 5.03018C68.2422 5.08446 68.5104 5.17131 68.7757 5.29073C69.0467 5.41015 69.3034 5.56214 69.5456 5.7467C69.7878 5.92583 70.0012 6.14296 70.1858 6.39809C70.3761 6.65321 70.526 6.94634 70.6356 7.27746C70.7452 7.60858 70.8 7.98312 70.8 8.4011Z" fill="#080C42"/>
</svg>
