<svg width="71" height="24" viewBox="0 0 71 24" fill="none" xmlns="http://www.w3.org/2000/svg">
<path d="M12.3969 4.08567C12.3969 4.56878 12.3335 5.00032 12.2066 5.3803C12.0797 5.76027 11.9067 6.09682 11.6875 6.38995C11.4741 6.67764 11.2261 6.92462 10.9435 7.1309C10.6609 7.33717 10.3639 7.50816 10.0525 7.64386C9.74682 7.77414 9.43539 7.86913 9.11818 7.92884C8.80674 7.98855 8.51261 8.01841 8.23578 8.01841L12.9333 11.8372H9.45557L4.76672 8.01841H3.14897V5.90141H8.23578C8.51838 5.87969 8.77502 5.82541 9.00572 5.73856C9.24218 5.64628 9.44404 5.52415 9.61129 5.37216C9.78431 5.22017 9.91696 5.03832 10.0092 4.82662C10.1015 4.60949 10.1477 4.36251 10.1477 4.08567V2.75033C10.1477 2.63091 10.1304 2.54135 10.0957 2.48164C10.0669 2.4165 10.0265 2.37036 9.97463 2.34322C9.92849 2.31065 9.87659 2.29165 9.81891 2.28622C9.76701 2.28079 9.71799 2.27808 9.67185 2.27808H2.24927V11.8372H0V1.22772C0 1.08116 0.0288368 0.942738 0.0865103 0.812461C0.144184 0.682184 0.222043 0.568192 0.320088 0.470484C0.4239 0.372776 0.545015 0.296781 0.683431 0.242499C0.821847 0.188217 0.971799 0.161076 1.13328 0.161076H9.67185C10.1736 0.161076 10.5975 0.247928 10.9435 0.42163C11.2896 0.589905 11.5693 0.804319 11.7827 1.06487C12.0019 1.32 12.1576 1.59684 12.2499 1.89539C12.3479 2.19394 12.3969 2.47349 12.3969 2.73405V4.08567Z" fill="#080C42"/>
<path d="M26.8268 11.8372H24.5776V8.97106H16.6705V11.8372H14.4213V5.99911C14.4213 5.14689 14.577 4.36251 14.8884 3.64599C15.1999 2.92946 15.6324 2.31336 16.1861 1.79768C16.7397 1.282 17.3943 0.880314 18.1499 0.592619C18.9054 0.304924 19.7301 0.161076 20.624 0.161076H25.6935C25.8493 0.161076 25.9963 0.188217 26.1347 0.242499C26.2732 0.296781 26.3943 0.372776 26.4981 0.470484C26.6019 0.568192 26.6826 0.682184 26.7403 0.812461C26.798 0.942738 26.8268 1.08116 26.8268 1.22772V11.8372ZM16.6705 6.85406H24.5776V2.27808H20.624C20.5548 2.27808 20.4078 2.28893 20.1828 2.31065C19.9637 2.32693 19.707 2.37307 19.4129 2.44907C19.1245 2.52506 18.8189 2.64177 18.4959 2.79919C18.1729 2.9566 17.8759 3.17373 17.6048 3.45057C17.3338 3.72741 17.1088 4.07481 16.9301 4.49279C16.757 4.90533 16.6705 5.40744 16.6705 5.99911V6.85406Z" fill="#080C42"/>
<path d="M41.845 10.9334C41.845 11.0853 41.8133 11.2265 41.7499 11.3568C41.6922 11.487 41.6114 11.601 41.5076 11.6987C41.4096 11.791 41.2913 11.8643 41.1529 11.9186C41.0145 11.9729 40.8674 12 40.7117 12C40.5733 12 40.432 11.9756 40.2878 11.9267C40.1494 11.8779 40.0254 11.7992 39.9158 11.6906L31.6974 3.61342V11.8372H29.4481V1.06487C29.4481 0.847745 29.5115 0.652329 29.6384 0.478626C29.7711 0.299495 29.9383 0.166504 30.1402 0.0796531C30.3536 -0.00177007 30.5727 -0.0207688 30.7977 0.0226569C31.0226 0.0606543 31.2158 0.158362 31.3773 0.31578L39.5957 8.38481V0.161076H41.845V10.9334Z" fill="#080C42"/>
<path d="M57.4688 11.8372H54.2765L49.2157 7.06576H47.6325V4.93247H49.2157L54.2765 0.161076H57.4688L51.093 5.99911L57.4688 11.8372ZM46.7328 11.8372H44.4836V0.161076H46.7328V11.8372Z" fill="#080C42"/>
<path d="M70.8 8.4011C70.8 8.81907 70.7423 9.19633 70.627 9.53288C70.5174 9.864 70.3703 10.1571 70.1858 10.4122C70.0012 10.6674 69.7849 10.8845 69.5369 11.0636C69.2889 11.2428 69.0323 11.3893 68.767 11.5033C68.5017 11.6173 68.2306 11.7014 67.9538 11.7557C67.6827 11.81 67.4261 11.8372 67.1839 11.8372H58.5069V9.72015H67.1839C67.6164 9.72015 67.9509 9.60073 68.1874 9.36189C68.4296 9.12305 68.5507 8.80278 68.5507 8.4011C68.5507 8.20568 68.519 8.02655 68.4556 7.8637C68.3921 7.70086 68.2999 7.55972 68.1787 7.4403C68.0634 7.32088 67.9192 7.2286 67.7462 7.16347C67.5789 7.09833 67.3915 7.06576 67.1839 7.06576H62.0106C61.6472 7.06576 61.255 7.00605 60.834 6.88663C60.413 6.76178 60.0208 6.56365 59.6575 6.29224C59.2999 6.02083 59 5.66528 58.7578 5.22559C58.5213 4.78591 58.4031 4.24852 58.4031 3.61342C58.4031 2.97832 58.5213 2.44364 58.7578 2.00938C59 1.5697 59.2999 1.21415 59.6575 0.942738C60.0208 0.6659 60.413 0.46777 60.834 0.348349C61.255 0.223501 61.6472 0.161076 62.0106 0.161076H69.6667V2.27808H62.0106C61.5838 2.27808 61.2493 2.40021 61.007 2.64448C60.7706 2.88875 60.6523 3.21173 60.6523 3.61342C60.6523 4.02053 60.7706 4.34351 61.007 4.58235C61.2493 4.81577 61.5838 4.93247 62.0106 4.93247H67.1839H67.2012C67.4434 4.9379 67.7 4.97047 67.9711 5.03018C68.2422 5.08446 68.5104 5.17131 68.7757 5.29073C69.0467 5.41015 69.3034 5.56214 69.5456 5.7467C69.7878 5.92583 70.0012 6.14296 70.1858 6.39809C70.3761 6.65321 70.526 6.94634 70.6356 7.27746C70.7452 7.60858 70.8 7.98312 70.8 8.4011Z" fill="#080C42"/>
<path d="M2.05841 22.3715C2.05841 22.5128 2.02916 22.6463 1.97065 22.7719C1.91746 22.8923 1.843 22.9996 1.74726 23.0938C1.65684 23.1828 1.5478 23.2534 1.42014 23.3058C1.29781 23.3581 1.1675 23.3843 1.02921 23.3843C0.885596 23.3843 0.749964 23.3581 0.622311 23.3058C0.499976 23.2534 0.390939 23.1828 0.295199 23.0938C0.204777 22.9996 0.132972 22.8923 0.0797834 22.7719C0.0265945 22.6463 0 22.5128 0 22.3715C0 22.2354 0.0265945 22.1072 0.0797834 21.9868C0.132972 21.8612 0.204777 21.7539 0.295199 21.6649C0.390939 21.5707 0.499976 21.4974 0.622311 21.4451C0.749964 21.3875 0.885596 21.3587 1.02921 21.3587C1.1675 21.3587 1.29781 21.3875 1.42014 21.4451C1.5478 21.4974 1.65684 21.5707 1.74726 21.6649C1.843 21.7539 1.91746 21.8612 1.97065 21.9868C2.02916 22.1072 2.05841 22.2354 2.05841 22.3715Z" fill="#EA0C0E"/>
<path d="M12.5596 18.916H9.31281C9.1167 18.916 8.9687 18.9651 8.86879 19.0635C8.76889 19.1581 8.71894 19.2983 8.71894 19.484V23.4H7.2759V19.484C7.2759 19.2401 7.30735 19.0216 7.37025 18.8286C7.43316 18.6356 7.51641 18.4663 7.62001 18.3207C7.72731 18.1714 7.84942 18.0458 7.98632 17.9438C8.12322 17.8382 8.26568 17.7527 8.41368 17.6871C8.56539 17.6216 8.71709 17.5743 8.86879 17.5451C9.0242 17.5124 9.1685 17.496 9.30171 17.496H12.5596V18.916Z" fill="#EA0C0E"/>
<path d="M19.9469 19.4512C19.9469 19.6479 19.9117 19.8609 19.8414 20.0902C19.7711 20.316 19.6564 20.5272 19.4973 20.7238C19.3419 20.9168 19.1366 21.0788 18.8813 21.2099C18.6297 21.341 18.3226 21.4065 17.9599 21.4065H15.3569V20.0575H17.9599C18.156 20.0575 18.3078 19.9992 18.4151 19.8827C18.5224 19.7625 18.576 19.6151 18.576 19.4403C18.576 19.2546 18.515 19.109 18.3929 19.0034C18.2745 18.8978 18.1301 18.845 17.9599 18.845H15.3569C15.1608 18.845 15.0091 18.9051 14.9018 19.0252C14.7945 19.1417 14.7409 19.2874 14.7409 19.4622V21.4447C14.7409 21.6341 14.8001 21.7815 14.9185 21.8871C15.0406 21.9927 15.1904 22.0455 15.368 22.0455H17.9599V23.4H15.3569C15.1571 23.4 14.9407 23.3654 14.7076 23.2962C14.4781 23.227 14.2635 23.116 14.0637 22.9631C13.8676 22.8065 13.703 22.6044 13.5698 22.3568C13.4366 22.1056 13.37 21.8016 13.37 21.4447V19.4512C13.37 19.2546 13.4051 19.0434 13.4754 18.8177C13.5457 18.5883 13.6586 18.3771 13.814 18.1841C13.9731 17.9875 14.1784 17.8237 14.43 17.6926C14.6854 17.5615 14.9943 17.496 15.3569 17.496H17.9599C18.1597 17.496 18.3744 17.5306 18.6038 17.5997C18.8369 17.6689 19.0515 17.7818 19.2476 17.9384C19.4474 18.0913 19.6139 18.2934 19.7471 18.5446C19.8803 18.7922 19.9469 19.0944 19.9469 19.4512Z" fill="#EA0C0E"/>
<path d="M26.7181 21.4065C26.7181 21.6505 26.6866 21.8707 26.6237 22.0674C26.5608 22.2603 26.4776 22.4315 26.374 22.5808C26.2704 22.7264 26.1501 22.852 26.0132 22.9576C25.8763 23.0596 25.732 23.1433 25.5803 23.2088C25.4323 23.2744 25.2806 23.3235 25.1252 23.3563C24.9735 23.3854 24.8292 23.4 24.6923 23.4H20.785V21.98H24.6812C24.8773 21.98 25.0253 21.9308 25.1252 21.8325C25.2251 21.7342 25.275 21.5922 25.275 21.4065C25.2565 21.0278 25.0623 20.8385 24.6923 20.8385H22.4556C22.1374 20.8385 21.8672 20.7839 21.6452 20.6746C21.4232 20.5654 21.2419 20.4289 21.1013 20.265C20.9644 20.1012 20.8645 19.9246 20.8016 19.7352C20.7424 19.5459 20.7128 19.3693 20.7128 19.2055C20.7128 18.8887 20.7702 18.6229 20.8849 18.4081C20.9996 18.1896 21.1439 18.013 21.3178 17.8783C21.4917 17.7436 21.6804 17.6471 21.8839 17.5888C22.0874 17.5269 22.278 17.496 22.4556 17.496H26.0021V18.916H22.4667C22.3927 18.916 22.3335 18.9251 22.2891 18.9433C22.2484 18.9579 22.2169 18.9797 22.1947 19.0088C22.1762 19.0343 22.1651 19.0635 22.1614 19.0962C22.1577 19.1254 22.1559 19.1545 22.1559 19.1836C22.1596 19.2419 22.1707 19.2874 22.1892 19.3202C22.2077 19.3529 22.2299 19.3766 22.2558 19.3912C22.2854 19.4057 22.3168 19.4148 22.3501 19.4185C22.3871 19.4185 22.4223 19.4185 22.4556 19.4185H24.6923C25.0623 19.4185 25.3768 19.484 25.6358 19.6151C25.8948 19.7462 26.1039 19.9118 26.263 20.1121C26.4221 20.3087 26.5368 20.5235 26.6071 20.7566C26.6811 20.9896 26.7181 21.2062 26.7181 21.4065Z" fill="#EA0C0E"/>
<path d="M34.1886 19.4512C34.1886 19.6479 34.1534 19.8609 34.0831 20.0902C34.0128 20.316 33.8981 20.5272 33.739 20.7238C33.5836 20.9168 33.3783 21.0788 33.123 21.2099C32.8713 21.341 32.5642 21.4065 32.2016 21.4065H29.5986V20.0575H32.2016C32.3977 20.0575 32.5494 19.9992 32.6567 19.8827C32.764 19.7625 32.8177 19.6151 32.8177 19.4403C32.8177 19.2546 32.7566 19.109 32.6345 19.0034C32.5161 18.8978 32.3718 18.845 32.2016 18.845H29.5986C29.4025 18.845 29.2508 18.9051 29.1435 19.0252C29.0362 19.1417 28.9825 19.2874 28.9825 19.4622V21.4447C28.9825 21.6341 29.0417 21.7815 29.1601 21.8871C29.2822 21.9927 29.4321 22.0455 29.6097 22.0455H32.2016V23.4H29.5986C29.3988 23.4 29.1823 23.3654 28.9492 23.2962C28.7198 23.227 28.5052 23.116 28.3054 22.9631C28.1093 22.8065 27.9447 22.6044 27.8115 22.3568C27.6783 22.1056 27.6117 21.8016 27.6117 21.4447V19.4512C27.6117 19.2546 27.6468 19.0434 27.7171 18.8177C27.7874 18.5883 27.9003 18.3771 28.0557 18.1841C28.2148 17.9875 28.4201 17.8237 28.6717 17.6926C28.927 17.5615 29.236 17.496 29.5986 17.496H32.2016C32.4014 17.496 32.616 17.5306 32.8454 17.5997C33.0786 17.6689 33.2932 17.7818 33.4893 17.9384C33.6891 18.0913 33.8556 18.2934 33.9888 18.5446C34.122 18.7922 34.1886 19.0944 34.1886 19.4512Z" fill="#EA0C0E"/>
<path d="M41.3094 21.4447C41.3094 21.6414 41.2743 21.8544 41.204 22.0837C41.1337 22.3095 41.019 22.5207 40.8599 22.7173C40.7045 22.9103 40.4991 23.0723 40.2438 23.2034C39.9922 23.3345 39.6851 23.4 39.3225 23.4H36.7195C36.5196 23.4 36.3032 23.3654 36.0701 23.2962C35.8407 23.227 35.6261 23.116 35.4263 22.9631C35.2302 22.8065 35.0655 22.6044 34.9323 22.3568C34.7991 22.1056 34.7325 21.8016 34.7325 21.4447C34.7325 21.2481 34.7676 21.0351 34.8379 20.8057C34.9083 20.5763 35.0211 20.3651 35.1765 20.1722C35.3356 19.9756 35.541 19.8117 35.7926 19.6806C36.0479 19.5495 36.3568 19.484 36.7195 19.484H39.3225V20.8385H36.7195C36.5233 20.8385 36.3716 20.8986 36.2643 21.0187C36.157 21.1352 36.1034 21.2809 36.1034 21.4557C36.1034 21.6414 36.1644 21.787 36.2865 21.8926C36.4123 21.9945 36.5603 22.0455 36.7306 22.0455H39.3225C39.5186 22.0455 39.6703 21.9873 39.7776 21.8707C39.8849 21.7542 39.9385 21.6086 39.9385 21.4338V19.4512C39.9385 19.2655 39.8793 19.1181 39.7609 19.0088C39.6462 18.8996 39.5001 18.845 39.3225 18.845H36.1533V17.496H39.3225C39.5223 17.496 39.7369 17.5306 39.9663 17.5997C40.1994 17.6689 40.414 17.7818 40.6101 17.9384C40.8099 18.0913 40.9764 18.2934 41.1096 18.5446C41.2428 18.7922 41.3094 19.0944 41.3094 19.4512V21.4447Z" fill="#EA0C0E"/>
<path d="M47.792 18.916H44.5452C44.3491 18.916 44.2011 18.9651 44.1012 19.0635C44.0012 19.1581 43.9513 19.2983 43.9513 19.484V23.4H42.5083V19.484C42.5083 19.2401 42.5397 19.0216 42.6026 18.8286C42.6655 18.6356 42.7488 18.4663 42.8524 18.3207C42.9597 18.1714 43.0818 18.0458 43.2187 17.9438C43.3556 17.8382 43.498 17.7527 43.646 17.6871C43.7977 17.6216 43.9494 17.5743 44.1012 17.5451C44.2566 17.5124 44.4009 17.496 44.5341 17.496H47.792V18.916Z" fill="#EA0C0E"/>
<path d="M54.5354 23.4H50.6226C50.4228 23.4 50.2045 23.3654 49.9677 23.2962C49.7309 23.227 49.5107 23.1142 49.3072 22.9576C49.1074 22.7974 48.939 22.5917 48.8021 22.3404C48.6689 22.0856 48.6023 21.7743 48.6023 21.4065V19.484C48.6023 19.3493 48.6171 19.2073 48.6467 19.058C48.68 18.9087 48.73 18.7612 48.7966 18.6156C48.8632 18.4663 48.9483 18.3243 49.0519 18.1896C49.1592 18.0549 49.2868 17.9365 49.4348 17.8346C49.5866 17.7326 49.7605 17.6507 49.9566 17.5888C50.1527 17.5269 50.3747 17.496 50.6226 17.496H54.5354V18.916H50.6226C50.4339 18.916 50.2896 18.9633 50.1897 19.058C50.0935 19.1527 50.0454 19.2983 50.0454 19.4949V21.4065C50.0454 21.5922 50.0953 21.7342 50.1952 21.8325C50.2951 21.9308 50.4413 21.98 50.6337 21.98H54.5354V23.4Z" fill="#EA0C0E"/>
<path d="M62.4 23.4H60.957V19.484C60.957 19.2983 60.9089 19.1581 60.8127 19.0635C60.7165 18.9651 60.5721 18.916 60.3797 18.916H57.7767V17.496H60.3797C60.5166 17.496 60.6609 17.5124 60.8127 17.5451C60.9644 17.5743 61.1142 17.6216 61.2622 17.6871C61.4139 17.7527 61.5582 17.8382 61.6951 17.9438C61.832 18.0458 61.9523 18.1714 62.0559 18.3207C62.1595 18.4663 62.2427 18.6356 62.3056 18.8286C62.3685 19.0216 62.4 19.2401 62.4 19.484V23.4ZM57.194 23.4H55.7509V15H57.194V23.4Z" fill="#EA0C0E"/>
</svg>
