<svg width="197" height="21" viewBox="0 0 197 21" fill="none" xmlns="http://www.w3.org/2000/svg">
<path d="M19.3359 7.37891C19.3359 8.10319 19.2464 8.75016 19.0674 9.31982C18.8883 9.88949 18.6442 10.394 18.335 10.8335C18.0339 11.2648 17.6839 11.6351 17.2852 11.9443C16.8864 12.2536 16.4673 12.5099 16.0278 12.7134C15.5965 12.9087 15.1571 13.0511 14.7095 13.1406C14.27 13.2301 13.855 13.2749 13.4644 13.2749L20.0928 19H15.1855L8.56934 13.2749H6.28662V10.1011H13.4644C13.8631 10.0685 14.2253 9.98714 14.5508 9.85693C14.8844 9.71859 15.1693 9.53548 15.4053 9.30762C15.6494 9.07975 15.8366 8.80713 15.9668 8.48975C16.097 8.16423 16.1621 7.79395 16.1621 7.37891V5.37695C16.1621 5.19792 16.1377 5.06364 16.0889 4.97412C16.0482 4.87646 15.9912 4.80729 15.918 4.7666C15.8529 4.71777 15.7796 4.68929 15.6982 4.68115C15.625 4.67301 15.5558 4.66895 15.4907 4.66895H5.01709V19H1.84326V3.09424C1.84326 2.87451 1.88395 2.66699 1.96533 2.47168C2.04671 2.27637 2.15658 2.10547 2.29492 1.95898C2.44141 1.8125 2.6123 1.69857 2.80762 1.61719C3.00293 1.53581 3.21452 1.49512 3.44238 1.49512H15.4907C16.1987 1.49512 16.7969 1.62533 17.2852 1.88574C17.7734 2.13802 18.1681 2.45947 18.4692 2.8501C18.7785 3.23258 18.9982 3.64762 19.1284 4.09521C19.2668 4.54281 19.3359 4.96191 19.3359 5.35254V7.37891ZM39.6973 19H36.5234V14.7031H25.3662V19H22.1924V10.2476C22.1924 8.96989 22.4121 7.79395 22.8516 6.71973C23.291 5.64551 23.9014 4.72184 24.6826 3.94873C25.4639 3.17562 26.3875 2.5734 27.4536 2.14209C28.5197 1.71077 29.6834 1.49512 30.9448 1.49512H38.0981C38.3179 1.49512 38.5254 1.53581 38.7207 1.61719C38.916 1.69857 39.0869 1.8125 39.2334 1.95898C39.3799 2.10547 39.4938 2.27637 39.5752 2.47168C39.6566 2.66699 39.6973 2.87451 39.6973 3.09424V19ZM25.3662 11.5293H36.5234V4.66895H30.9448C30.8472 4.66895 30.6396 4.68522 30.3223 4.71777C30.013 4.74219 29.6509 4.81136 29.2358 4.92529C28.8289 5.03923 28.3976 5.21419 27.9419 5.4502C27.4862 5.6862 27.0671 6.01172 26.6846 6.42676C26.3021 6.8418 25.9847 7.36263 25.7324 7.98926C25.4883 8.60775 25.3662 9.36051 25.3662 10.2476V11.5293ZM60.8887 17.645C60.8887 17.8729 60.8439 18.0845 60.7544 18.2798C60.673 18.4751 60.5591 18.646 60.4126 18.7925C60.2743 18.9308 60.1074 19.0407 59.9121 19.1221C59.7168 19.2035 59.5093 19.2441 59.2896 19.2441C59.0942 19.2441 58.8949 19.2075 58.6914 19.1343C58.4961 19.061 58.3211 18.943 58.1665 18.7803L46.5698 6.6709V19H43.396V2.8501C43.396 2.52458 43.4855 2.23161 43.6646 1.97119C43.8517 1.70264 44.0877 1.50326 44.3726 1.37305C44.6737 1.25098 44.9829 1.22249 45.3003 1.2876C45.6177 1.34456 45.8903 1.49105 46.1182 1.72705L57.7148 13.8242V1.49512H60.8887V17.645ZM82.9346 19H78.4302L71.2891 11.8467H69.0552V8.64844H71.2891L78.4302 1.49512H82.9346L73.938 10.2476L82.9346 19ZM67.7856 19H64.6118V1.49512H67.7856V19ZM101.746 13.8486C101.746 14.4753 101.664 15.0409 101.501 15.5454C101.347 16.0418 101.139 16.4813 100.879 16.8638C100.618 17.2463 100.313 17.5718 99.9634 17.8403C99.6134 18.1089 99.2513 18.3286 98.877 18.4995C98.5026 18.6704 98.1201 18.7965 97.7295 18.8779C97.347 18.9593 96.9849 19 96.6431 19H84.3994V15.8262H96.6431C97.2534 15.8262 97.7254 15.6471 98.0591 15.2891C98.4009 14.931 98.5718 14.4508 98.5718 13.8486C98.5718 13.5557 98.527 13.2871 98.4375 13.043C98.348 12.7988 98.2178 12.5872 98.0469 12.4082C97.8841 12.2292 97.6807 12.0908 97.4365 11.9932C97.2005 11.8955 96.936 11.8467 96.6431 11.8467H89.3433C88.8306 11.8467 88.2772 11.7572 87.6831 11.5781C87.089 11.391 86.5356 11.0939 86.0229 10.687C85.5184 10.2801 85.0952 9.74707 84.7534 9.08789C84.4198 8.42871 84.2529 7.62305 84.2529 6.6709C84.2529 5.71875 84.4198 4.91715 84.7534 4.26611C85.0952 3.60693 85.5184 3.07389 86.0229 2.66699C86.5356 2.25195 87.089 1.95492 87.6831 1.77588C88.2772 1.5887 88.8306 1.49512 89.3433 1.49512H100.146V4.66895H89.3433C88.741 4.66895 88.269 4.85205 87.9272 5.21826C87.5936 5.58447 87.4268 6.06868 87.4268 6.6709C87.4268 7.28125 87.5936 7.76546 87.9272 8.12354C88.269 8.47347 88.741 8.64844 89.3433 8.64844H96.6431H96.6675C97.0093 8.65658 97.3714 8.7054 97.7539 8.79492C98.1364 8.8763 98.5148 9.00651 98.8892 9.18555C99.2716 9.36458 99.6338 9.59245 99.9756 9.86914C100.317 10.1377 100.618 10.4632 100.879 10.8457C101.147 11.2282 101.359 11.6676 101.514 12.1641C101.668 12.6605 101.746 13.222 101.746 13.8486Z" fill="#080C42"/>
<path d="M110.807 17.5288C110.807 17.731 110.766 17.9219 110.684 18.1016C110.609 18.2738 110.504 18.4272 110.369 18.562C110.242 18.6893 110.088 18.7904 109.909 18.8652C109.736 18.9401 109.553 18.9775 109.358 18.9775C109.156 18.9775 108.965 18.9401 108.786 18.8652C108.613 18.7904 108.46 18.6893 108.325 18.562C108.198 18.4272 108.097 18.2738 108.022 18.1016C107.947 17.9219 107.91 17.731 107.91 17.5288C107.91 17.3341 107.947 17.1507 108.022 16.9785C108.097 16.7988 108.198 16.6453 108.325 16.5181C108.46 16.3833 108.613 16.2785 108.786 16.2036C108.965 16.1213 109.156 16.0801 109.358 16.0801C109.553 16.0801 109.736 16.1213 109.909 16.2036C110.088 16.2785 110.242 16.3833 110.369 16.5181C110.504 16.6453 110.609 16.7988 110.684 16.9785C110.766 17.1507 110.807 17.3341 110.807 17.5288ZM125.589 12.5859H121.019C120.743 12.5859 120.534 12.6562 120.394 12.7969C120.253 12.9323 120.183 13.1328 120.183 13.3984V19H118.151V13.3984C118.151 13.0495 118.196 12.737 118.284 12.4609C118.373 12.1849 118.49 11.9427 118.636 11.7344C118.787 11.5208 118.959 11.3411 119.151 11.1953C119.344 11.0443 119.545 10.9219 119.753 10.8281C119.966 10.7344 120.18 10.6667 120.394 10.625C120.612 10.5781 120.815 10.5547 121.003 10.5547H125.589V12.5859ZM135.987 13.3516C135.987 13.6328 135.938 13.9375 135.839 14.2656C135.74 14.5885 135.578 14.8906 135.354 15.1719C135.136 15.4479 134.847 15.6797 134.487 15.8672C134.133 16.0547 133.701 16.1484 133.19 16.1484H129.526V14.2188H133.19C133.466 14.2188 133.68 14.1354 133.831 13.9688C133.982 13.7969 134.058 13.5859 134.058 13.3359C134.058 13.0703 133.972 12.862 133.8 12.7109C133.633 12.5599 133.43 12.4844 133.19 12.4844H129.526C129.25 12.4844 129.037 12.5703 128.886 12.7422C128.735 12.9089 128.659 13.1172 128.659 13.3672V16.2031C128.659 16.474 128.743 16.6849 128.909 16.8359C129.081 16.987 129.292 17.0625 129.542 17.0625H133.19V19H129.526C129.245 19 128.94 18.9505 128.612 18.8516C128.289 18.7526 127.987 18.5938 127.706 18.375C127.43 18.151 127.198 17.862 127.011 17.5078C126.823 17.1484 126.729 16.7135 126.729 16.2031V13.3516C126.729 13.0703 126.779 12.7682 126.878 12.4453C126.977 12.1172 127.136 11.8151 127.354 11.5391C127.578 11.2578 127.868 11.0234 128.222 10.8359C128.581 10.6484 129.016 10.5547 129.526 10.5547H133.19C133.472 10.5547 133.774 10.6042 134.097 10.7031C134.425 10.8021 134.727 10.9635 135.003 11.1875C135.284 11.4062 135.519 11.6953 135.706 12.0547C135.894 12.4089 135.987 12.8411 135.987 13.3516ZM145.519 16.1484C145.519 16.4974 145.474 16.8125 145.386 17.0938C145.297 17.3698 145.18 17.6146 145.034 17.8281C144.888 18.0365 144.719 18.2161 144.526 18.3672C144.334 18.513 144.131 18.6328 143.917 18.7266C143.709 18.8203 143.495 18.8906 143.276 18.9375C143.063 18.9792 142.86 19 142.667 19H137.167V16.9688H142.651C142.927 16.9688 143.136 16.8984 143.276 16.7578C143.417 16.6172 143.487 16.4141 143.487 16.1484C143.461 15.6068 143.188 15.3359 142.667 15.3359H139.519C139.071 15.3359 138.69 15.2578 138.378 15.1016C138.065 14.9453 137.81 14.75 137.612 14.5156C137.42 14.2812 137.279 14.0286 137.19 13.7578C137.107 13.487 137.065 13.2344 137.065 13C137.065 12.5469 137.146 12.1667 137.308 11.8594C137.469 11.5469 137.672 11.2943 137.917 11.1016C138.162 10.9089 138.427 10.7708 138.714 10.6875C139 10.599 139.269 10.5547 139.519 10.5547H144.511V12.5859H139.534C139.43 12.5859 139.347 12.599 139.284 12.625C139.227 12.6458 139.183 12.6771 139.151 12.7188C139.125 12.7552 139.11 12.7969 139.104 12.8438C139.099 12.8854 139.097 12.9271 139.097 12.9688C139.102 13.0521 139.118 13.1172 139.144 13.1641C139.17 13.2109 139.201 13.2448 139.237 13.2656C139.279 13.2865 139.323 13.2995 139.37 13.3047C139.422 13.3047 139.472 13.3047 139.519 13.3047H142.667C143.188 13.3047 143.631 13.3984 143.995 13.5859C144.36 13.7734 144.654 14.0104 144.878 14.2969C145.102 14.5781 145.263 14.8854 145.362 15.2188C145.466 15.5521 145.519 15.862 145.519 16.1484ZM156.034 13.3516C156.034 13.6328 155.985 13.9375 155.886 14.2656C155.787 14.5885 155.625 14.8906 155.401 15.1719C155.183 15.4479 154.894 15.6797 154.534 15.8672C154.18 16.0547 153.748 16.1484 153.237 16.1484H149.573V14.2188H153.237C153.513 14.2188 153.727 14.1354 153.878 13.9688C154.029 13.7969 154.104 13.5859 154.104 13.3359C154.104 13.0703 154.019 12.862 153.847 12.7109C153.68 12.5599 153.477 12.4844 153.237 12.4844H149.573C149.297 12.4844 149.084 12.5703 148.933 12.7422C148.782 12.9089 148.706 13.1172 148.706 13.3672V16.2031C148.706 16.474 148.789 16.6849 148.956 16.8359C149.128 16.987 149.339 17.0625 149.589 17.0625H153.237V19H149.573C149.292 19 148.987 18.9505 148.659 18.8516C148.336 18.7526 148.034 18.5938 147.753 18.375C147.477 18.151 147.245 17.862 147.058 17.5078C146.87 17.1484 146.776 16.7135 146.776 16.2031V13.3516C146.776 13.0703 146.826 12.7682 146.925 12.4453C147.024 12.1172 147.183 11.8151 147.401 11.5391C147.625 11.2578 147.914 11.0234 148.269 10.8359C148.628 10.6484 149.063 10.5547 149.573 10.5547H153.237C153.519 10.5547 153.821 10.6042 154.144 10.7031C154.472 10.8021 154.774 10.9635 155.05 11.1875C155.331 11.4062 155.565 11.6953 155.753 12.0547C155.94 12.4089 156.034 12.8411 156.034 13.3516ZM166.058 16.2031C166.058 16.4844 166.008 16.7891 165.909 17.1172C165.81 17.4401 165.649 17.7422 165.425 18.0234C165.206 18.2995 164.917 18.5312 164.558 18.7188C164.203 18.9062 163.771 19 163.261 19H159.597C159.315 19 159.011 18.9505 158.683 18.8516C158.36 18.7526 158.058 18.5938 157.776 18.375C157.5 18.151 157.269 17.862 157.081 17.5078C156.894 17.1484 156.8 16.7135 156.8 16.2031C156.8 15.9219 156.849 15.6172 156.948 15.2891C157.047 14.9609 157.206 14.6589 157.425 14.3828C157.649 14.1016 157.938 13.8672 158.292 13.6797C158.651 13.4922 159.086 13.3984 159.597 13.3984H163.261V15.3359H159.597C159.321 15.3359 159.107 15.4219 158.956 15.5938C158.805 15.7604 158.729 15.9688 158.729 16.2188C158.729 16.4844 158.815 16.6927 158.987 16.8438C159.164 16.9896 159.373 17.0625 159.612 17.0625H163.261C163.537 17.0625 163.75 16.9792 163.901 16.8125C164.052 16.6458 164.128 16.4375 164.128 16.1875V13.3516C164.128 13.0859 164.045 12.875 163.878 12.7188C163.716 12.5625 163.511 12.4844 163.261 12.4844H158.8V10.5547H163.261C163.542 10.5547 163.844 10.6042 164.167 10.7031C164.495 10.8021 164.797 10.9635 165.073 11.1875C165.354 11.4062 165.589 11.6953 165.776 12.0547C165.964 12.4089 166.058 12.8411 166.058 13.3516V16.2031ZM175.183 12.5859H170.612C170.336 12.5859 170.128 12.6562 169.987 12.7969C169.847 12.9323 169.776 13.1328 169.776 13.3984V19H167.745V13.3984C167.745 13.0495 167.789 12.737 167.878 12.4609C167.966 12.1849 168.084 11.9427 168.229 11.7344C168.381 11.5208 168.552 11.3411 168.745 11.1953C168.938 11.0443 169.138 10.9219 169.347 10.8281C169.56 10.7344 169.774 10.6667 169.987 10.625C170.206 10.5781 170.409 10.5547 170.597 10.5547H175.183V12.5859ZM184.675 19H179.167C178.886 19 178.578 18.9505 178.245 18.8516C177.912 18.7526 177.602 18.5911 177.315 18.3672C177.034 18.138 176.797 17.8438 176.604 17.4844C176.417 17.1198 176.323 16.6745 176.323 16.1484V13.3984C176.323 13.2057 176.344 13.0026 176.386 12.7891C176.433 12.5755 176.503 12.3646 176.597 12.1562C176.69 11.9427 176.81 11.7396 176.956 11.5469C177.107 11.3542 177.287 11.1849 177.495 11.0391C177.709 10.8932 177.953 10.776 178.229 10.6875C178.506 10.599 178.818 10.5547 179.167 10.5547H184.675V12.5859H179.167C178.901 12.5859 178.698 12.6536 178.558 12.7891C178.422 12.9245 178.354 13.1328 178.354 13.4141V16.1484C178.354 16.4141 178.425 16.6172 178.565 16.7578C178.706 16.8984 178.912 16.9688 179.183 16.9688H184.675V19ZM195.745 19H193.714V13.3984C193.714 13.1328 193.646 12.9323 193.511 12.7969C193.375 12.6562 193.172 12.5859 192.901 12.5859H189.237V10.5547H192.901C193.094 10.5547 193.297 10.5781 193.511 10.625C193.724 10.6667 193.935 10.7344 194.144 10.8281C194.357 10.9219 194.56 11.0443 194.753 11.1953C194.946 11.3411 195.115 11.5208 195.261 11.7344C195.407 11.9427 195.524 12.1849 195.612 12.4609C195.701 12.737 195.745 13.0495 195.745 13.3984V19ZM188.417 19H186.386V6.98438H188.417V19Z" fill="#EA0C0E"/>
</svg>
