<svg width="12" height="14" viewBox="0 0 12 14" fill="none" xmlns="http://www.w3.org/2000/svg">
<path d="M6.75639 7.96449H0V6.28977H6.73082C7.31037 6.28977 7.78977 6.19389 8.16903 6.00213C8.5483 5.80611 8.82955 5.53764 9.01278 5.19673C9.19602 4.85156 9.28764 4.45526 9.28764 4.00781C9.28764 3.56463 9.19602 3.16832 9.01278 2.81889C8.82955 2.46946 8.55043 2.1946 8.17543 1.99432C7.80043 1.78977 7.32741 1.6875 6.75639 1.6875H3.96946V13.0909H2.00071V0H6.75639C7.74929 0 8.57812 0.178977 9.2429 0.536932C9.91193 0.894886 10.4126 1.37642 10.745 1.98153C11.0817 2.58665 11.25 3.25994 11.25 4.00142C11.25 4.75142 11.0795 5.42685 10.7386 6.0277C10.402 6.62429 9.89915 7.0973 9.23011 7.44673C8.56534 7.7919 7.74077 7.96449 6.75639 7.96449ZM6.85227 9.06392V10.745H0V9.06392H6.85227Z" fill="#080C42"/>
</svg>
