<svg width="23" height="22" viewBox="0 0 23 22" fill="none" xmlns="http://www.w3.org/2000/svg">
<path d="M2.275 21.55C1.64167 21.55 1.10433 21.325 0.663 20.875C0.221 20.425 0 19.8917 0 19.275V8.275H2.275V19.275H19.175V21.55H2.275ZM6.425 17.4C5.79167 17.4 5.25433 17.179 4.813 16.737C4.371 16.2957 4.15 15.7583 4.15 15.125V4.175H9.075V2.275C9.075 1.64167 9.29567 1.104 9.737 0.662C10.179 0.220667 10.7167 0 11.35 0H15.15C15.7833 0 16.3207 0.220667 16.762 0.662C17.204 1.104 17.425 1.64167 17.425 2.275V4.175H22.35V15.125C22.35 15.7583 22.1293 16.2957 21.688 16.737C21.246 17.179 20.7083 17.4 20.075 17.4H6.425ZM6.425 15.125H20.075V6.45H6.425V15.125ZM11.35 4.175H15.15V2.275H11.35V4.175ZM6.425 15.125V6.45V15.125Z" fill="#080C42"/>
</svg>
