<svg width="18" height="17" viewBox="0 0 18 17" fill="none" xmlns="http://www.w3.org/2000/svg">
<path d="M1.5 17C1.08333 17 0.729333 16.854 0.438 16.562C0.146 16.2707 0 15.9167 0 15.5V6H1.5V15.5H15V17H1.5ZM4.5 14C4.08333 14 3.72933 13.854 3.438 13.562C3.146 13.2707 3 12.9167 3 12.5V3H7V1.5C7 1.08333 7.146 0.729333 7.438 0.438C7.72933 0.146 8.08333 0 8.5 0H12.5C12.9167 0 13.2707 0.146 13.562 0.438C13.854 0.729333 14 1.08333 14 1.5V3H18V12.5C18 12.9167 17.854 13.2707 17.562 13.562C17.2707 13.854 16.9167 14 16.5 14H4.5ZM4.5 12.5H16.5V4.5H4.5V12.5ZM8.5 3H12.5V1.5H8.5V3ZM4.5 12.5V4.5V12.5Z" fill="#EA0C0E"/>
</svg>
