<svg width="10" height="17" viewBox="0 0 10 17" fill="none" xmlns="http://www.w3.org/2000/svg">
<path d="M4.37855 16.3636V0H5.42685V16.3636H4.37855ZM7.65767 5.07528C7.58949 4.47017 7.30824 4.00142 6.81392 3.66903C6.3196 3.33239 5.69744 3.16406 4.94744 3.16406C4.41051 3.16406 3.94602 3.24929 3.55398 3.41974C3.16193 3.58594 2.85724 3.81605 2.63991 4.11009C2.42685 4.39986 2.32031 4.73011 2.32031 5.10085C2.32031 5.41193 2.39276 5.6804 2.53764 5.90625C2.68679 6.1321 2.88068 6.32173 3.11932 6.47514C3.36222 6.62429 3.62216 6.75 3.89915 6.85227C4.17614 6.95028 4.44247 7.03125 4.69815 7.09517L5.97656 7.42756C6.39418 7.52983 6.82244 7.66832 7.26136 7.84304C7.70028 8.01776 8.10724 8.24787 8.48224 8.53338C8.85724 8.81889 9.1598 9.17259 9.38991 9.59446C9.62429 10.0163 9.74148 10.5213 9.74148 11.1094C9.74148 11.8509 9.54972 12.5092 9.16619 13.0845C8.78693 13.6598 8.23509 14.1136 7.51065 14.446C6.79048 14.7784 5.91903 14.9446 4.89631 14.9446C3.91619 14.9446 3.06818 14.7891 2.35227 14.478C1.63636 14.1669 1.07599 13.7259 0.671165 13.1548C0.266335 12.5795 0.0426136 11.8977 0 11.1094H1.98153C2.01989 11.5824 2.1733 11.9766 2.44176 12.2919C2.71449 12.603 3.06179 12.8352 3.48366 12.9886C3.9098 13.1378 4.37642 13.2124 4.88352 13.2124C5.44176 13.2124 5.93821 13.125 6.37287 12.9503C6.81179 12.7713 7.15696 12.5241 7.40838 12.2088C7.6598 11.8892 7.78551 11.5163 7.78551 11.0902C7.78551 10.7024 7.67472 10.3849 7.45313 10.1378C7.2358 9.89063 6.93963 9.68608 6.56463 9.52415C6.19389 9.36222 5.77415 9.21946 5.3054 9.09588L3.75852 8.67401C2.71023 8.38849 1.87926 7.96875 1.26562 7.41477C0.65625 6.8608 0.351562 6.12784 0.351562 5.21591C0.351562 4.46165 0.556108 3.80327 0.965199 3.24077C1.37429 2.67827 1.92827 2.24148 2.62713 1.9304C3.32599 1.61506 4.11435 1.45739 4.99219 1.45739C5.87855 1.45739 6.66051 1.61293 7.33807 1.92401C8.01989 2.23509 8.55682 2.66335 8.94886 3.20881C9.34091 3.75 9.54545 4.37216 9.5625 5.07528H7.65767Z" fill="#080C42"/>
</svg>
