<svg width="20" height="20" viewBox="0 0 20 20" fill="none" xmlns="http://www.w3.org/2000/svg">
<path d="M4.25 15.7505H5.479L12.479 8.75048L11.25 7.52148L4.25 14.5215V15.7505ZM16.188 7.54248L12.458 3.81248L13.479 2.79248C13.8263 2.44515 14.2397 2.27148 14.719 2.27148C15.1983 2.27148 15.6113 2.44515 15.958 2.79248L17.208 4.04248C17.5413 4.37582 17.708 4.78882 17.708 5.28148C17.708 5.77482 17.5413 6.18815 17.208 6.52148L16.188 7.54248ZM14.958 8.77148L6.229 17.5005H2.5V13.7715L11.229 5.04248L14.958 8.77148ZM11.875 8.14648L11.25 7.52148L12.479 8.75048L11.875 8.14648Z" fill="#3FA6FA"/>
</svg>
