<svg width="38" height="11" viewBox="0 0 38 11" fill="none" xmlns="http://www.w3.org/2000/svg">
<path d="M3.36329 6.71489C3.36329 6.88704 3.32823 7.04963 3.25809 7.20265C3.19433 7.3493 3.10507 7.48001 2.9903 7.59478C2.88191 7.70317 2.7512 7.78925 2.59817 7.85301C2.45152 7.91677 2.29531 7.94865 2.12954 7.94865C1.95738 7.94865 1.7948 7.91677 1.64177 7.85301C1.49512 7.78925 1.36442 7.70317 1.24965 7.59478C1.14125 7.48001 1.05518 7.3493 0.991419 7.20265C0.927659 7.04963 0.895779 6.88704 0.895779 6.71489C0.895779 6.54911 0.927659 6.3929 0.991419 6.24625C1.05518 6.09323 1.14125 5.96252 1.24965 5.85413C1.36442 5.73936 1.49512 5.65009 1.64177 5.58633C1.7948 5.5162 1.95738 5.48113 2.12954 5.48113C2.29531 5.48113 2.45152 5.5162 2.59817 5.58633C2.7512 5.65009 2.88191 5.73936 2.9903 5.85413C3.10507 5.96252 3.19433 6.09323 3.25809 6.24625C3.32823 6.3929 3.36329 6.54911 3.36329 6.71489ZM17.5268 5.43705C17.5268 5.69154 17.482 5.96723 17.3925 6.26413C17.3029 6.55632 17.1568 6.82966 16.9542 7.08414C16.7562 7.33392 16.4947 7.54363 16.1695 7.71329C15.849 7.88294 15.4579 7.96777 14.996 7.96777H11.6807C11.4262 7.96777 11.1505 7.923 10.8536 7.83346C10.5614 7.74392 10.2881 7.60018 10.0336 7.40225C9.78379 7.1996 9.57408 6.93805 9.40442 6.61758C9.23476 6.29241 9.14994 5.8989 9.14994 5.43705C9.14994 5.18257 9.19471 4.90687 9.28425 4.60997C9.37379 4.31307 9.51753 4.03974 9.71546 3.78996C9.91811 3.53548 10.1797 3.32341 10.5001 3.15375C10.8253 2.98409 11.2188 2.89926 11.6807 2.89926H14.996V4.65239H11.6807C11.4309 4.65239 11.2377 4.73015 11.101 4.88567C10.9643 5.03647 10.896 5.22498 10.896 5.45119C10.896 5.69154 10.9738 5.88005 11.1293 6.01672C11.2895 6.14867 11.478 6.21465 11.6948 6.21465H14.996C15.2458 6.21465 15.439 6.13925 15.5757 5.98844C15.7124 5.83763 15.7807 5.64912 15.7807 5.42291V2.85685C15.7807 2.6165 15.7053 2.42564 15.5545 2.28426C15.4084 2.14287 15.2223 2.07218 14.996 2.07218H10.9596V0.326128H14.996C15.2505 0.326128 15.5239 0.370899 15.8161 0.46044C16.113 0.549981 16.3863 0.696075 16.6361 0.898721C16.8905 1.09665 17.1026 1.35821 17.2723 1.68339C17.4419 2.00385 17.5268 2.395 17.5268 2.85685V5.43705ZM27.5224 5.38757C27.5224 5.70332 27.4823 5.98844 27.4022 6.24292C27.3221 6.4927 27.2161 6.71419 27.0841 6.90742C26.9522 7.09592 26.799 7.25851 26.6246 7.39518C26.4503 7.52714 26.2665 7.63553 26.0732 7.72036C25.8847 7.80519 25.6939 7.86881 25.5007 7.91122C25.3074 7.94892 25.1236 7.96777 24.9493 7.96777H21.6339V6.12982H24.9493C25.1943 6.12982 25.3781 6.0662 25.5007 5.93896C25.6232 5.81171 25.6845 5.62792 25.6845 5.38757V2.9134C25.6845 2.65892 25.6208 2.47041 25.4936 2.34788C25.3711 2.22535 25.1896 2.16408 24.9493 2.16408H21.648C21.3982 2.16408 21.2097 2.2277 21.0825 2.35495C20.9553 2.47748 20.8916 2.65892 20.8916 2.89926V10.3571H19.0537V2.89926C19.0537 2.58351 19.0937 2.30075 19.1739 2.05098C19.254 1.8012 19.36 1.58206 19.492 1.39355C19.6286 1.20033 19.7841 1.03775 19.9585 0.90579C20.1329 0.769122 20.3143 0.658373 20.5028 0.573545C20.6961 0.488716 20.8893 0.427451 21.0825 0.389749C21.2804 0.347335 21.4642 0.326128 21.6339 0.326128H24.9493C25.265 0.326128 25.5478 0.366186 25.7976 0.446302C26.0473 0.526418 26.2665 0.632454 26.455 0.764409C26.6482 0.896365 26.8108 1.04953 26.9427 1.2239C27.0794 1.39827 27.1902 1.58206 27.275 1.77528C27.3598 1.96379 27.4211 2.15466 27.4588 2.34788C27.5012 2.5411 27.5224 2.72489 27.5224 2.89926V5.38757ZM37.518 5.38757C37.518 5.70332 37.478 5.98844 37.3979 6.24292C37.3178 6.4927 37.2117 6.71419 37.0798 6.90742C36.9478 7.09592 36.7946 7.25851 36.6203 7.39518C36.4459 7.52714 36.2621 7.63553 36.0689 7.72036C35.8804 7.80519 35.6895 7.86881 35.4963 7.91122C35.3031 7.94892 35.1193 7.96777 34.9449 7.96777H31.6295V6.12982H34.9449C35.19 6.12982 35.3738 6.0662 35.4963 5.93896C35.6188 5.81171 35.6801 5.62792 35.6801 5.38757V2.9134C35.6801 2.65892 35.6165 2.47041 35.4892 2.34788C35.3667 2.22535 35.1853 2.16408 34.9449 2.16408H31.6437C31.3939 2.16408 31.2054 2.2277 31.0781 2.35495C30.9509 2.47748 30.8873 2.65892 30.8873 2.89926V10.3571H29.0493V2.89926C29.0493 2.58351 29.0894 2.30075 29.1695 2.05098C29.2496 1.8012 29.3556 1.58206 29.4876 1.39355C29.6243 1.20033 29.7798 1.03775 29.9542 0.90579C30.1285 0.769122 30.31 0.658373 30.4985 0.573545C30.6917 0.488716 30.8849 0.427451 31.0781 0.389749C31.2761 0.347335 31.4599 0.326128 31.6295 0.326128H34.9449C35.2607 0.326128 35.5434 0.366186 35.7932 0.446302C36.043 0.526418 36.2621 0.632454 36.4506 0.764409C36.6438 0.896365 36.8064 1.04953 36.9384 1.2239C37.075 1.39827 37.1858 1.58206 37.2706 1.77528C37.3555 1.96379 37.4167 2.15466 37.4544 2.34788C37.4968 2.5411 37.518 2.72489 37.518 2.89926V5.38757Z" fill="#0666EB"/>
</svg>
