<svg width="89" height="16" viewBox="0 0 89 16" fill="none" xmlns="http://www.w3.org/2000/svg">
<path d="M3.80713 11.5288C3.80713 11.731 3.76595 11.9219 3.68359 12.1016C3.60872 12.2738 3.50391 12.4272 3.36914 12.562C3.24186 12.6893 3.08838 12.7904 2.90869 12.8652C2.73649 12.9401 2.55306 12.9775 2.3584 12.9775C2.15625 12.9775 1.96533 12.9401 1.78564 12.8652C1.61344 12.7904 1.45996 12.6893 1.3252 12.562C1.19792 12.4272 1.09684 12.2738 1.02197 12.1016C0.947103 11.9219 0.909668 11.731 0.909668 11.5288C0.909668 11.3341 0.947103 11.1507 1.02197 10.9785C1.09684 10.7988 1.19792 10.6453 1.3252 10.5181C1.45996 10.3833 1.61344 10.2785 1.78564 10.2036C1.96533 10.1213 2.15625 10.0801 2.3584 10.0801C2.55306 10.0801 2.73649 10.1213 2.90869 10.2036C3.08838 10.2785 3.24186 10.3833 3.36914 10.5181C3.50391 10.6453 3.60872 10.7988 3.68359 10.9785C3.76595 11.1507 3.80713 11.3341 3.80713 11.5288ZM20.5107 10.1484C20.5107 10.4974 20.4665 10.8125 20.3779 11.0938C20.2894 11.3698 20.1722 11.6146 20.0264 11.8281C19.8805 12.0365 19.7113 12.2161 19.5186 12.3672C19.3258 12.513 19.1227 12.6328 18.9092 12.7266C18.7008 12.8203 18.4899 12.8906 18.2764 12.9375C18.0628 12.9792 17.8597 13 17.667 13H14.0029V10.9688H17.667C17.9378 10.9688 18.141 10.8984 18.2764 10.7578C18.4118 10.6172 18.4795 10.4141 18.4795 10.1484V7.41406C18.4795 7.13281 18.4092 6.92448 18.2686 6.78906C18.1331 6.65365 17.9326 6.58594 17.667 6.58594H14.0186C13.7425 6.58594 13.5342 6.65625 13.3936 6.79688C13.2529 6.93229 13.1826 7.13281 13.1826 7.39844V15.6406H11.1514V7.39844C11.1514 7.04948 11.1956 6.73698 11.2842 6.46094C11.3727 6.1849 11.4899 5.94271 11.6357 5.73438C11.7868 5.52083 11.9587 5.34115 12.1514 5.19531C12.3441 5.04427 12.5446 4.92188 12.7529 4.82812C12.9665 4.73438 13.18 4.66667 13.3936 4.625C13.6123 4.57812 13.8154 4.55469 14.0029 4.55469H17.667C18.016 4.55469 18.3285 4.59896 18.6045 4.6875C18.8805 4.77604 19.1227 4.89323 19.3311 5.03906C19.5446 5.1849 19.7243 5.35417 19.8701 5.54688C20.0212 5.73958 20.1436 5.94271 20.2373 6.15625C20.3311 6.36458 20.3988 6.57552 20.4404 6.78906C20.4873 7.0026 20.5107 7.20573 20.5107 7.39844V10.1484ZM31.4326 10.1484C31.4326 10.4974 31.3883 10.8125 31.2998 11.0938C31.2113 11.3698 31.0941 11.6146 30.9482 11.8281C30.8024 12.0365 30.6331 12.2161 30.4404 12.3672C30.2477 12.513 30.0446 12.6328 29.8311 12.7266C29.6227 12.8203 29.4092 12.8906 29.1904 12.9375C28.9769 12.9792 28.7738 13 28.5811 13H24.917C24.6357 13 24.3285 12.9505 23.9951 12.8516C23.6618 12.7526 23.3519 12.5911 23.0654 12.3672C22.7842 12.138 22.5472 11.8438 22.3545 11.4844C22.167 11.1198 22.0732 10.6745 22.0732 10.1484V7.39844C22.0732 6.8776 22.167 6.4375 22.3545 6.07812C22.5472 5.71354 22.7842 5.41927 23.0654 5.19531C23.3519 4.96615 23.6618 4.80208 23.9951 4.70312C24.3285 4.60417 24.6357 4.55469 24.917 4.55469H28.5811C29.1019 4.55469 29.5446 4.64844 29.9092 4.83594C30.2738 5.02344 30.568 5.26042 30.792 5.54688C31.016 5.82812 31.1774 6.13542 31.2764 6.46875C31.3805 6.80208 31.4326 7.11198 31.4326 7.39844V10.1484ZM29.4014 7.41406C29.4014 7.13281 29.3311 6.92448 29.1904 6.78906C29.0498 6.65365 28.8467 6.58594 28.5811 6.58594H24.9326C24.6618 6.58594 24.4561 6.65625 24.3154 6.79688C24.1748 6.93229 24.1045 7.13281 24.1045 7.39844V10.1484C24.1045 10.4141 24.1748 10.6172 24.3154 10.7578C24.4561 10.8984 24.6618 10.9688 24.9326 10.9688H28.5811C28.8571 10.9688 29.0628 10.8984 29.1982 10.7578C29.3337 10.6172 29.4014 10.4141 29.4014 10.1484V7.41406ZM40.5576 6.58594H35.9873C35.7113 6.58594 35.5029 6.65625 35.3623 6.79688C35.2217 6.93229 35.1514 7.13281 35.1514 7.39844V13H33.1201V7.39844C33.1201 7.04948 33.1644 6.73698 33.2529 6.46094C33.3415 6.1849 33.4587 5.94271 33.6045 5.73438C33.7555 5.52083 33.9274 5.34115 34.1201 5.19531C34.3128 5.04427 34.5133 4.92188 34.7217 4.82812C34.9352 4.73438 35.1488 4.66667 35.3623 4.625C35.5811 4.57812 35.7842 4.55469 35.9717 4.55469H40.5576V6.58594ZM49.5811 6.58594H46.0342V13H43.9795V6.58594H41.3389V4.55469H43.9795V1.79688H46.0342V4.55469H49.5811V6.58594ZM58.3936 6.58594H53.7998V4.55469H58.3936V6.58594ZM58.3936 2.92188H53.8154C53.5394 2.92188 53.3311 2.99219 53.1904 3.13281C53.0498 3.26823 52.9795 3.46875 52.9795 3.73438V13H50.9482V3.73438C50.9482 3.38542 50.9925 3.07292 51.0811 2.79688C51.1696 2.52083 51.2868 2.27865 51.4326 2.07031C51.5837 1.85677 51.7555 1.67708 51.9482 1.53125C52.141 1.38021 52.3415 1.25781 52.5498 1.16406C52.7633 1.07031 52.9769 1.0026 53.1904 0.960938C53.404 0.914062 53.6071 0.890625 53.7998 0.890625H58.3936V2.92188ZM68.8857 10.1484C68.8857 10.4974 68.8415 10.8125 68.7529 11.0938C68.6644 11.3698 68.5472 11.6146 68.4014 11.8281C68.2555 12.0365 68.0863 12.2161 67.8936 12.3672C67.7008 12.513 67.4977 12.6328 67.2842 12.7266C67.0758 12.8203 66.8623 12.8906 66.6436 12.9375C66.43 12.9792 66.2269 13 66.0342 13H62.3701C62.0889 13 61.7816 12.9505 61.4482 12.8516C61.1149 12.7526 60.805 12.5911 60.5186 12.3672C60.2373 12.138 60.0003 11.8438 59.8076 11.4844C59.6201 11.1198 59.5264 10.6745 59.5264 10.1484V7.39844C59.5264 6.8776 59.6201 6.4375 59.8076 6.07812C60.0003 5.71354 60.2373 5.41927 60.5186 5.19531C60.805 4.96615 61.1149 4.80208 61.4482 4.70312C61.7816 4.60417 62.0889 4.55469 62.3701 4.55469H66.0342C66.555 4.55469 66.9977 4.64844 67.3623 4.83594C67.7269 5.02344 68.0212 5.26042 68.2451 5.54688C68.4691 5.82812 68.6305 6.13542 68.7295 6.46875C68.8337 6.80208 68.8857 7.11198 68.8857 7.39844V10.1484ZM66.8545 7.41406C66.8545 7.13281 66.7842 6.92448 66.6436 6.78906C66.5029 6.65365 66.2998 6.58594 66.0342 6.58594H62.3857C62.1149 6.58594 61.9092 6.65625 61.7686 6.79688C61.6279 6.93229 61.5576 7.13281 61.5576 7.39844V10.1484C61.5576 10.4141 61.6279 10.6172 61.7686 10.7578C61.9092 10.8984 62.1149 10.9688 62.3857 10.9688H66.0342C66.3102 10.9688 66.516 10.8984 66.6514 10.7578C66.7868 10.6172 66.8545 10.4141 66.8545 10.1484V7.41406ZM74.3311 13H73.4248C73.1331 13 72.8206 12.9505 72.4873 12.8516C72.1592 12.7526 71.8519 12.5911 71.5654 12.3672C71.279 12.138 71.042 11.8438 70.8545 11.4844C70.667 11.1198 70.5732 10.6745 70.5732 10.1484V0.984375H72.6045V10.1484C72.6045 10.3984 72.6826 10.599 72.8389 10.75C72.9951 10.8958 73.1904 10.9688 73.4248 10.9688H74.3311V13ZM77.6982 2.82031H75.667V0.984375H77.6982V2.82031ZM77.6982 13H75.667V4.55469H77.6982V13ZM88.8389 10.1484C88.8389 10.4974 88.7946 10.8125 88.7061 11.0938C88.6175 11.3698 88.5003 11.6146 88.3545 11.8281C88.2087 12.0365 88.0394 12.2161 87.8467 12.3672C87.654 12.513 87.4508 12.6328 87.2373 12.7266C87.029 12.8203 86.8154 12.8906 86.5967 12.9375C86.3831 12.9792 86.18 13 85.9873 13H82.3232C82.042 13 81.7347 12.9505 81.4014 12.8516C81.068 12.7526 80.7581 12.5911 80.4717 12.3672C80.1904 12.138 79.9535 11.8438 79.7607 11.4844C79.5732 11.1198 79.4795 10.6745 79.4795 10.1484V7.39844C79.4795 6.8776 79.5732 6.4375 79.7607 6.07812C79.9535 5.71354 80.1904 5.41927 80.4717 5.19531C80.7581 4.96615 81.068 4.80208 81.4014 4.70312C81.7347 4.60417 82.042 4.55469 82.3232 4.55469H85.9873C86.5081 4.55469 86.9508 4.64844 87.3154 4.83594C87.68 5.02344 87.9743 5.26042 88.1982 5.54688C88.4222 5.82812 88.5837 6.13542 88.6826 6.46875C88.7868 6.80208 88.8389 7.11198 88.8389 7.39844V10.1484ZM86.8076 7.41406C86.8076 7.13281 86.7373 6.92448 86.5967 6.78906C86.4561 6.65365 86.2529 6.58594 85.9873 6.58594H82.3389C82.068 6.58594 81.8623 6.65625 81.7217 6.79688C81.5811 6.93229 81.5107 7.13281 81.5107 7.39844V10.1484C81.5107 10.4141 81.5811 10.6172 81.7217 10.7578C81.8623 10.8984 82.068 10.9688 82.3389 10.9688H85.9873C86.2633 10.9688 86.4691 10.8984 86.6045 10.7578C86.7399 10.6172 86.8076 10.4141 86.8076 10.1484V7.41406Z" fill="#3FA6FA"/>
</svg>
