<svg width="101" height="19" viewBox="0 0 101 19" fill="none" xmlns="http://www.w3.org/2000/svg">
<path d="M18.3359 6.37891C18.3359 7.10319 18.2464 7.75016 18.0674 8.31982C17.8883 8.88949 17.6442 9.39404 17.335 9.8335C17.0339 10.2648 16.6839 10.6351 16.2852 10.9443C15.8864 11.2536 15.4673 11.5099 15.0278 11.7134C14.5965 11.9087 14.1571 12.0511 13.7095 12.1406C13.27 12.2301 12.855 12.2749 12.4644 12.2749L19.0928 18H14.1855L7.56934 12.2749H5.28662V9.10107H12.4644C12.8631 9.06852 13.2253 8.98714 13.5508 8.85693C13.8844 8.71859 14.1693 8.53548 14.4053 8.30762C14.6494 8.07975 14.8366 7.80713 14.9668 7.48975C15.097 7.16423 15.1621 6.79395 15.1621 6.37891V4.37695C15.1621 4.19792 15.1377 4.06364 15.0889 3.97412C15.0482 3.87646 14.9912 3.80729 14.918 3.7666C14.8529 3.71777 14.7796 3.68929 14.6982 3.68115C14.625 3.67301 14.5558 3.66895 14.4907 3.66895H4.01709V18H0.843262V2.09424C0.843262 1.87451 0.883952 1.66699 0.965332 1.47168C1.04671 1.27637 1.15658 1.10547 1.29492 0.958984C1.44141 0.8125 1.6123 0.698568 1.80762 0.617188C2.00293 0.535807 2.21452 0.495117 2.44238 0.495117H14.4907C15.1987 0.495117 15.7969 0.625326 16.2852 0.885742C16.7734 1.13802 17.1681 1.45947 17.4692 1.8501C17.7785 2.23258 17.9982 2.64762 18.1284 3.09521C18.2668 3.54281 18.3359 3.96191 18.3359 4.35254V6.37891ZM38.6973 18H35.5234V13.7031H24.3662V18H21.1924V9.24756C21.1924 7.96989 21.4121 6.79395 21.8516 5.71973C22.291 4.64551 22.9014 3.72184 23.6826 2.94873C24.4639 2.17562 25.3875 1.5734 26.4536 1.14209C27.5197 0.710775 28.6834 0.495117 29.9448 0.495117H37.0981C37.3179 0.495117 37.5254 0.535807 37.7207 0.617188C37.916 0.698568 38.0869 0.8125 38.2334 0.958984C38.3799 1.10547 38.4938 1.27637 38.5752 1.47168C38.6566 1.66699 38.6973 1.87451 38.6973 2.09424V18ZM24.3662 10.5293H35.5234V3.66895H29.9448C29.8472 3.66895 29.6396 3.68522 29.3223 3.71777C29.013 3.74219 28.6509 3.81136 28.2358 3.92529C27.8289 4.03923 27.3976 4.21419 26.9419 4.4502C26.4862 4.6862 26.0671 5.01172 25.6846 5.42676C25.3021 5.8418 24.9847 6.36263 24.7324 6.98926C24.4883 7.60775 24.3662 8.36051 24.3662 9.24756V10.5293ZM59.8887 16.645C59.8887 16.8729 59.8439 17.0845 59.7544 17.2798C59.673 17.4751 59.5591 17.646 59.4126 17.7925C59.2743 17.9308 59.1074 18.0407 58.9121 18.1221C58.7168 18.2035 58.5093 18.2441 58.2896 18.2441C58.0942 18.2441 57.8949 18.2075 57.6914 18.1343C57.4961 18.061 57.3211 17.943 57.1665 17.7803L45.5698 5.6709V18H42.396V1.8501C42.396 1.52458 42.4855 1.23161 42.6646 0.971191C42.8517 0.702637 43.0877 0.503255 43.3726 0.373047C43.6737 0.250977 43.9829 0.222493 44.3003 0.287598C44.6177 0.344564 44.8903 0.491048 45.1182 0.727051L56.7148 12.8242V0.495117H59.8887V16.645ZM81.9346 18H77.4302L70.2891 10.8467H68.0552V7.64844H70.2891L77.4302 0.495117H81.9346L72.938 9.24756L81.9346 18ZM66.7856 18H63.6118V0.495117H66.7856V18ZM100.746 12.8486C100.746 13.4753 100.664 14.0409 100.501 14.5454C100.347 15.0418 100.139 15.4813 99.8789 15.8638C99.6185 16.2463 99.3133 16.5718 98.9634 16.8403C98.6134 17.1089 98.2513 17.3286 97.877 17.4995C97.5026 17.6704 97.1201 17.7965 96.7295 17.8779C96.347 17.9593 95.9849 18 95.6431 18H83.3994V14.8262H95.6431C96.2534 14.8262 96.7254 14.6471 97.0591 14.2891C97.4009 13.931 97.5718 13.4508 97.5718 12.8486C97.5718 12.5557 97.527 12.2871 97.4375 12.043C97.348 11.7988 97.2178 11.5872 97.0469 11.4082C96.8841 11.2292 96.6807 11.0908 96.4365 10.9932C96.2005 10.8955 95.936 10.8467 95.6431 10.8467H88.3433C87.8306 10.8467 87.2772 10.7572 86.6831 10.5781C86.089 10.391 85.5356 10.0939 85.0229 9.68701C84.5184 9.28011 84.0952 8.74707 83.7534 8.08789C83.4198 7.42871 83.2529 6.62305 83.2529 5.6709C83.2529 4.71875 83.4198 3.91715 83.7534 3.26611C84.0952 2.60693 84.5184 2.07389 85.0229 1.66699C85.5356 1.25195 86.089 0.954915 86.6831 0.775879C87.2772 0.588704 87.8306 0.495117 88.3433 0.495117H99.1465V3.66895H88.3433C87.741 3.66895 87.269 3.85205 86.9272 4.21826C86.5936 4.58447 86.4268 5.06868 86.4268 5.6709C86.4268 6.28125 86.5936 6.76546 86.9272 7.12354C87.269 7.47347 87.741 7.64844 88.3433 7.64844H95.6431H95.6675C96.0093 7.65658 96.3714 7.7054 96.7539 7.79492C97.1364 7.8763 97.5148 8.00651 97.8892 8.18555C98.2716 8.36458 98.6338 8.59245 98.9756 8.86914C99.3174 9.1377 99.6185 9.46322 99.8789 9.8457C100.147 10.2282 100.359 10.6676 100.514 11.1641C100.668 11.6605 100.746 12.222 100.746 12.8486Z" fill="#080C42"/>
</svg>
