<svg width="197" height="22" viewBox="0 0 197 22" fill="none" xmlns="http://www.w3.org/2000/svg">
<path d="M19.3359 7.37891C19.3359 8.10319 19.2464 8.75016 19.0674 9.31982C18.8883 9.88949 18.6442 10.394 18.335 10.8335C18.0339 11.2648 17.6839 11.6351 17.2852 11.9443C16.8864 12.2536 16.4673 12.5099 16.0278 12.7134C15.5965 12.9087 15.1571 13.0511 14.7095 13.1406C14.27 13.2301 13.855 13.2749 13.4644 13.2749L20.0928 19H15.1855L8.56934 13.2749H6.28662V10.1011H13.4644C13.8631 10.0685 14.2253 9.98714 14.5508 9.85693C14.8844 9.71859 15.1693 9.53548 15.4053 9.30762C15.6494 9.07975 15.8366 8.80713 15.9668 8.48975C16.097 8.16423 16.1621 7.79395 16.1621 7.37891V5.37695C16.1621 5.19792 16.1377 5.06364 16.0889 4.97412C16.0482 4.87646 15.9912 4.80729 15.918 4.7666C15.8529 4.71777 15.7796 4.68929 15.6982 4.68115C15.625 4.67301 15.5558 4.66895 15.4907 4.66895H5.01709V19H1.84326V3.09424C1.84326 2.87451 1.88395 2.66699 1.96533 2.47168C2.04671 2.27637 2.15658 2.10547 2.29492 1.95898C2.44141 1.8125 2.6123 1.69857 2.80762 1.61719C3.00293 1.53581 3.21452 1.49512 3.44238 1.49512H15.4907C16.1987 1.49512 16.7969 1.62533 17.2852 1.88574C17.7734 2.13802 18.1681 2.45947 18.4692 2.8501C18.7785 3.23258 18.9982 3.64762 19.1284 4.09521C19.2668 4.54281 19.3359 4.96191 19.3359 5.35254V7.37891ZM39.6973 19H36.5234V14.7031H25.3662V19H22.1924V10.2476C22.1924 8.96989 22.4121 7.79395 22.8516 6.71973C23.291 5.64551 23.9014 4.72184 24.6826 3.94873C25.4639 3.17562 26.3875 2.5734 27.4536 2.14209C28.5197 1.71077 29.6834 1.49512 30.9448 1.49512H38.0981C38.3179 1.49512 38.5254 1.53581 38.7207 1.61719C38.916 1.69857 39.0869 1.8125 39.2334 1.95898C39.3799 2.10547 39.4938 2.27637 39.5752 2.47168C39.6566 2.66699 39.6973 2.87451 39.6973 3.09424V19ZM25.3662 11.5293H36.5234V4.66895H30.9448C30.8472 4.66895 30.6396 4.68522 30.3223 4.71777C30.013 4.74219 29.6509 4.81136 29.2358 4.92529C28.8289 5.03923 28.3976 5.21419 27.9419 5.4502C27.4862 5.6862 27.0671 6.01172 26.6846 6.42676C26.3021 6.8418 25.9847 7.36263 25.7324 7.98926C25.4883 8.60775 25.3662 9.36051 25.3662 10.2476V11.5293ZM60.8887 17.645C60.8887 17.8729 60.8439 18.0845 60.7544 18.2798C60.673 18.4751 60.5591 18.646 60.4126 18.7925C60.2743 18.9308 60.1074 19.0407 59.9121 19.1221C59.7168 19.2035 59.5093 19.2441 59.2896 19.2441C59.0942 19.2441 58.8949 19.2075 58.6914 19.1343C58.4961 19.061 58.3211 18.943 58.1665 18.7803L46.5698 6.6709V19H43.396V2.8501C43.396 2.52458 43.4855 2.23161 43.6646 1.97119C43.8517 1.70264 44.0877 1.50326 44.3726 1.37305C44.6737 1.25098 44.9829 1.22249 45.3003 1.2876C45.6177 1.34456 45.8903 1.49105 46.1182 1.72705L57.7148 13.8242V1.49512H60.8887V17.645ZM82.9346 19H78.4302L71.2891 11.8467H69.0552V8.64844H71.2891L78.4302 1.49512H82.9346L73.938 10.2476L82.9346 19ZM67.7856 19H64.6118V1.49512H67.7856V19ZM101.746 13.8486C101.746 14.4753 101.664 15.0409 101.501 15.5454C101.347 16.0418 101.139 16.4813 100.879 16.8638C100.618 17.2463 100.313 17.5718 99.9634 17.8403C99.6134 18.1089 99.2513 18.3286 98.877 18.4995C98.5026 18.6704 98.1201 18.7965 97.7295 18.8779C97.347 18.9593 96.9849 19 96.6431 19H84.3994V15.8262H96.6431C97.2534 15.8262 97.7254 15.6471 98.0591 15.2891C98.4009 14.931 98.5718 14.4508 98.5718 13.8486C98.5718 13.5557 98.527 13.2871 98.4375 13.043C98.348 12.7988 98.2178 12.5872 98.0469 12.4082C97.8841 12.2292 97.6807 12.0908 97.4365 11.9932C97.2005 11.8955 96.936 11.8467 96.6431 11.8467H89.3433C88.8306 11.8467 88.2772 11.7572 87.6831 11.5781C87.089 11.391 86.5356 11.0939 86.0229 10.687C85.5184 10.2801 85.0952 9.74707 84.7534 9.08789C84.4198 8.42871 84.2529 7.62305 84.2529 6.6709C84.2529 5.71875 84.4198 4.91715 84.7534 4.26611C85.0952 3.60693 85.5184 3.07389 86.0229 2.66699C86.5356 2.25195 87.089 1.95492 87.6831 1.77588C88.2772 1.5887 88.8306 1.49512 89.3433 1.49512H100.146V4.66895H89.3433C88.741 4.66895 88.269 4.85205 87.9272 5.21826C87.5936 5.58447 87.4268 6.06868 87.4268 6.6709C87.4268 7.28125 87.5936 7.76546 87.9272 8.12354C88.269 8.47347 88.741 8.64844 89.3433 8.64844H96.6431H96.6675C97.0093 8.65658 97.3714 8.7054 97.7539 8.79492C98.1364 8.8763 98.5148 9.00651 98.8892 9.18555C99.2716 9.36458 99.6338 9.59245 99.9756 9.86914C100.317 10.1377 100.618 10.4632 100.879 10.8457C101.147 11.2282 101.359 11.6676 101.514 12.1641C101.668 12.6605 101.746 13.222 101.746 13.8486Z" fill="black"/>
<path d="M110.807 17.5288C110.807 17.731 110.766 17.9219 110.684 18.1016C110.609 18.2738 110.504 18.4272 110.369 18.562C110.242 18.6893 110.088 18.7904 109.909 18.8652C109.736 18.9401 109.553 18.9775 109.358 18.9775C109.156 18.9775 108.965 18.9401 108.786 18.8652C108.613 18.7904 108.46 18.6893 108.325 18.562C108.198 18.4272 108.097 18.2738 108.022 18.1016C107.947 17.9219 107.91 17.731 107.91 17.5288C107.91 17.3341 107.947 17.1507 108.022 16.9785C108.097 16.7988 108.198 16.6453 108.325 16.5181C108.46 16.3833 108.613 16.2785 108.786 16.2036C108.965 16.1213 109.156 16.0801 109.358 16.0801C109.553 16.0801 109.736 16.1213 109.909 16.2036C110.088 16.2785 110.242 16.3833 110.369 16.5181C110.504 16.6453 110.609 16.7988 110.684 16.9785C110.766 17.1507 110.807 17.3341 110.807 17.5288ZM127.511 16.1484C127.511 16.4974 127.466 16.8125 127.378 17.0938C127.289 17.3698 127.172 17.6146 127.026 17.8281C126.881 18.0365 126.711 18.2161 126.519 18.3672C126.326 18.513 126.123 18.6328 125.909 18.7266C125.701 18.8203 125.49 18.8906 125.276 18.9375C125.063 18.9792 124.86 19 124.667 19H121.003V16.9688H124.667C124.938 16.9688 125.141 16.8984 125.276 16.7578C125.412 16.6172 125.479 16.4141 125.479 16.1484V13.4141C125.479 13.1328 125.409 12.9245 125.269 12.7891C125.133 12.6536 124.933 12.5859 124.667 12.5859H121.019C120.743 12.5859 120.534 12.6562 120.394 12.7969C120.253 12.9323 120.183 13.1328 120.183 13.3984V21.6406H118.151V13.3984C118.151 13.0495 118.196 12.737 118.284 12.4609C118.373 12.1849 118.49 11.9427 118.636 11.7344C118.787 11.5208 118.959 11.3411 119.151 11.1953C119.344 11.0443 119.545 10.9219 119.753 10.8281C119.966 10.7344 120.18 10.6667 120.394 10.625C120.612 10.5781 120.815 10.5547 121.003 10.5547H124.667C125.016 10.5547 125.328 10.599 125.604 10.6875C125.881 10.776 126.123 10.8932 126.331 11.0391C126.545 11.1849 126.724 11.3542 126.87 11.5469C127.021 11.7396 127.144 11.9427 127.237 12.1562C127.331 12.3646 127.399 12.5755 127.44 12.7891C127.487 13.0026 127.511 13.2057 127.511 13.3984V16.1484ZM138.433 16.1484C138.433 16.4974 138.388 16.8125 138.3 17.0938C138.211 17.3698 138.094 17.6146 137.948 17.8281C137.802 18.0365 137.633 18.2161 137.44 18.3672C137.248 18.513 137.045 18.6328 136.831 18.7266C136.623 18.8203 136.409 18.8906 136.19 18.9375C135.977 18.9792 135.774 19 135.581 19H131.917C131.636 19 131.328 18.9505 130.995 18.8516C130.662 18.7526 130.352 18.5911 130.065 18.3672C129.784 18.138 129.547 17.8438 129.354 17.4844C129.167 17.1198 129.073 16.6745 129.073 16.1484V13.3984C129.073 12.8776 129.167 12.4375 129.354 12.0781C129.547 11.7135 129.784 11.4193 130.065 11.1953C130.352 10.9661 130.662 10.8021 130.995 10.7031C131.328 10.6042 131.636 10.5547 131.917 10.5547H135.581C136.102 10.5547 136.545 10.6484 136.909 10.8359C137.274 11.0234 137.568 11.2604 137.792 11.5469C138.016 11.8281 138.177 12.1354 138.276 12.4688C138.381 12.8021 138.433 13.112 138.433 13.3984V16.1484ZM136.401 13.4141C136.401 13.1328 136.331 12.9245 136.19 12.7891C136.05 12.6536 135.847 12.5859 135.581 12.5859H131.933C131.662 12.5859 131.456 12.6562 131.315 12.7969C131.175 12.9323 131.104 13.1328 131.104 13.3984V16.1484C131.104 16.4141 131.175 16.6172 131.315 16.7578C131.456 16.8984 131.662 16.9688 131.933 16.9688H135.581C135.857 16.9688 136.063 16.8984 136.198 16.7578C136.334 16.6172 136.401 16.4141 136.401 16.1484V13.4141ZM147.558 12.5859H142.987C142.711 12.5859 142.503 12.6562 142.362 12.7969C142.222 12.9323 142.151 13.1328 142.151 13.3984V19H140.12V13.3984C140.12 13.0495 140.164 12.737 140.253 12.4609C140.341 12.1849 140.459 11.9427 140.604 11.7344C140.756 11.5208 140.927 11.3411 141.12 11.1953C141.313 11.0443 141.513 10.9219 141.722 10.8281C141.935 10.7344 142.149 10.6667 142.362 10.625C142.581 10.5781 142.784 10.5547 142.972 10.5547H147.558V12.5859ZM156.581 12.5859H153.034V19H150.979V12.5859H148.339V10.5547H150.979V7.79688H153.034V10.5547H156.581V12.5859ZM165.394 12.5859H160.8V10.5547H165.394V12.5859ZM165.394 8.92188H160.815C160.539 8.92188 160.331 8.99219 160.19 9.13281C160.05 9.26823 159.979 9.46875 159.979 9.73438V19H157.948V9.73438C157.948 9.38542 157.993 9.07292 158.081 8.79688C158.17 8.52083 158.287 8.27865 158.433 8.07031C158.584 7.85677 158.756 7.67708 158.948 7.53125C159.141 7.38021 159.341 7.25781 159.55 7.16406C159.763 7.07031 159.977 7.0026 160.19 6.96094C160.404 6.91406 160.607 6.89062 160.8 6.89062H165.394V8.92188ZM175.886 16.1484C175.886 16.4974 175.841 16.8125 175.753 17.0938C175.664 17.3698 175.547 17.6146 175.401 17.8281C175.256 18.0365 175.086 18.2161 174.894 18.3672C174.701 18.513 174.498 18.6328 174.284 18.7266C174.076 18.8203 173.862 18.8906 173.644 18.9375C173.43 18.9792 173.227 19 173.034 19H169.37C169.089 19 168.782 18.9505 168.448 18.8516C168.115 18.7526 167.805 18.5911 167.519 18.3672C167.237 18.138 167 17.8438 166.808 17.4844C166.62 17.1198 166.526 16.6745 166.526 16.1484V13.3984C166.526 12.8776 166.62 12.4375 166.808 12.0781C167 11.7135 167.237 11.4193 167.519 11.1953C167.805 10.9661 168.115 10.8021 168.448 10.7031C168.782 10.6042 169.089 10.5547 169.37 10.5547H173.034C173.555 10.5547 173.998 10.6484 174.362 10.8359C174.727 11.0234 175.021 11.2604 175.245 11.5469C175.469 11.8281 175.631 12.1354 175.729 12.4688C175.834 12.8021 175.886 13.112 175.886 13.3984V16.1484ZM173.854 13.4141C173.854 13.1328 173.784 12.9245 173.644 12.7891C173.503 12.6536 173.3 12.5859 173.034 12.5859H169.386C169.115 12.5859 168.909 12.6562 168.769 12.7969C168.628 12.9323 168.558 13.1328 168.558 13.3984V16.1484C168.558 16.4141 168.628 16.6172 168.769 16.7578C168.909 16.8984 169.115 16.9688 169.386 16.9688H173.034C173.31 16.9688 173.516 16.8984 173.651 16.7578C173.787 16.6172 173.854 16.4141 173.854 16.1484V13.4141ZM181.331 19H180.425C180.133 19 179.821 18.9505 179.487 18.8516C179.159 18.7526 178.852 18.5911 178.565 18.3672C178.279 18.138 178.042 17.8438 177.854 17.4844C177.667 17.1198 177.573 16.6745 177.573 16.1484V6.98438H179.604V16.1484C179.604 16.3984 179.683 16.599 179.839 16.75C179.995 16.8958 180.19 16.9688 180.425 16.9688H181.331V19ZM184.698 8.82031H182.667V6.98438H184.698V8.82031ZM184.698 19H182.667V10.5547H184.698V19ZM195.839 16.1484C195.839 16.4974 195.795 16.8125 195.706 17.0938C195.618 17.3698 195.5 17.6146 195.354 17.8281C195.209 18.0365 195.039 18.2161 194.847 18.3672C194.654 18.513 194.451 18.6328 194.237 18.7266C194.029 18.8203 193.815 18.8906 193.597 18.9375C193.383 18.9792 193.18 19 192.987 19H189.323C189.042 19 188.735 18.9505 188.401 18.8516C188.068 18.7526 187.758 18.5911 187.472 18.3672C187.19 18.138 186.953 17.8438 186.761 17.4844C186.573 17.1198 186.479 16.6745 186.479 16.1484V13.3984C186.479 12.8776 186.573 12.4375 186.761 12.0781C186.953 11.7135 187.19 11.4193 187.472 11.1953C187.758 10.9661 188.068 10.8021 188.401 10.7031C188.735 10.6042 189.042 10.5547 189.323 10.5547H192.987C193.508 10.5547 193.951 10.6484 194.315 10.8359C194.68 11.0234 194.974 11.2604 195.198 11.5469C195.422 11.8281 195.584 12.1354 195.683 12.4688C195.787 12.8021 195.839 13.112 195.839 13.3984V16.1484ZM193.808 13.4141C193.808 13.1328 193.737 12.9245 193.597 12.7891C193.456 12.6536 193.253 12.5859 192.987 12.5859H189.339C189.068 12.5859 188.862 12.6562 188.722 12.7969C188.581 12.9323 188.511 13.1328 188.511 13.3984V16.1484C188.511 16.4141 188.581 16.6172 188.722 16.7578C188.862 16.8984 189.068 16.9688 189.339 16.9688H192.987C193.263 16.9688 193.469 16.8984 193.604 16.7578C193.74 16.6172 193.808 16.4141 193.808 16.1484V13.4141Z" fill="#3FA6FA"/>
</svg>
