<svg width="51" height="50" viewBox="0 0 51 50" fill="none" xmlns="http://www.w3.org/2000/svg">
<g clip-path="url(#clip0_266_4848)">
<path d="M51.0004 25C51.0004 33.254 44.2004 40 35.7004 40C27.2813 40 20.4004 33.254 20.4004 25C20.4004 16.746 27.2004 10 35.6194 10C44.2004 10 51.0004 16.746 51.0004 25Z" fill="#1C96FA"/>
<path d="M35.7004 10C44.1194 10 51.0004 16.746 51.0004 25C51.0004 33.254 44.2004 40 35.7004 40C27.2813 40 20.4004 33.254 20.4004 25" fill="#1C96FA"/>
<path d="M35.6992 10C44.1183 10 50.9992 16.746 50.9992 25C50.9992 33.254 44.1992 40 35.6992 40" fill="#1C96FA"/>
<path d="M15.1381 9.99997C6.8 10.0793 0 16.746 0 25C0 33.2539 6.8 40 15.3 40C19.2667 40 22.8286 38.492 25.581 36.1111C26.1476 35.6349 26.6333 35.0793 27.119 34.5238H23.9619C23.5571 34.0476 23.1524 33.492 22.8286 33.0158H28.2524C28.5762 32.5396 28.9 31.9841 29.1429 31.4285H21.9381C21.6952 30.9523 21.4524 30.3968 21.2905 29.8412H29.7095C30.1952 28.3333 30.519 26.746 30.519 25.0793C30.519 23.9682 30.3571 22.9365 30.1952 21.9047H20.8048C20.8857 21.3492 21.0476 20.873 21.2095 20.3174H29.6286C29.4667 19.7619 29.2238 19.2063 28.981 18.7301H21.8571C22.1 18.1746 22.4238 17.6984 22.7476 17.1428H28.1714C27.8476 16.5873 27.4429 16.0317 26.9571 15.5555H23.9619C24.4476 15 24.9333 14.5238 25.5 14.0476C22.8286 11.5873 19.1857 10.1587 15.219 10.1587C15.219 9.99997 15.219 9.99997 15.1381 9.99997Z" fill="#1C96FA"/>
<path d="M0 24.9999C0 33.2539 6.8 40 15.3 40C19.2667 40 22.8286 38.492 25.581 36.1111C26.1476 35.6349 26.6333 35.0793 27.119 34.5238H23.9619C23.5571 34.0476 23.1524 33.492 22.8286 33.0158H28.2524C28.5762 32.5396 28.9 31.9841 29.1429 31.4285H21.9381C21.6952 30.9523 21.4524 30.3968 21.2905 29.8412H29.7095C30.1952 28.3333 30.519 26.746 30.519 25.0793C30.519 23.9682 30.3571 22.9365 30.1952 21.9047H20.8048C20.8857 21.3492 21.0476 20.873 21.2095 20.3174H29.6286C29.4667 19.7619 29.2238 19.2063 28.981 18.7301H21.8571C22.1 18.1746 22.4238 17.6984 22.7476 17.1428H28.1714C27.8476 16.5872 27.4429 16.0317 26.9571 15.5555H23.9619C24.4476 14.9999 24.9333 14.5238 25.5 14.0476C22.8286 11.5872 19.1857 10.1587 15.219 10.1587H15.1381" fill="#1C96FA"/>
<path d="M15.3006 40C19.2672 40 22.8291 38.492 25.5815 36.1111C26.1482 35.6349 26.6339 35.0793 27.1196 34.5238H23.9625C23.5577 34.0476 23.153 33.492 22.8291 33.0158H28.253C28.5768 32.5396 28.9006 31.9841 29.1434 31.4285H21.9387C21.6958 30.9523 21.453 30.3968 21.2911 29.8412H29.7101C30.1958 28.3333 30.5196 26.746 30.5196 25.0793C30.5196 23.9682 30.3577 22.9365 30.1958 21.9047H20.8053C20.8863 21.3492 21.0482 20.873 21.2101 20.3174H29.6291C29.4672 19.7619 29.2244 19.2063 28.9815 18.7301H21.8577C22.1006 18.1746 22.4244 17.6984 22.7482 17.1428H28.172C27.8482 16.5873 27.4434 16.0317 26.9577 15.5555H23.9625C24.4482 15 24.9339 14.5238 25.5006 14.0476C22.8291 11.5873 19.1863 10.1587 15.2196 10.1587H15.1387" fill="#1C96FA"/>
<path d="M20.7246 28.8093L20.9674 27.4601C20.8865 27.4601 20.7246 27.5395 20.5627 27.5395C19.996 27.5395 19.915 27.222 19.996 27.0633L20.4817 24.2855H21.3722L21.615 22.7776H20.8055L20.9674 21.8252H19.3484C19.3484 21.8252 18.377 27.0633 18.377 27.6982C18.377 28.6506 18.9436 29.0474 19.6722 29.0474C20.1579 29.0474 20.5627 28.8887 20.7246 28.8093Z" fill="#fff"/>
<path d="M21.291 26.2695C21.291 28.4917 22.8291 29.0472 24.1243 29.0472C25.3386 29.0472 25.8243 28.8091 25.8243 28.8091L26.1482 27.3012C26.1482 27.3012 25.2577 27.698 24.4482 27.698C22.6672 27.698 22.991 26.4282 22.991 26.4282H26.3101C26.3101 26.4282 26.5529 25.3964 26.5529 24.9996C26.5529 23.9679 25.9863 22.698 24.2053 22.698C22.5053 22.5393 21.291 24.2853 21.291 26.2695ZM24.1243 23.9679C25.0148 23.9679 24.8529 24.9996 24.8529 25.079H23.072C23.072 24.9996 23.2339 23.9679 24.1243 23.9679Z" fill="#fff"/>
<path d="M34.4055 28.8093L34.7293 27.0632C34.7293 27.0632 33.9198 27.46 33.3531 27.46C32.2198 27.46 31.7341 26.587 31.7341 25.6346C31.7341 23.7299 32.7055 22.6981 33.8388 22.6981C34.6484 22.6981 35.296 23.1743 35.296 23.1743L35.5388 21.5077C35.5388 21.5077 34.5674 21.1108 33.6769 21.1108C31.815 21.1108 29.9531 22.6981 29.9531 25.714C29.9531 27.6981 30.9246 29.0473 32.8674 29.0473C33.515 29.0473 34.4055 28.8093 34.4055 28.8093Z" fill="#fff"/>
<path d="M11.8184 22.5396C10.685 22.5396 9.87552 22.857 9.87552 22.857L9.63266 24.2062C9.63266 24.2062 10.3612 23.8888 11.4136 23.8888C11.9803 23.8888 12.466 23.9681 12.466 24.4443C12.466 24.7618 12.385 24.8411 12.385 24.8411C12.385 24.8411 11.8993 24.8411 11.6565 24.8411C10.2803 24.8411 8.74219 25.3967 8.74219 27.2221C8.74219 28.6507 9.71362 28.9681 10.2803 28.9681C11.4136 28.9681 11.8993 28.2538 11.9803 28.2538L11.8993 28.8888H13.3565L14.0041 24.5237C14.0041 22.6189 12.385 22.5396 11.8184 22.5396ZM12.1422 26.111C12.1422 26.3491 11.9803 27.6189 11.0089 27.6189C10.5231 27.6189 10.3612 27.2221 10.3612 26.984C10.3612 26.5872 10.6041 26.0316 11.8184 26.0316C12.0612 26.111 12.1422 26.111 12.1422 26.111Z" fill="#fff"/>
<path d="M15.5435 28.9679C15.9483 28.9679 17.9721 29.0473 17.9721 26.9044C17.9721 24.9203 16.0293 25.3171 16.0293 24.5235C16.0293 24.1266 16.3531 23.9679 16.9197 23.9679C17.1626 23.9679 18.0531 24.0473 18.0531 24.0473L18.2959 22.6187C18.2959 22.6187 17.7293 22.46 16.7578 22.46C15.5435 22.46 14.3293 22.9362 14.3293 24.5235C14.3293 26.3488 16.3531 26.1901 16.3531 26.9044C16.3531 27.3806 15.7864 27.46 15.3816 27.46C14.6531 27.46 13.9245 27.2219 13.9245 27.2219L13.6816 28.6504C13.7626 28.8092 14.1674 28.9679 15.5435 28.9679Z" fill="#fff"/>
<path d="M47.8427 21.2695L47.5189 23.4124C47.5189 23.4124 46.8713 22.6187 45.9808 22.6187C44.5237 22.6187 43.2285 24.3648 43.2285 26.4283C43.2285 27.6981 43.8761 29.0473 45.2523 29.0473C46.2237 29.0473 46.7904 28.4124 46.7904 28.4124L46.7094 28.9679H48.3285L49.5427 21.3489L47.8427 21.2695ZM47.1142 25.4759C47.1142 26.3489 46.7094 27.46 45.8189 27.46C45.2523 27.46 44.9285 26.9838 44.9285 26.1902C44.9285 24.9203 45.4951 24.1267 46.2237 24.1267C46.7904 24.1267 47.1142 24.5235 47.1142 25.4759Z" fill="#fff"/>
<path d="M2.99513 28.8886L3.96656 23.1743L4.12846 28.8886H5.26179L7.36655 23.1743L6.47608 28.8886H8.17608L9.47132 21.2695H6.79989L5.18084 25.9521L5.09989 21.2695H2.75227L1.45703 28.8886H2.99513Z" fill="#fff"/>
<path d="M28.0895 28.8887C28.5753 26.2697 28.6562 24.1268 29.7895 24.5236C29.9515 23.4919 30.1943 23.0951 30.3562 22.6982C30.3562 22.6982 30.2753 22.6982 30.0324 22.6982C29.3038 22.6982 28.7372 23.6506 28.7372 23.6506L28.8991 22.7776H27.361L26.3086 28.9681H28.0895V28.8887Z" fill="#fff"/>
<path d="M38.1289 22.5396C36.9956 22.5396 36.1861 22.857 36.1861 22.857L35.9432 24.2062C35.9432 24.2062 36.6718 23.8888 37.7242 23.8888C38.2908 23.8888 38.7765 23.9681 38.7765 24.4443C38.7765 24.7618 38.6956 24.8411 38.6956 24.8411C38.6956 24.8411 38.2099 24.8411 37.967 24.8411C36.5908 24.8411 35.0527 25.3967 35.0527 27.2221C35.0527 28.6507 36.0242 28.9681 36.5908 28.9681C37.7242 28.9681 38.2099 28.2538 38.2908 28.2538L38.2099 28.8888H39.667L40.3146 24.5237C40.3956 22.6189 38.6956 22.5396 38.1289 22.5396ZM38.5337 26.111C38.5337 26.3491 38.3718 27.6189 37.4004 27.6189C36.9146 27.6189 36.7527 27.2221 36.7527 26.984C36.7527 26.5872 36.9956 26.0316 38.2099 26.0316C38.4527 26.111 38.4527 26.111 38.5337 26.111Z" fill="#fff"/>
<path d="M41.6911 28.8887C42.1768 26.2697 42.2578 24.1268 43.3911 24.5236C43.553 23.4919 43.7959 23.0951 43.9578 22.6982C43.9578 22.6982 43.8768 22.6982 43.634 22.6982C42.9054 22.6982 42.3387 23.6506 42.3387 23.6506L42.5006 22.7776H40.9625L39.9102 28.9681H41.6911V28.8887Z" fill="#fff"/>
<path d="M18.2148 27.6982C18.2148 28.6506 18.7815 29.0474 19.5101 29.0474C20.0767 29.0474 20.5625 28.8887 20.7244 28.8093L20.9672 27.4601C20.8863 27.4601 20.7244 27.5395 20.5625 27.5395C19.9958 27.5395 19.9148 27.222 19.9958 27.0633L20.4815 24.2855H21.372L21.6148 22.7776H20.8053L20.9672 21.8252" fill="#fff"/>
<path d="M22.0996 26.2695C22.0996 28.4917 22.8282 29.0472 24.1234 29.0472C25.3377 29.0472 25.8234 28.8091 25.8234 28.8091L26.1472 27.3012C26.1472 27.3012 25.2568 27.698 24.4472 27.698C22.6663 27.698 22.9901 26.4282 22.9901 26.4282H26.3091C26.3091 26.4282 26.552 25.3964 26.552 24.9996C26.552 23.9679 25.9853 22.698 24.2044 22.698C22.5044 22.5393 22.0996 24.2853 22.0996 26.2695ZM24.1234 23.9679C25.0139 23.9679 25.1758 24.9996 25.1758 25.079H23.071C23.071 24.9996 23.2329 23.9679 24.1234 23.9679Z" fill="#fff"/>
<path d="M34.4046 28.8093L34.7284 27.0632C34.7284 27.0632 33.9189 27.46 33.3522 27.46C32.2189 27.46 31.7332 26.587 31.7332 25.6346C31.7332 23.7299 32.7046 22.6981 33.8379 22.6981C34.6474 22.6981 35.2951 23.1743 35.2951 23.1743L35.5379 21.5077C35.5379 21.5077 34.5665 21.1108 33.676 21.1108C31.8141 21.1108 30.7617 22.6981 30.7617 25.714C30.7617 27.6981 30.9236 29.0473 32.8665 29.0473C33.5141 29.0473 34.4046 28.8093 34.4046 28.8093Z" fill="#fff"/>
<path d="M9.63266 24.2855C9.63266 24.2855 10.3612 23.9681 11.4136 23.9681C11.9803 23.9681 12.466 24.0474 12.466 24.5236C12.466 24.8411 12.385 24.9205 12.385 24.9205C12.385 24.9205 11.8993 24.9205 11.6565 24.9205C10.2803 24.9205 8.74219 25.476 8.74219 27.3014C8.74219 28.73 9.71362 29.0474 10.2803 29.0474C11.4136 29.0474 11.8993 28.3332 11.9803 28.3332L11.8993 28.9681H13.3565L14.0041 24.603C14.0041 22.7776 12.385 22.6982 11.7374 22.6982L9.63266 24.2855ZM12.9517 26.1109C12.9517 26.349 11.9803 27.6189 11.0089 27.6189C10.5231 27.6189 10.3612 27.2221 10.3612 26.984C10.3612 26.5871 10.6041 26.0316 11.8184 26.0316C12.0612 26.1109 12.9517 26.1109 12.9517 26.1109Z" fill="#fff"/>
<path d="M13.7617 28.8092C13.7617 28.8092 14.2474 28.9679 15.6236 28.9679C16.0284 28.9679 18.0522 29.0473 18.0522 26.9044C18.0522 24.9203 16.1093 25.3171 16.1093 24.5235C16.1093 24.1266 16.4331 23.9679 16.9998 23.9679C17.2427 23.9679 18.1331 24.0473 18.1331 24.0473L18.376 22.6187C18.376 22.6187 17.8093 22.46 16.8379 22.46C15.6236 22.46 15.2189 22.9362 15.2189 24.5235C15.2189 26.3488 16.4331 26.1901 16.4331 26.9044C16.4331 27.3806 15.8665 27.46 15.4617 27.46" fill="#fff"/>
<path d="M47.5181 23.4126C47.5181 23.4126 46.8705 22.619 45.98 22.619C44.5228 22.619 44.0371 24.365 44.0371 26.4285C44.0371 27.6983 43.8752 29.0475 45.2514 29.0475C46.2228 29.0475 46.7895 28.4126 46.7895 28.4126L46.7086 28.9682H48.3276L49.5419 21.3491L47.5181 23.4126ZM47.4371 25.4761C47.4371 26.3491 46.7086 27.4602 45.8181 27.4602C45.2514 27.4602 44.9276 26.984 44.9276 26.1904C44.9276 24.9206 45.4943 24.1269 46.2228 24.1269C46.7895 24.1269 47.4371 24.5237 47.4371 25.4761Z" fill="#fff"/>
<path d="M2.99513 28.8886L3.96656 23.1743L4.12846 28.8886H5.26179L7.36655 23.1743L6.47608 28.8886H8.17608L9.47132 21.2695H7.44751L5.18084 25.9521L5.09989 21.2695H4.20941L1.45703 28.8886H2.99513Z" fill="#fff"/>
<path d="M26.3906 28.8887H28.0906C28.5763 26.2697 28.6573 24.1268 29.7906 24.5236C29.9525 23.4919 30.1954 23.0951 30.3573 22.6982C30.3573 22.6982 30.2763 22.6982 30.0335 22.6982C29.3049 22.6982 28.7382 23.6506 28.7382 23.6506L28.9002 22.7776" fill="#fff"/>
<path d="M35.9432 24.2855C35.9432 24.2855 36.6718 23.9681 37.7242 23.9681C38.2908 23.9681 38.7765 24.0474 38.7765 24.5236C38.7765 24.8411 38.6956 24.9205 38.6956 24.9205C38.6956 24.9205 38.2099 24.9205 37.967 24.9205C36.5908 24.9205 35.0527 25.476 35.0527 27.3014C35.0527 28.73 36.0242 29.0474 36.5908 29.0474C37.7242 29.0474 38.2099 28.3332 38.2908 28.3332L38.2099 28.9681H39.667L40.3146 24.603C40.3146 22.7776 38.6956 22.6982 38.048 22.6982L35.9432 24.2855ZM39.2623 26.1109C39.2623 26.349 38.2908 27.6189 37.3194 27.6189C36.8337 27.6189 36.6718 27.2221 36.6718 26.984C36.6718 26.5871 36.9146 26.0316 38.1289 26.0316C38.4527 26.1109 39.2623 26.1109 39.2623 26.1109Z" fill="#fff"/>
<path d="M39.9902 28.8887H41.6902C42.1759 26.2697 42.2569 24.1268 43.3902 24.5236C43.5521 23.4919 43.795 23.0951 43.9569 22.6982C43.9569 22.6982 43.876 22.6982 43.6331 22.6982C42.9045 22.6982 42.3379 23.6506 42.3379 23.6506L42.4998 22.7776" fill="#fff"/>
</g>
<defs>
<clipPath id="clip0_266_4848">
<rect width="51" height="50" fill="#1C96FA"/>
</clipPath>
</defs>
</svg>
