<svg width="55" height="15" viewBox="0 0 55 15" fill="none" xmlns="http://www.w3.org/2000/svg">
<g clip-path="url(#clip0_266_4839)">
<path fill-rule="evenodd" clip-rule="evenodd" d="M14.8208 2.85388e-07V0.0065505C14.814 0.0065505 12.6724 2.49871e-07 12.1014 1.97162C11.5779 3.77948 10.1026 8.77074 10.0618 8.9083H9.65389C9.65389 8.9083 8.14462 3.80568 7.61434 1.96507C7.04326 -0.00654999 4.89493 2.85388e-07 4.89493 2.85388e-07H0V15H4.89493V6.0917H5.09889H5.30284L8.15822 15H11.5575L14.4129 6.09825H14.8208V15H19.7157V2.85388e-07H14.8208Z" fill="#1C96FA"/>
<path fill-rule="evenodd" clip-rule="evenodd" d="M32.7018 0C32.7018 0 31.2674 0.124454 30.5943 1.57205L27.1271 8.9083H26.7191V0H21.8242V15H26.4472C26.4472 15 27.9497 14.869 28.6227 13.4279L32.022 6.0917H32.4299V15H37.3248V0H32.7018Z" fill="#1C96FA"/>
<path fill-rule="evenodd" clip-rule="evenodd" d="M39.5 6.81201V14.9998H44.3949V10.2181H49.6978C52.0093 10.2181 53.9672 8.79673 54.6947 6.81201H39.5Z" fill="#1C96FA"/>
<path fill-rule="evenodd" clip-rule="evenodd" d="M49.6969 0H38.8125C39.3564 2.8559 41.5795 5.14847 44.4553 5.8952C45.1079 6.0655 45.7946 6.15721 46.5016 6.15721H54.891C54.9658 5.81659 54.9998 5.46943 54.9998 5.10917C54.9998 2.28603 52.6271 0 49.6969 0Z" fill="#1C96FA"/>
</g>
<defs>
<clipPath id="clip0_266_4839">
<rect width="55" height="15" fill="#1C96FA"/>
</clipPath>
</defs>
</svg>
