<svg width="50" height="50" viewBox="0 0 50 50" fill="none" xmlns="http://www.w3.org/2000/svg">
<g clip-path="url(#clip0_266_4877)">
<path d="M18.334 32.1827L20.8737 17.897H24.8419L22.3816 32.1827H18.334Z" fill="#1C96FA"/>
<path d="M18.334 32.1827L21.588 17.897H24.8419L22.3816 32.1827H18.334Z" fill="#1C96FA"/>
<path d="M36.7464 18.0553C35.9527 17.7379 34.6829 17.4204 33.0956 17.4204C29.1273 17.4204 26.2702 19.4045 26.2702 22.2617C26.2702 24.4045 28.2543 25.5156 29.8416 26.2299C31.4289 26.9442 31.9051 27.4204 31.9051 28.0553C31.9051 29.0077 30.6353 29.4839 29.5242 29.4839C27.9369 29.4839 27.0638 29.2458 25.7146 28.6903L25.1591 28.4522L24.6035 31.7061C25.5559 32.103 27.3019 32.4998 29.1273 32.4998C33.3337 32.4998 36.1115 30.5156 36.1115 27.4998C36.1115 25.8331 35.0797 24.5633 32.6988 23.5315C31.2702 22.8172 30.3972 22.4204 30.3972 21.7061C30.3972 21.0712 31.1115 20.4363 32.6988 20.4363C34.048 20.4363 35.0003 20.6744 35.7146 20.9918L36.1115 21.1506L36.7464 18.0553Z" fill="#1C96FA"/>
<path d="M36.7464 18.0553C35.9527 17.7379 34.6829 17.4204 33.0956 17.4204C29.1273 17.4204 26.9845 19.4045 26.9845 22.2617C26.9845 24.4045 28.2543 25.5156 29.8416 26.2299C31.4289 26.9442 31.9051 27.4204 31.9051 28.0553C31.9051 29.0077 30.6353 29.4839 29.5242 29.4839C27.9369 29.4839 27.0638 29.2458 25.7146 28.6903L25.1591 28.4522L24.6035 31.7061C25.5559 32.103 27.3019 32.4998 29.1273 32.4998C33.3337 32.4998 36.1115 30.5156 36.1115 27.4998C36.1115 25.8331 35.0797 24.5633 32.6988 23.5315C31.2702 22.8172 30.3972 22.4204 30.3972 21.7061C30.3972 21.0712 31.1115 20.4363 32.6988 20.4363C34.048 20.4363 35.0003 20.6744 35.7146 20.9918L36.1115 21.1506L36.7464 18.0553Z" fill="#1C96FA"/>
<path d="M43.5706 17.897C42.6182 17.897 41.9039 17.9763 41.5071 18.9287L35.5547 32.1827H39.8404L40.6341 29.8017H45.7134L46.1896 32.1827H49.9991L46.6658 17.897H43.5706V17.897ZM41.7452 27.4208C41.9833 26.7065 43.3325 23.2144 43.3325 23.2144C43.3325 23.2144 43.6499 22.3414 43.888 21.7859L44.1261 23.1351C44.1261 23.1351 44.9198 26.7065 45.0785 27.5002H41.7452V27.4208Z" fill="#1C96FA"/>
<path d="M44.5229 17.897C43.5706 17.897 42.8563 17.9763 42.4594 18.9287L35.5547 32.1827H39.8404L40.6341 29.8017H45.7134L46.1896 32.1827H49.9991L46.6658 17.897H44.5229V17.897ZM41.7452 27.4208C42.0626 26.6271 43.3325 23.2144 43.3325 23.2144C43.3325 23.2144 43.6499 22.3414 43.888 21.7859L44.1261 23.1351C44.1261 23.1351 44.9198 26.7065 45.0785 27.5002H41.7452V27.4208Z" fill="#1C96FA"/>
<path d="M11.0325 27.8967L10.6356 25.8332C9.92135 23.4523 7.61976 20.8332 5.08008 19.5634L8.65151 32.2618H12.9372L19.3658 17.9761H15.0801L11.0325 27.8967Z" fill="#1C96FA"/>
<path d="M11.0325 27.8967L10.6356 25.8332C9.92135 23.4523 7.61976 20.8332 5.08008 19.5634L8.65151 32.2618H12.9372L19.3658 17.9761H15.8737L11.0325 27.8967Z" fill="#1C96FA"/>
<path d="M0 17.897L0.714286 18.0557C5.79365 19.2462 9.28571 22.2621 10.6349 25.8335L9.20635 19.0874C8.96825 18.1351 8.25397 17.897 7.38095 17.897H0V17.897Z" fill="#1C96FA"/>
<path d="M0 17.897C5.07937 19.0874 9.28571 22.1827 10.6349 25.7541L9.28571 20.1192C9.04762 19.1668 8.25397 18.6113 7.38095 18.6113L0 17.897Z" fill="#1C96FA"/>
<path d="M0 17.897C5.07937 19.0874 9.28571 22.1827 10.6349 25.7541L9.68254 22.6589C9.44444 21.7065 9.12698 20.7541 8.01587 20.3573L0 17.897Z" fill="#1C96FA"/>
<path d="M14.9995 27.4204L12.3011 24.722L11.0312 27.7379L10.7138 25.7537C9.99947 23.3728 7.69789 20.7537 5.1582 19.4839L8.72963 32.1823H13.0153L14.9995 27.4204Z" fill="#1C96FA"/>
<path d="M22.3796 32.1825L18.967 28.6904L18.332 32.1825H22.3796Z" fill="#1C96FA"/>
<path d="M31.5083 27.2617C31.8257 27.5792 31.9845 27.8173 31.9051 28.1347C31.9051 29.0871 30.6353 29.5633 29.5241 29.5633C27.9368 29.5633 27.0638 29.3252 25.7146 28.7697L25.1591 28.5316L24.6035 31.7855C25.5559 32.1824 27.3019 32.5792 29.1273 32.5792C31.667 32.5792 33.7305 31.8649 34.921 30.5951L31.5083 27.2617Z" fill="#1C96FA"/>
<path d="M36.1113 32.1825H39.8415L40.6351 29.8015H45.7145L46.1907 32.1825H50.0002L48.651 26.3888L43.8891 21.7856L44.1272 23.0555C44.1272 23.0555 44.9208 26.6269 45.0796 27.4206H41.7462C42.0637 26.6269 43.3335 23.2142 43.3335 23.2142C43.3335 23.2142 43.651 22.3412 43.8891 21.7856" fill="#1C96FA"/>
</g>
<defs>
<clipPath id="clip0_266_4877">
<rect width="50" height="50" fill="#1C96FA"/>
</clipPath>
</defs>
</svg>
