<svg width="24" height="24" viewBox="0 0 24 24" fill="none" xmlns="http://www.w3.org/2000/svg">
<path fill-rule="evenodd" clip-rule="evenodd" d="M24 12C24 18.6274 18.6274 24 12 24C5.37258 24 0 18.6274 0 12C0 5.37258 5.37258 0 12 0C18.6274 0 24 5.37258 24 12ZM18.5471 19.2388C18.5585 19.2621 18.5777 19.2806 18.6015 19.291C18.6252 19.3013 18.6519 19.303 18.6767 19.2955L19.0078 19.1943C19.0349 19.1841 19.0595 19.1683 19.0799 19.1479C19.1003 19.1274 19.1162 19.1028 19.1263 19.0758L19.9071 16.5826C19.9228 16.5231 19.9248 16.4608 19.9131 16.4003L19.7481 15.7239C19.7359 15.6743 19.7076 15.6712 19.6863 15.7178L19.4635 16.1978C19.4352 16.2525 19.3955 16.3005 19.3471 16.3386L18.9886 16.5998C18.937 16.6347 18.8798 16.6604 18.8195 16.6758L18.5856 16.7274C18.5582 16.7353 18.533 16.7494 18.512 16.7685C18.4909 16.7876 18.4745 16.8114 18.464 16.8378L18.4073 17.0069C18.3909 17.066 18.3884 17.128 18.4002 17.1882L18.5177 17.656C18.5289 17.7156 18.5226 17.7772 18.4995 17.8333L18.2331 18.3831C18.2219 18.4102 18.2161 18.4393 18.2161 18.4687C18.2161 18.4981 18.2219 18.5271 18.2331 18.5543L18.5471 19.2388ZM14.7587 4.82668C14.806 4.7901 14.8651 4.77209 14.9248 4.77605L15.4575 4.83478C15.4858 4.84026 15.5124 4.85226 15.5353 4.86984C15.5581 4.88742 15.5765 4.91009 15.5891 4.93605L15.738 5.26719C15.7604 5.32411 15.7684 5.38567 15.7613 5.44642L15.7451 5.54162C15.7359 5.59225 15.6975 5.60643 15.659 5.572L15.2418 5.20136C15.2033 5.16693 15.1942 5.17503 15.2225 5.21858L15.4706 5.60845L15.5719 5.76845L15.9891 6.42263C16.0194 6.4759 16.0368 6.53557 16.0397 6.59681V6.71832C16.0412 6.74719 16.0488 6.77541 16.0621 6.80109C16.0754 6.82676 16.094 6.8493 16.1167 6.86718L16.3962 7.06972C16.4421 7.10655 16.4716 7.16007 16.4782 7.21858L16.4995 7.68136C16.5059 7.74023 16.5332 7.79486 16.5764 7.83529L16.8033 8.02465C16.8496 8.06591 16.8874 8.11578 16.9147 8.17149L17.1172 8.61908C17.1448 8.67456 17.1838 8.72357 17.2316 8.76288L18.0114 9.36035C18.0519 9.39174 18.0458 9.43326 17.9972 9.45149L17.9263 9.47782C17.8777 9.49605 17.8737 9.53453 17.9172 9.56389L18.221 9.76643C18.2728 9.79716 18.3334 9.80964 18.3932 9.80187L19.7562 9.5568C19.8068 9.54769 19.8362 9.58111 19.822 9.63073L19.4109 10.9988C19.3908 11.0574 19.3583 11.1109 19.3157 11.1558L18.3668 12.0773C18.3294 12.1128 18.2706 12.1755 18.2362 12.214L17.5273 13.0029C17.4885 13.0505 17.4608 13.1062 17.4463 13.1659L17.265 14.1269C17.2555 14.1883 17.2583 14.2509 17.2732 14.3112L17.501 15.1214C17.5166 15.1821 17.5271 15.2441 17.5324 15.3067L17.6124 16.451C17.6127 16.4792 17.6064 16.5072 17.5939 16.5325C17.5814 16.5579 17.5631 16.5799 17.5405 16.5968L16.9856 16.9583C16.9337 16.9936 16.8852 17.0336 16.8407 17.0778L16.2281 17.7168C16.2089 17.7387 16.1945 17.7643 16.1856 17.792C16.1767 17.8197 16.1736 17.8489 16.1764 17.8778L16.3344 18.931C16.3374 18.9576 16.332 18.9846 16.3189 19.008C16.3058 19.0314 16.2858 19.0502 16.2615 19.0616L15.7845 19.2641C15.7587 19.2765 15.736 19.2948 15.7184 19.3175C15.7009 19.3402 15.6888 19.3666 15.6833 19.3948L15.582 20.1685C15.5778 20.1944 15.5659 20.2185 15.5478 20.2376C15.5298 20.2568 15.5064 20.2701 15.4807 20.2758H15.4514C15.3916 20.287 15.3366 20.316 15.2934 20.3588L14.2129 21.5214C14.1693 21.5644 14.1152 21.5951 14.0559 21.6105L12.5987 21.9143C12.5388 21.9236 12.4774 21.9148 12.4225 21.889L12.1866 21.7614C12.163 21.7476 12.1439 21.7272 12.1319 21.7027C12.1198 21.6782 12.1152 21.6507 12.1187 21.6236L12.1491 21.4383C12.1568 21.3774 12.1495 21.3155 12.1278 21.2581L11.5202 19.8515C11.4969 19.7933 11.4792 19.7329 11.4676 19.6712L11.2813 18.5573C11.2696 18.496 11.2502 18.4365 11.2235 18.3801L10.6271 17.2155C10.6034 17.1613 10.6012 17.1001 10.621 17.0444L11.1061 15.8859C11.1272 15.8279 11.1375 15.7664 11.1364 15.7047L11.0858 14.8085C11.0797 14.7471 11.0615 14.6875 11.0321 14.6333L10.0752 13.0282C10.0458 12.9744 10.0298 12.9143 10.0286 12.853L10.0559 11.4302C10.0561 11.4179 10.0538 11.4057 10.0491 11.3943C10.0445 11.3828 10.0377 11.3724 10.029 11.3637C10.0203 11.3549 10.01 11.348 9.99866 11.3432C9.98729 11.3385 9.97509 11.336 9.96277 11.336H9.35112C9.3239 11.3346 9.29764 11.3255 9.27541 11.3097C9.25317 11.2939 9.23589 11.2722 9.22556 11.2469L9.10201 10.8976C9.0929 10.8737 9.0755 10.8539 9.053 10.8418C9.0305 10.8298 9.00441 10.8262 8.97948 10.8317L7.581 11.1882C7.52014 11.2031 7.45816 11.2129 7.39568 11.2176L6.09644 11.2986C6.03645 11.2989 5.97791 11.2801 5.92936 11.2449L5.01796 10.4966C4.97076 10.4557 4.9289 10.4091 4.8934 10.3578L4.19062 9.2763C4.16066 9.22379 4.14758 9.16333 4.15315 9.10314L4.37391 7.61655C4.37933 7.55571 4.36959 7.49448 4.34556 7.43832L4.27467 7.29756C4.26324 7.27155 4.25819 7.24318 4.25996 7.21482C4.26172 7.18646 4.27023 7.15893 4.2848 7.13453L5.26505 5.64896C5.30157 5.60006 5.35004 5.56135 5.40581 5.53655L5.87872 5.3563C5.90527 5.34442 5.92911 5.32724 5.94878 5.30582C5.96846 5.28441 5.98356 5.2592 5.99315 5.23174L6.1886 4.54516C6.20887 4.48849 6.24642 4.43962 6.29594 4.40541L7.0048 3.97706C7.05782 3.94878 7.11893 3.93949 7.17796 3.95073L7.61442 4.0601C7.67314 4.07133 7.73392 4.06316 7.78758 4.03681L8.33644 3.72592C8.39165 3.69723 8.45116 3.67773 8.51264 3.6682L10.3709 3.44339C10.3974 3.44127 10.4239 3.4477 10.4465 3.46173C10.4691 3.47577 10.4866 3.49666 10.4964 3.52136L10.5876 3.77655C10.5954 3.80315 10.596 3.83137 10.5892 3.85827C10.5825 3.88517 10.5686 3.90975 10.5491 3.92946L10.3466 4.11276C10.3081 4.14719 10.3172 4.18668 10.3678 4.19883L11.3906 4.46212C11.4167 4.4705 11.4399 4.4859 11.4578 4.50663C11.4756 4.52735 11.4874 4.55259 11.4919 4.57959L11.502 4.67073C11.5066 4.69839 11.5184 4.72436 11.5361 4.74604C11.5539 4.76773 11.5771 4.78436 11.6033 4.79427L12.3547 5.0444C12.3786 5.05126 12.4042 5.04906 12.4266 5.03823C12.4491 5.02739 12.4667 5.00868 12.4762 4.98567L12.6595 4.47934C12.6684 4.45532 12.6862 4.43558 12.7091 4.42412C12.732 4.41265 12.7584 4.41031 12.783 4.41756L14.5228 4.92389C14.5508 4.93052 14.58 4.93088 14.6081 4.92492C14.6363 4.91897 14.6629 4.90686 14.6858 4.88946L14.7587 4.82668Z" fill="white"/>
</svg>
