<svg width="24" height="24" viewBox="0 0 24 24" fill="none" xmlns="http://www.w3.org/2000/svg">
<path fill-rule="evenodd" clip-rule="evenodd" d="M24 12C24 18.6274 18.6274 24 12 24C5.37258 24 0 18.6274 0 12C0 5.37258 5.37258 0 12 0C18.6274 0 24 5.37258 24 12ZM15.8774 4.34356C15.9082 4.35362 15.9095 4.37313 15.8774 4.38634L15.4445 4.58766C15.43 4.59498 15.4183 4.60694 15.4114 4.62164C15.4044 4.63634 15.4026 4.65295 15.4062 4.66882L15.5697 5.30613C15.5749 5.32331 15.5839 5.33912 15.596 5.35239C15.6081 5.36567 15.623 5.37609 15.6396 5.38289L16.0101 5.5169C16.0265 5.52173 16.0439 5.522 16.0604 5.51768C16.0769 5.51335 16.092 5.5046 16.1039 5.49236L16.6676 4.84687C16.6938 4.82019 16.7276 4.80238 16.7645 4.79591L17.3219 4.73299C17.3594 4.72701 17.3951 4.7126 17.4263 4.69084L17.661 4.51154C17.6918 4.4895 17.7273 4.47506 17.7648 4.46938L18.7651 4.3662C18.7805 4.36435 18.7946 4.35691 18.8048 4.34531C18.815 4.33371 18.8206 4.31875 18.8205 4.30329L18.8079 4.07366C18.8079 4.0561 18.8121 4.0388 18.8201 4.02317C18.8281 4.00753 18.8396 3.994 18.8538 3.98369L19.2747 3.71945C19.2874 3.71053 19.2963 3.69726 19.2998 3.68217C19.3033 3.66708 19.3011 3.65123 19.2936 3.63767L19.2011 3.4873C19.1973 3.48172 19.195 3.47531 19.1943 3.46862C19.1937 3.46193 19.1946 3.45517 19.1972 3.44895C19.1997 3.44273 19.2038 3.43723 19.209 3.43295C19.2142 3.42867 19.2203 3.42573 19.2269 3.42439L20.0379 3.20419C20.0693 3.19601 20.0681 3.19098 20.0379 3.19349L19.1728 3.26144C19.1407 3.26144 19.1319 3.24697 19.1539 3.22306L19.2867 3.07836C19.3081 3.05446 19.2999 3.03621 19.2678 3.0381L16.957 3.1482L16.84 3.15449L16.2637 3.18657C16.2316 3.18657 16.1794 3.19287 16.1473 3.19727L15.644 3.26018C15.6125 3.26396 15.5603 3.2734 15.5288 3.28032L14.8921 3.42753C14.8607 3.43445 14.8613 3.44452 14.8921 3.44955L15.2772 3.50869C15.3086 3.51373 15.3105 3.52694 15.2772 3.53826L14.8676 3.68988C14.8374 3.70121 14.8393 3.71002 14.8714 3.71002H15.7937C15.8006 3.70945 15.8076 3.71069 15.8139 3.7136C15.8202 3.71652 15.8256 3.72101 15.8296 3.72664C15.8337 3.73227 15.8362 3.73886 15.837 3.74576C15.8377 3.75266 15.8367 3.75963 15.834 3.76601L15.7365 4.05919C15.7322 4.07406 15.7336 4.08997 15.7403 4.1039C15.747 4.11783 15.7586 4.12879 15.7729 4.13468L16.0875 4.24856C16.1177 4.25988 16.1164 4.26806 16.0837 4.2668L15.6433 4.2517C15.6113 4.2517 15.61 4.25799 15.6402 4.26806L15.8774 4.34356ZM16.2052 3.07648C16.2366 3.07586 16.2372 3.07963 16.2052 3.08529L14.7223 3.35393C14.6842 3.36197 14.6476 3.37554 14.6134 3.3942L14.1951 3.64271C14.1612 3.66064 14.1239 3.67115 14.0856 3.67354L13.1633 3.69052H13.8553C13.8874 3.69052 13.8918 3.70499 13.8648 3.72324L13.676 3.84907C13.6435 3.86863 13.6064 3.87906 13.5684 3.87926L12.7613 3.84592C12.7548 3.84652 12.7483 3.84523 12.7426 3.8422C12.7368 3.83917 12.7321 3.83453 12.729 3.82885C12.7258 3.82318 12.7244 3.81671 12.7249 3.81024C12.7254 3.80378 12.7277 3.79759 12.7317 3.79244L12.7506 3.7591C12.7543 3.75247 12.7567 3.74515 12.7576 3.73758C12.7585 3.73001 12.7579 3.72234 12.7558 3.71502C12.7537 3.70769 12.7501 3.70086 12.7453 3.69492C12.7406 3.68899 12.7346 3.68407 12.7279 3.68046L12.6191 3.62069C12.5908 3.60559 12.5939 3.5886 12.6266 3.5886L13.5074 3.52066C13.5395 3.51814 13.5414 3.50619 13.5112 3.49486L13.1199 3.3445C13.0884 3.33254 13.089 3.31556 13.1199 3.30549L13.4344 3.20609C13.4704 3.19706 13.5084 3.20061 13.542 3.21615L13.939 3.43006C13.9673 3.44579 13.9724 3.4395 13.9491 3.41685L13.8975 3.36463C13.8748 3.34198 13.8824 3.32311 13.9145 3.32311H14.1825C14.2146 3.32311 14.2165 3.3143 14.1863 3.30297L13.8339 3.17085C13.8037 3.15953 13.8056 3.14821 13.8377 3.14821L16.2052 3.07648ZM8.5127 10.7407C8.48062 10.7457 8.46489 10.7444 8.47684 10.7407L8.55045 10.6998L8.82224 10.55C8.83849 10.5421 8.85615 10.5375 8.8742 10.5366C8.89225 10.5356 8.9103 10.5383 8.92731 10.5444L9.87101 10.9464C9.90121 10.959 9.89932 10.9734 9.86724 10.9791L9.55267 11.032C9.5152 11.0361 9.47734 11.0291 9.44383 11.0118L8.94052 10.7105C8.90707 10.693 8.86915 10.686 8.83168 10.6903L8.5127 10.7407ZM9.89681 11.298C9.86661 11.2905 9.86598 11.2754 9.89681 11.2641L10.0302 11.2144C10.0372 11.2122 10.0436 11.2084 10.0489 11.2034C10.0542 11.1984 10.0583 11.1922 10.0609 11.1854C10.0635 11.1785 10.0646 11.1712 10.0639 11.1639C10.0633 11.1566 10.061 11.1496 10.0572 11.1433L10.027 11.0873C10.0113 11.059 10.0252 11.0382 10.0572 11.0382C10.0572 11.0382 10.3743 11.0502 10.4177 11.0502C10.4611 11.0502 10.6436 11.176 10.6436 11.176C10.67 11.1942 10.6669 11.2169 10.636 11.2269L10.2422 11.3528C10.2055 11.3628 10.1669 11.3641 10.1296 11.3566L9.89681 11.298ZM9.31925 4.19072C9.30284 4.19478 9.28562 4.19409 9.26958 4.18874C9.25355 4.1834 9.23936 4.17361 9.22866 4.16052L9.18273 4.09761C9.17817 4.092 9.175 4.0854 9.17348 4.07833C9.17196 4.07127 9.17212 4.06395 9.17396 4.05696C9.1758 4.04997 9.17926 4.04351 9.18406 4.03811C9.18887 4.03272 9.19488 4.02853 9.20161 4.02589L9.6722 3.8145C9.70771 3.80013 9.74593 3.79369 9.78419 3.79563L10.3026 3.84281C10.341 3.84766 10.3785 3.85805 10.414 3.87364L10.7851 4.05357C10.8195 4.06809 10.8577 4.07118 10.894 4.06238L11.3155 3.93655C11.347 3.92711 11.3526 3.93655 11.3287 3.9592L11.0689 4.19764C11.045 4.21966 11.0506 4.24483 11.0821 4.25364L11.1714 4.2788C11.2023 4.28761 11.2029 4.30522 11.1714 4.31718L10.8902 4.43168C10.8548 4.44421 10.8163 4.44553 10.7801 4.43546L10.6316 4.38576C10.5947 4.3752 10.556 4.37178 10.5178 4.37569L9.85402 4.47446C9.81745 4.47757 9.78111 4.46628 9.75273 4.44301L9.65144 4.34927C9.62753 4.32725 9.63445 4.30648 9.66654 4.30271L10.1422 4.2442C10.1743 4.24043 10.1743 4.2335 10.1422 4.22847L9.79614 4.17437C9.76405 4.16933 9.76091 4.15172 9.78859 4.13473L10.0491 3.9787C10.0767 3.96235 10.0742 3.95605 10.0434 3.96612L9.31925 4.19072ZM12.8085 4.95041C12.806 4.94367 12.8051 4.93644 12.8059 4.9293L12.8116 4.8431C12.8121 4.83538 12.8141 4.82784 12.8175 4.82091C12.821 4.81398 12.8258 4.80781 12.8316 4.80277C12.8375 4.79772 12.8443 4.7939 12.8517 4.79154C12.859 4.78918 12.8668 4.78831 12.8745 4.789L13.1765 4.80976C13.2146 4.81037 13.2522 4.8015 13.286 4.78397L13.5338 4.64367C13.5405 4.63978 13.5478 4.63727 13.5554 4.63628C13.563 4.63528 13.5708 4.63583 13.5781 4.63788C13.5855 4.63993 13.5924 4.64346 13.5985 4.64823C13.6045 4.65301 13.6094 4.65895 13.6131 4.66569L13.6288 4.69274C13.6369 4.70676 13.6497 4.71747 13.6649 4.723C13.6801 4.72852 13.6967 4.7285 13.7119 4.72294L13.7899 4.69274C13.7965 4.69129 13.8026 4.68796 13.8074 4.68313C13.8122 4.67831 13.8155 4.67221 13.8169 4.66556C13.8183 4.65891 13.8177 4.652 13.8153 4.64566C13.8128 4.63932 13.8086 4.63382 13.8031 4.62983L13.5684 4.39516C13.5412 4.37026 13.5053 4.35715 13.4684 4.35867L13.2388 4.37754C13.2016 4.37846 13.1652 4.36719 13.135 4.34546L13.067 4.28946C13.0365 4.26707 13.0008 4.25278 12.9632 4.24794L12.4738 4.21334C12.4417 4.21082 12.4385 4.19635 12.4668 4.18125L12.8688 3.96294C12.8972 3.94721 12.9047 3.95602 12.8858 3.98245L12.8393 4.04536C12.8347 4.05095 12.8316 4.05755 12.8301 4.06461C12.8286 4.07166 12.8288 4.07897 12.8307 4.08592C12.8326 4.09288 12.8362 4.09927 12.8411 4.10458C12.8459 4.10989 12.852 4.11396 12.8588 4.11645L12.8814 4.12715C12.8966 4.13305 12.9132 4.13378 12.9288 4.12923C12.9444 4.12468 12.958 4.1151 12.9676 4.10198L12.989 4.06927C13.0112 4.03985 13.0435 4.01968 13.0796 4.01264L13.498 3.95665L13.5134 3.95449C13.5451 3.95 13.587 3.94407 13.6144 3.94407L13.8585 3.92456C13.8737 3.92439 13.8884 3.92971 13.8999 3.93954C13.9115 3.94937 13.9191 3.96304 13.9214 3.97804L13.9352 4.07807C13.9383 4.09517 13.9457 4.11119 13.9567 4.12463C13.9677 4.13806 13.982 4.14846 13.9981 4.15483L14.2743 4.24668C14.2808 4.24825 14.2867 4.25146 14.2916 4.25601C14.2964 4.26055 14.3 4.26627 14.3019 4.27261C14.3039 4.27895 14.3042 4.28569 14.3028 4.29217C14.3013 4.29865 14.2983 4.30466 14.2938 4.3096L14.2077 4.41969C14.203 4.42456 14.1998 4.43057 14.1983 4.4371C14.1967 4.44364 14.197 4.45046 14.199 4.45687C14.201 4.46328 14.2046 4.46904 14.2096 4.47356C14.2145 4.47809 14.2206 4.48121 14.2272 4.48261L14.6348 4.60844C14.6657 4.61787 14.6694 4.63989 14.6424 4.65814L14.3498 4.85254C14.3367 4.86178 14.3205 4.86562 14.3045 4.86328C14.2886 4.86094 14.2742 4.8526 14.2643 4.83996L14.2083 4.77201C14.1964 4.7589 14.1816 4.74876 14.1651 4.74242C14.1486 4.73609 14.1309 4.73372 14.1133 4.73552L14.0416 4.74622C14.0345 4.74683 14.0277 4.74919 14.0218 4.75308C14.0158 4.75697 14.011 4.76227 14.0076 4.76851C14.0042 4.77475 14.0025 4.78173 14.0025 4.78882C14.0025 4.79591 14.0042 4.80289 14.0076 4.80913L14.0894 4.99095C14.0925 4.99797 14.0943 5.00555 14.0945 5.01324C14.0947 5.02093 14.0934 5.02859 14.0906 5.03578C14.0879 5.04297 14.0838 5.04954 14.0785 5.05513C14.0732 5.06071 14.0668 5.0652 14.0598 5.06833L14.0372 5.0784C14.0021 5.09138 13.9638 5.09314 13.9277 5.08344L13.7358 5.02052C13.7087 5.01046 13.693 5.02492 13.7087 5.05324L13.7962 5.21052C13.8119 5.23883 13.8019 5.2489 13.7735 5.23317L13.2834 4.95887C13.2497 4.94212 13.2121 4.93473 13.1746 4.93748L12.86 4.97963C12.853 4.98095 12.8457 4.9806 12.8388 4.9786C12.8319 4.9766 12.8255 4.97301 12.8203 4.96812C12.815 4.96322 12.811 4.95716 12.8085 4.95041ZM8.93672 12.5771C8.9283 12.564 8.91535 12.5546 8.90036 12.5505C8.88538 12.5465 8.86943 12.5481 8.85557 12.5551L8.57371 12.7111C8.55898 12.7186 8.54223 12.7211 8.52593 12.7184C8.50963 12.7157 8.49463 12.7078 8.48312 12.696L8.25285 12.4368C8.24173 12.4228 8.23387 12.4065 8.22984 12.3891C8.22582 12.3717 8.22572 12.3536 8.22958 12.3361L8.39063 11.7359C8.39287 11.7292 8.39345 11.722 8.3923 11.715C8.39116 11.708 8.38833 11.7013 8.38407 11.6956C8.3798 11.6899 8.37422 11.6854 8.36781 11.6823C8.36139 11.6792 8.35433 11.6778 8.34722 11.678L7.67531 11.6617C7.64259 11.6617 7.63127 11.6378 7.64888 11.6114L8.16163 10.8425C8.17924 10.8155 8.16792 10.7973 8.13583 10.8017L7.69544 10.8646C7.65937 10.8718 7.62729 10.8922 7.60547 10.9218L7.45762 11.1502C7.44708 11.1646 7.4335 11.1765 7.41785 11.1851C7.40219 11.1937 7.38485 11.1987 7.36703 11.1999H6.86812C6.85172 11.1993 6.83597 11.1933 6.82334 11.1829C6.8107 11.1724 6.8019 11.158 6.79829 11.142L6.72405 10.757C6.71899 10.7194 6.72398 10.6812 6.73852 10.6463L6.97633 10.1549C6.99277 10.1197 7.00461 10.0824 7.01157 10.0442L7.03107 9.92904C7.03457 9.91219 7.04212 9.89645 7.05309 9.88318C7.06405 9.86991 7.07809 9.85952 7.09398 9.85292L7.9257 9.58113C7.94204 9.5766 7.95934 9.577 7.97546 9.58226C7.99157 9.58751 8.00578 9.59741 8.0163 9.6107L8.10123 9.72709C8.10511 9.73306 8.11043 9.73797 8.11669 9.74137C8.12296 9.74476 8.12997 9.74654 8.13709 9.74654C8.14422 9.74654 8.15123 9.74476 8.15749 9.74137C8.16375 9.73797 8.16907 9.73306 8.17295 9.72709L8.2906 9.58616C8.30302 9.57315 8.31796 9.56282 8.33451 9.55579C8.35106 9.54875 8.36888 9.54518 8.38686 9.54527L8.78951 9.57547C8.82847 9.57798 8.86756 9.57798 8.90653 9.57547L9.05941 9.56477C9.07639 9.56427 9.09316 9.56862 9.10776 9.57731C9.12236 9.586 9.13417 9.59867 9.14182 9.61384L9.17076 9.6799C9.17701 9.69645 9.1793 9.71423 9.17745 9.73182C9.17559 9.74941 9.16964 9.76632 9.16007 9.78119L9.07513 9.89822C9.06557 9.91319 9.05943 9.93008 9.05715 9.9477C9.05486 9.96532 9.05649 9.98322 9.06192 10.0001L9.15441 10.2373C9.16573 10.2675 9.19152 10.2713 9.21103 10.2455L9.39033 10.0115C9.41191 9.98025 9.42532 9.94413 9.42934 9.90639L9.46079 9.36848C9.46286 9.35083 9.46878 9.33386 9.47813 9.31875C9.48748 9.30364 9.50003 9.29076 9.5149 9.28103L10.4146 8.76199C10.4477 8.74161 10.4776 8.71637 10.5033 8.68713L11.1211 7.94915C11.1465 7.92205 11.1805 7.9045 11.2173 7.89945L11.5627 7.87051C11.5801 7.86805 11.5964 7.86088 11.6099 7.84979C11.6235 7.83869 11.6337 7.8241 11.6395 7.80759L11.6986 7.63018C11.7054 7.61364 11.7157 7.59875 11.7287 7.58649C11.7417 7.57423 11.7572 7.56489 11.7741 7.55908L12.5291 7.35839C12.5606 7.35021 12.5662 7.35839 12.5429 7.38356L12.3202 7.59243C12.2969 7.61445 12.3026 7.62389 12.3334 7.61382L12.6266 7.5163C12.6568 7.50561 12.7059 7.48673 12.7355 7.47352L13.1872 7.27094C13.2161 7.25773 13.2155 7.23885 13.1872 7.22942L12.76 7.09164C12.7249 7.07865 12.6954 7.054 12.6763 7.0218L12.5863 6.76449C12.5555 6.75442 12.5568 6.74372 12.5863 6.73995L13.7817 6.59902C13.8138 6.59525 13.822 6.61223 13.8006 6.63551L13.4753 6.99223C13.4533 7.01614 13.4621 7.03753 13.4942 7.04005L14.1284 7.08849C14.1604 7.08849 14.1762 7.06899 14.1642 7.03879L14.0164 6.68521C14.0106 6.66849 14.0087 6.65067 14.0109 6.63311C14.0131 6.61555 14.0193 6.59872 14.029 6.58392L14.229 6.31214C14.2335 6.30616 14.2367 6.29929 14.2384 6.29199C14.2401 6.2847 14.2403 6.27713 14.2388 6.26977C14.2374 6.26242 14.2345 6.25544 14.2302 6.2493C14.2259 6.24316 14.2203 6.23799 14.2139 6.23412L13.7553 5.94912C13.741 5.9393 13.7295 5.926 13.7218 5.91048C13.7141 5.89496 13.7104 5.87773 13.7112 5.86042L13.7565 5.43764C13.7603 5.40555 13.7389 5.39108 13.71 5.40492L13.2576 5.62323C13.2522 5.62701 13.2457 5.6291 13.239 5.62924C13.2324 5.62938 13.2258 5.62756 13.2202 5.62401C13.2146 5.62046 13.2101 5.61533 13.2074 5.60926C13.2046 5.6032 13.2037 5.59646 13.2048 5.58989V5.38039C13.2043 5.36406 13.1982 5.3484 13.1876 5.33602C13.1769 5.32365 13.1623 5.31532 13.1463 5.31244L12.531 5.21492C12.513 5.21319 12.4948 5.21508 12.4775 5.22049C12.4602 5.22589 12.4442 5.23469 12.4303 5.24638L12.1497 5.5125C12.1374 5.52533 12.1282 5.54074 12.1226 5.55762C12.1171 5.5745 12.1154 5.5924 12.1176 5.61002L12.173 5.89942C12.1755 5.91516 12.1722 5.93125 12.164 5.94484C12.1557 5.95843 12.1428 5.96864 12.1277 5.97366L11.6433 6.11396C11.6078 6.12572 11.5765 6.14759 11.5533 6.17687L11.274 6.58078C11.2551 6.6072 11.2324 6.60406 11.223 6.57323L11.1601 6.37694C11.1559 6.35975 11.1557 6.34181 11.1597 6.32456C11.1636 6.3073 11.1715 6.2912 11.1827 6.27753L11.3344 6.11396C11.3394 6.10989 11.343 6.10444 11.345 6.09829C11.3469 6.09213 11.3469 6.08556 11.3451 6.07937C11.3433 6.07319 11.3397 6.06769 11.3348 6.06354C11.3298 6.0594 11.3238 6.0568 11.3174 6.05608L10.9072 5.95542C10.8906 5.95017 10.8756 5.94087 10.8635 5.92834C10.8514 5.91582 10.8426 5.90047 10.838 5.88369L10.8065 5.72767C10.8054 5.72052 10.8026 5.71374 10.7983 5.70786C10.7941 5.70199 10.7886 5.69718 10.7822 5.69382C10.7757 5.69046 10.7686 5.68865 10.7614 5.68851C10.7542 5.68838 10.747 5.68994 10.7405 5.69307L10.4441 5.81889C10.4139 5.83148 10.4001 5.81889 10.4127 5.78806L10.4636 5.66538C10.4667 5.65839 10.4682 5.65085 10.4682 5.64324C10.4681 5.63563 10.4665 5.6281 10.4635 5.62113C10.4604 5.61417 10.4559 5.60791 10.4503 5.60275C10.4447 5.59759 10.4381 5.59364 10.4309 5.59114L10.3296 5.55403C10.2994 5.5427 10.2982 5.52257 10.3296 5.50873L11.3212 5.03939C11.3565 5.02309 11.3931 5.00963 11.4306 4.99913L11.8949 4.8733C11.9258 4.86512 11.9295 4.84373 11.9025 4.82549L11.7691 4.73678C11.7427 4.71853 11.7464 4.7091 11.7779 4.71476L12.0673 4.77012C12.0843 4.77262 12.1017 4.77043 12.1175 4.76378C12.1334 4.75712 12.1471 4.74626 12.1573 4.73237L12.1655 4.72105C12.1748 4.70803 12.1884 4.6987 12.2039 4.69468C12.2195 4.69066 12.2359 4.69219 12.2504 4.69903L12.3385 4.74244C12.3723 4.75629 12.4103 4.75629 12.4442 4.74244L12.7587 4.59837C12.7929 4.58138 12.8225 4.55633 12.8449 4.52539L12.9343 4.39201C12.9519 4.36496 12.9399 4.34294 12.9078 4.34294H12.6436C12.6053 4.34475 12.5679 4.35438 12.5335 4.37125L12.2133 4.54615C12.185 4.56188 12.1774 4.55307 12.1969 4.52728L12.2416 4.46436C12.2463 4.45981 12.2495 4.45398 12.2509 4.4476C12.2523 4.44122 12.2518 4.43456 12.2495 4.42846C12.2471 4.42236 12.243 4.41709 12.2377 4.41329C12.2324 4.4095 12.2261 4.40735 12.2196 4.40711L12.0075 4.36936C12.0004 4.36903 11.9935 4.36677 11.9875 4.36282C11.9815 4.35886 11.9768 4.35337 11.9737 4.34692C11.9706 4.34047 11.9693 4.3333 11.9699 4.32618C11.9706 4.31905 11.9731 4.31223 11.9773 4.30645L12.0956 4.08248C12.1047 4.06755 12.1174 4.05506 12.1324 4.04607C12.1474 4.03709 12.1643 4.03188 12.1818 4.03089H12.3542C12.3928 4.02952 12.4308 4.02165 12.4668 4.00761L12.6285 3.9384C12.6587 3.92582 12.6568 3.90946 12.6254 3.90254L12.3932 3.85095C12.3566 3.84477 12.3191 3.85144 12.2869 3.86983L11.7307 4.22969C11.7182 4.23871 11.7094 4.25202 11.706 4.26711C11.7026 4.28219 11.7049 4.29799 11.7125 4.31148L11.7464 4.36622C11.7505 4.37251 11.7532 4.37959 11.7544 4.387C11.7555 4.39441 11.7551 4.40198 11.7532 4.40922C11.7512 4.41646 11.7477 4.4232 11.743 4.42902C11.7383 4.43483 11.7324 4.43959 11.7257 4.44297L11.3866 4.61976C11.3708 4.62703 11.3534 4.6301 11.3361 4.62867C11.3188 4.62723 11.3022 4.62135 11.2878 4.61158L11.2249 4.56691C11.1936 4.54548 11.1571 4.53288 11.1192 4.53042L10.351 4.51344C10.3331 4.51403 10.3156 4.51843 10.2995 4.52635C10.2835 4.53427 10.2693 4.54552 10.2579 4.55936L10.1151 4.75376C10.0962 4.77956 10.078 4.77453 10.0748 4.74244L10.0673 4.66694C10.0649 4.65111 10.0575 4.63645 10.0462 4.62513C10.0349 4.6138 10.0202 4.60641 10.0044 4.60403L9.52434 4.55747C9.49162 4.55433 9.48911 4.53923 9.51742 4.52413L9.66401 4.44486C9.69295 4.42976 9.6898 4.41718 9.65709 4.41718H9.46834C9.42944 4.41623 9.3907 4.41181 9.35258 4.40396L9.13931 4.35363C9.10194 4.34666 9.06341 4.34926 9.02732 4.36118L8.88702 4.41529C8.87098 4.42058 8.85375 4.42107 8.83744 4.41671C8.82112 4.41235 8.80643 4.40333 8.79517 4.39075L8.69577 4.26996C8.68457 4.25727 8.66992 4.24813 8.6536 4.24366C8.63728 4.23919 8.62001 4.23958 8.60391 4.24479L8.34785 4.33916C8.31108 4.35174 8.27314 4.36059 8.23461 4.36559L7.61931 4.4285C7.5815 4.43126 7.54365 4.42365 7.50984 4.40648L7.41736 4.35112C7.38394 4.33249 7.34672 4.32174 7.30852 4.31966L6.54034 4.30267C6.50157 4.30092 6.46324 4.29372 6.42647 4.28128L6.17104 4.18691C6.13442 4.17563 6.09578 4.17241 6.0578 4.17747L4.61078 4.44486C4.6034 4.44594 4.59634 4.44863 4.59012 4.45274C4.58389 4.45685 4.57864 4.46228 4.57474 4.46864C4.57084 4.475 4.56838 4.48214 4.56754 4.48955C4.56671 4.49697 4.56751 4.50448 4.56989 4.51155L4.61267 4.64996C4.61496 4.65722 4.61574 4.66488 4.61496 4.67246C4.61419 4.68005 4.61188 4.68739 4.60817 4.69404C4.60446 4.7007 4.59943 4.70653 4.59339 4.71117C4.58734 4.71581 4.58042 4.71918 4.57303 4.72105L4.3975 4.7676C4.35979 4.77792 4.32157 4.78632 4.283 4.79277L3.72244 4.87896C3.69161 4.88966 3.6935 4.90098 3.72244 4.9035L4.27923 4.95131C4.31131 4.95131 4.3132 4.96515 4.28237 4.97585L4.1232 5.0331C4.08629 5.04499 4.04803 5.05218 4.00933 5.05449L3.56893 5.06959C3.53166 5.0729 3.49651 5.08837 3.4689 5.11363L3.01277 5.56975C2.99013 5.5924 2.99768 5.61191 3.02976 5.61379L3.33615 5.62764C3.36824 5.62764 3.37138 5.64211 3.34244 5.65658L2.45096 6.10515C2.42202 6.11962 2.4239 6.1234 2.45473 6.11396L3.864 5.6679C3.88046 5.66162 3.89524 5.65158 3.90714 5.63858C3.91905 5.62558 3.92776 5.60999 3.93257 5.59303L3.94578 5.5339C3.95042 5.51718 3.95918 5.50191 3.97128 5.48948C3.98338 5.47706 3.99841 5.46788 4.01499 5.4628L4.59442 5.31747C4.62588 5.30992 4.6284 5.31747 4.60009 5.33131L4.20247 5.54522C4.17416 5.56032 4.17731 5.56913 4.20876 5.56472L4.76681 5.48545C4.8055 5.48137 4.84451 5.48137 4.8832 5.48545L5.65389 5.56032C5.69154 5.57063 5.72851 5.58323 5.76462 5.59807L5.8873 5.64966C5.90216 5.65558 5.91421 5.66695 5.92099 5.68144C5.92776 5.69593 5.92877 5.71246 5.92379 5.72767L5.69038 6.44426C5.68064 6.48004 5.68376 6.51811 5.69919 6.55184L5.85647 6.85256C5.86013 6.8587 5.86227 6.86563 5.8627 6.87276C5.86313 6.8799 5.86185 6.88703 5.85895 6.89356C5.85605 6.9001 5.85163 6.90584 5.84605 6.91031C5.84048 6.91478 5.83391 6.91785 5.8269 6.91925L5.57525 6.98594C5.5586 6.99135 5.5435 7.00069 5.53124 7.01318C5.51897 7.02566 5.5099 7.04092 5.50478 7.05766L5.47522 7.17468C5.4635 7.21141 5.4417 7.24411 5.4123 7.26905L4.84608 7.73336C4.81732 7.75891 4.79455 7.79049 4.77939 7.82584L4.55227 8.40968C4.53912 8.44604 4.5319 8.48427 4.53088 8.52292V8.81044C4.53178 8.82774 4.53719 8.84451 4.54657 8.85907C4.55595 8.87364 4.56898 8.8855 4.58436 8.89348L4.7278 8.96017C4.74299 8.96802 4.7557 8.97995 4.76448 8.99462C4.77326 9.00929 4.77777 9.02612 4.7775 9.04322L4.74668 9.54212C4.74497 9.58088 4.749 9.61968 4.75863 9.65726L4.80393 9.81391C4.80655 9.82089 4.80745 9.8284 4.80657 9.8358C4.80568 9.84321 4.80303 9.85029 4.79884 9.85645C4.79465 9.86262 4.78903 9.86769 4.78247 9.87123C4.77592 9.87478 4.7686 9.8767 4.76115 9.87683L4.62777 9.88689C4.59568 9.88689 4.59128 9.90702 4.6177 9.92527L4.84859 10.0888C4.8618 10.0979 4.87105 10.1117 4.87444 10.1274C4.87783 10.143 4.87511 10.1594 4.86684 10.1731L4.81148 10.265C4.8036 10.2796 4.80046 10.2963 4.80248 10.3127C4.80451 10.3292 4.81161 10.3446 4.8228 10.3569L5.01154 10.5456C5.01563 10.5509 5.0211 10.5549 5.02735 10.5572C5.03359 10.5595 5.04036 10.5601 5.04689 10.5588C5.05342 10.5574 5.05946 10.5543 5.06433 10.5498C5.0692 10.5453 5.0727 10.5394 5.07446 10.533L5.1078 10.4493C5.11341 10.4337 5.11393 10.4167 5.1093 10.4008C5.10467 10.3849 5.09511 10.3708 5.08201 10.3606L5.043 10.3323C5.02913 10.3214 5.01812 10.3073 5.01089 10.2912C5.00366 10.2751 5.00043 10.2575 5.00147 10.2398L5.02727 10.0102C5.03002 9.97171 5.02641 9.93302 5.01657 9.8957L4.97694 9.75414C4.96468 9.71706 4.94843 9.68141 4.9285 9.64782L4.89452 9.59371C4.88632 9.57832 4.88202 9.56114 4.88202 9.5437C4.88202 9.52625 4.88632 9.50907 4.89452 9.49368L4.98701 9.34332C4.99687 9.32897 5.01029 9.31743 5.02595 9.30982C5.0416 9.30222 5.05897 9.2988 5.07634 9.29991L5.13296 9.3062C5.14021 9.3068 5.14723 9.30903 5.15351 9.31272C5.15978 9.31641 5.16513 9.32147 5.16918 9.32751C5.17323 9.33355 5.17587 9.34043 5.1769 9.34763C5.17792 9.35483 5.17732 9.36218 5.17512 9.36911L5.09207 9.6604C5.08369 9.69649 5.08837 9.73439 5.10528 9.76735L5.56581 10.5519C5.58304 10.585 5.58816 10.623 5.58028 10.6595L5.49661 10.9677C5.49311 10.9845 5.49425 11.0019 5.4999 11.0181C5.50555 11.0343 5.51551 11.0486 5.52869 11.0596L5.87723 11.3169C5.90303 11.3364 5.94707 11.3654 5.97475 11.3798L6.49001 11.6862C6.50602 11.6945 6.52355 11.6993 6.54151 11.7005C6.55948 11.7017 6.57749 11.6992 6.59445 11.6931L6.8524 11.5843C6.86675 11.5785 6.88282 11.5786 6.89709 11.5846C6.91136 11.5906 6.92266 11.6021 6.92852 11.6164L7.00024 11.7963C7.00799 11.8126 7.01895 11.8272 7.03246 11.8392C7.04597 11.8512 7.06176 11.8604 7.07888 11.8662L7.67782 12.0278C7.69463 12.0336 7.70995 12.043 7.72268 12.0554C7.73541 12.0678 7.74523 12.0829 7.75143 12.0996L7.87097 12.4877C7.88406 12.5239 7.90368 12.5574 7.92885 12.5865L8.13709 12.8092C8.16446 12.8358 8.19763 12.8556 8.23398 12.8671L8.48563 12.9332C8.50332 12.9368 8.52157 12.9368 8.53923 12.933C8.55689 12.9292 8.57357 12.9218 8.58818 12.9111L8.80523 12.735C8.80997 12.7302 8.81593 12.7267 8.82248 12.725C8.82903 12.7234 8.83591 12.7235 8.84239 12.7254C8.84886 12.7274 8.85468 12.7311 8.85922 12.7361C8.86376 12.7411 8.86685 12.7472 8.86815 12.7539L8.91974 12.9187C8.92114 12.9253 8.92423 12.9313 8.9287 12.9363C8.93318 12.9413 8.93888 12.945 8.94524 12.9471C8.9516 12.9492 8.9584 12.9496 8.96497 12.9483C8.97153 12.9469 8.97763 12.9439 8.98265 12.9395L9.05311 12.8872C9.06564 12.8773 9.07423 12.8633 9.07734 12.8476C9.08045 12.8319 9.07789 12.8156 9.0701 12.8017L8.93672 12.5771ZM14.9758 14.9671C14.9871 14.9794 14.9943 14.9947 14.9966 15.0112L15.0274 15.278C15.0291 15.3153 15.0197 15.3523 15.0004 15.3843L14.7777 15.7114C14.7562 15.7439 14.738 15.7785 14.7235 15.8146L14.5732 16.2053C14.5704 16.2125 14.5662 16.2191 14.5609 16.2247C14.5555 16.2303 14.5491 16.2347 14.5421 16.2378C14.535 16.2409 14.5274 16.2426 14.5196 16.2428C14.5119 16.2429 14.5042 16.2415 14.4971 16.2387L14.414 16.2053C14.4076 16.2015 14.4004 16.1994 14.3929 16.1994C14.3855 16.1993 14.3782 16.2013 14.3718 16.205C14.3654 16.2087 14.36 16.2141 14.3564 16.2206C14.3528 16.227 14.3509 16.2344 14.3511 16.2418L14.2662 17.0685C14.261 17.1067 14.2493 17.1437 14.2316 17.178L13.8629 17.8304C13.8428 17.8621 13.8136 17.887 13.7792 17.9021L12.9651 18.2079C12.9495 18.2145 12.9362 18.2255 12.9268 18.2396C12.9175 18.2537 12.9124 18.2702 12.9123 18.2871L12.9274 18.7275C12.9269 18.7655 12.9163 18.8027 12.8965 18.8351L12.1724 19.9122C12.1617 19.9262 12.1479 19.9375 12.132 19.9453C12.1162 19.953 12.0988 19.957 12.0812 19.9569L11.6011 19.926C11.5691 19.9241 11.5596 19.9424 11.581 19.9669L11.8327 20.2626C11.8432 20.2766 11.8503 20.293 11.8532 20.3103C11.8562 20.3275 11.8549 20.3453 11.8496 20.362L11.7572 20.5992C11.7498 20.6151 11.7388 20.6291 11.725 20.6401C11.7112 20.651 11.6951 20.6585 11.6779 20.6621L11.2161 20.7395C11.2004 20.7425 11.1863 20.751 11.1762 20.7634C11.1662 20.7759 11.1609 20.7915 11.1614 20.8074L11.1746 21.0755C11.1757 21.0821 11.1749 21.0889 11.1724 21.0952C11.1699 21.1014 11.1658 21.1069 11.1604 21.111C11.155 21.115 11.1486 21.1176 11.142 21.1183C11.1353 21.119 11.1285 21.1179 11.1224 21.1151L10.7902 20.9993C10.7575 20.9886 10.7449 21.0044 10.7575 21.0339L10.9047 21.3881C10.9179 21.4239 10.9229 21.4622 10.9192 21.5001L10.6298 21.95C10.6224 21.9637 10.6204 21.9796 10.6241 21.9947C10.6278 22.0098 10.637 22.023 10.6499 22.0317L10.9544 22.2205C10.9606 22.2238 10.9659 22.2286 10.9698 22.2344C10.9737 22.2403 10.9761 22.247 10.9767 22.254C10.9773 22.261 10.9762 22.2681 10.9734 22.2745C10.9706 22.281 10.9662 22.2866 10.9607 22.291L10.8349 22.4048C10.822 22.4177 10.8119 22.433 10.8049 22.4499C10.798 22.4667 10.7945 22.4848 10.7946 22.503L10.6417 22.776C10.6353 22.7929 10.6323 22.8109 10.633 22.8289C10.6336 22.847 10.6379 22.8647 10.6455 22.8811L10.7638 23.1051C10.783 23.1383 10.8079 23.1679 10.8374 23.1925L11.3614 23.6021C11.3866 23.6216 11.3809 23.6367 11.3489 23.6367L10.4681 23.6197C10.431 23.6171 10.396 23.6015 10.3693 23.5756L9.81313 22.9685C9.7886 22.9394 9.77115 22.9049 9.76217 22.8679L9.59294 22.0204C9.59025 22.004 9.59274 21.9871 9.60006 21.9721C9.60739 21.9571 9.61919 21.9447 9.63383 21.9367L9.6829 21.9122C9.69796 21.9036 9.71055 21.8913 9.71947 21.8764C9.7284 21.8615 9.73335 21.8446 9.73386 21.8273L9.71751 21.2126C9.71688 21.1805 9.70618 21.1786 9.6936 21.2082L9.56463 21.5228C9.55267 21.5523 9.53883 21.5511 9.5338 21.519L9.39853 20.5942C9.39402 20.5557 9.39614 20.5168 9.40482 20.479L9.58664 19.8033C9.59482 19.7658 9.59482 19.727 9.58664 19.6895L9.50108 19.3604C9.4924 19.3227 9.49028 19.2838 9.49479 19.2453L9.7087 17.7631C9.7131 17.7244 9.7131 17.6853 9.7087 17.6467L9.66403 17.2434C9.65773 17.207 9.63906 17.1739 9.61118 17.1496L8.9531 16.6432C8.92356 16.6189 8.89972 16.5884 8.88327 16.5539L8.3334 15.2956C8.31645 15.2615 8.29165 15.232 8.26105 15.2094L8.18493 15.1584C8.17055 15.1477 8.15855 15.1341 8.14967 15.1185C8.1408 15.1029 8.13523 15.0857 8.13334 15.0678L8.12013 14.8382C8.12002 14.8213 8.12485 14.8047 8.13401 14.7906C8.14317 14.7764 8.15628 14.7652 8.17172 14.7583L8.31264 14.7042C8.3189 14.7023 8.32456 14.6988 8.32908 14.6941C8.33359 14.6894 8.33679 14.6835 8.33838 14.6772C8.33996 14.6709 8.33988 14.6642 8.33812 14.6579C8.33637 14.6516 8.33301 14.6459 8.32837 14.6413L8.23337 14.5362C8.22261 14.5229 8.21564 14.5069 8.2132 14.49C8.21076 14.473 8.21295 14.4558 8.21953 14.44L8.40009 14.0625C8.41777 14.0285 8.4432 13.9992 8.47433 13.9769L8.78072 13.7724C8.81022 13.7501 8.83075 13.718 8.8386 13.6818L8.93612 13.0659C8.94083 13.0417 8.94231 13.0169 8.94052 12.9923C8.93738 12.9835 8.95625 12.9609 8.98204 12.9414L9.05251 12.8891C9.08295 12.865 9.11022 12.8371 9.13367 12.8061L9.41175 12.4204C9.43521 12.3905 9.46567 12.3667 9.50045 12.3512L9.98803 12.1625C10.0182 12.1512 10.0365 12.1669 10.0283 12.1983L9.99936 12.3154C9.9974 12.3228 9.99696 12.3305 9.99807 12.3381C9.99918 12.3456 10.0018 12.3529 10.0058 12.3594C10.0098 12.366 10.0151 12.3716 10.0213 12.376C10.0276 12.3805 10.0347 12.3836 10.0421 12.3852L10.351 12.4557C10.3831 12.4632 10.4347 12.4726 10.4668 12.4783L10.8349 12.5393C10.8713 12.5428 10.9076 12.532 10.9361 12.5091L11.0412 12.4141C11.0539 12.4037 11.0697 12.3977 11.0861 12.3969C11.1025 12.3961 11.1188 12.4006 11.1324 12.4097L11.6804 13.0062C11.7071 13.0346 11.7352 13.0617 11.7647 13.0873L11.8276 13.1452C11.8571 13.1683 11.8934 13.1811 11.9308 13.1817L12.314 13.1666C12.3517 13.1669 12.3887 13.1776 12.4209 13.1974L12.7606 13.6762C12.7801 13.702 12.8116 13.7448 12.8298 13.7712L12.8978 13.8674C12.9069 13.8825 12.9125 13.8995 12.914 13.9171C12.9155 13.9346 12.913 13.9523 12.9066 13.9687L12.8399 14.1128C12.8367 14.119 12.8351 14.1259 12.8351 14.1329C12.8352 14.1399 12.8369 14.1468 12.8402 14.153C12.8434 14.1591 12.8482 14.1644 12.8539 14.1684C12.8597 14.1724 12.8663 14.1749 12.8733 14.1757L13.0658 14.2122C13.0979 14.2179 13.1494 14.2292 13.1809 14.2361L13.3942 14.2864C13.431 14.2969 13.4651 14.3151 13.4942 14.3399L13.6584 14.4915C13.6875 14.5155 13.7225 14.5314 13.7597 14.5375L14.375 14.6004C14.4117 14.6061 14.4453 14.6243 14.47 14.652L14.6273 14.8495C14.6524 14.8776 14.6856 14.8971 14.7223 14.9055L14.9337 14.9426C14.9499 14.9463 14.9646 14.9549 14.9758 14.9671Z" fill="white"/>
</svg>
