<svg width="24" height="24" viewBox="0 0 24 24" fill="none" xmlns="http://www.w3.org/2000/svg">
<path fill-rule="evenodd" clip-rule="evenodd" d="M12 24C18.6274 24 24 18.6274 24 12C24 5.37258 18.6274 0 12 0C5.37258 0 0 5.37258 0 12C0 18.6274 5.37258 24 12 24ZM12.4668 16.5901C12.4397 16.559 12.4517 16.5303 12.4923 16.5303L12.9051 16.512C12.9277 16.5122 12.9498 16.5177 12.9698 16.5279C12.9899 16.5381 13.0073 16.5529 13.0207 16.5709L13.2797 16.9591C13.3082 16.9988 13.3439 17.0328 13.3849 17.0595L14.0623 17.4707C14.0802 17.4826 14.0942 17.4994 14.1027 17.519C14.1111 17.5387 14.1137 17.5604 14.1102 17.5815L14.0934 17.6564C14.0899 17.6779 14.0921 17.6999 14.1 17.7203C14.1078 17.7406 14.121 17.7584 14.1381 17.772L14.6019 18.1003C14.6195 18.1145 14.6338 18.1323 14.644 18.1525C14.6541 18.1727 14.6599 18.1949 14.6609 18.2175L14.6409 18.8008C14.6393 18.8415 14.6107 18.8566 14.5764 18.8343L13.7738 18.3059C13.7353 18.2783 13.7072 18.2384 13.6941 18.1928L13.6543 18.0206C13.642 17.9736 13.6197 17.9299 13.5889 17.8923L12.4668 16.5901ZM15.5136 18.0963C15.4927 18.0871 15.474 18.0736 15.4586 18.0567C15.4433 18.0398 15.4316 18.0199 15.4243 17.9983L15.1964 17.1902C15.1853 17.1511 15.2028 17.1392 15.2355 17.1639L15.4092 17.2938C15.4152 17.3006 15.4231 17.3056 15.4319 17.3079C15.4406 17.3102 15.4499 17.3099 15.4585 17.3069C15.4671 17.3039 15.4746 17.2984 15.48 17.291C15.4854 17.2837 15.4885 17.275 15.4889 17.2659L15.5288 17.0937C15.5413 17.0474 15.5658 17.0051 15.5997 16.971L16.3927 16.2426C16.4088 16.2289 16.4288 16.2205 16.4499 16.2185C16.471 16.2165 16.4922 16.221 16.5106 16.2314L16.8485 16.445C16.8566 16.4498 16.8636 16.4564 16.869 16.4642C16.8743 16.472 16.8779 16.4808 16.8795 16.4902C16.8811 16.4995 16.8806 16.509 16.8782 16.5182C16.8757 16.5273 16.8713 16.5358 16.8653 16.543L16.615 16.8618C16.6027 16.8785 16.596 16.8988 16.596 16.9196C16.596 16.9404 16.6027 16.9607 16.615 16.9774L16.8852 17.3025C16.8913 17.3084 16.8957 17.3159 16.8979 17.3241C16.9001 17.3322 16.9001 17.3409 16.8978 17.349C16.8955 17.3572 16.8911 17.3646 16.8849 17.3705C16.8788 17.3763 16.8711 17.3804 16.8629 17.3822L16.7832 17.4085C16.7623 17.4159 16.7438 17.4289 16.7297 17.446C16.7157 17.4632 16.7066 17.4838 16.7035 17.5058L16.6421 18.2605C16.6392 18.282 16.6302 18.3022 16.616 18.3186C16.6019 18.335 16.5832 18.3469 16.5624 18.3529L16.4142 18.3896C16.367 18.3993 16.3181 18.3966 16.2723 18.3816L15.5136 18.0963ZM14.8294 19.0532C14.8437 19.0691 14.8624 19.0804 14.8832 19.0854L16.9051 19.4918C16.9534 19.5002 17.0027 19.5002 17.051 19.4918L18.5652 19.1802C18.6066 19.1731 18.6058 19.1731 18.5652 19.1731L17.3227 19.3038C17.2734 19.3085 17.2238 19.3085 17.1745 19.3038L16.1026 19.1755C16.0619 19.1707 16.0563 19.1468 16.0898 19.1237L16.2118 19.0384C16.2452 19.0145 16.2404 18.9882 16.2006 18.9794L15.6866 18.8654C15.6673 18.8621 15.6475 18.8659 15.6309 18.8762C15.6143 18.8865 15.6021 18.9025 15.5965 18.9212L15.5837 18.9722C15.5816 18.9814 15.5776 18.99 15.5719 18.9975C15.5661 19.0049 15.5588 19.0111 15.5505 19.0155C15.5422 19.0198 15.533 19.0224 15.5236 19.0229C15.5142 19.0234 15.5048 19.0219 15.4961 19.0185L14.8545 18.7794C14.8471 18.7754 14.8388 18.7736 14.8304 18.7742C14.822 18.7748 14.814 18.7778 14.8073 18.7828C14.8006 18.7878 14.7955 18.7947 14.7925 18.8026C14.7896 18.8104 14.789 18.819 14.7908 18.8272L14.8035 18.9961C14.8062 19.0173 14.8152 19.0373 14.8294 19.0532ZM18.0503 19.7811C18.0314 19.7738 18.0159 19.7594 18.0072 19.7411C17.9984 19.7227 17.9971 19.7017 18.0033 19.6823L18.0567 19.507C18.0646 19.4861 18.0773 19.4675 18.0937 19.4525C18.1102 19.4375 18.1301 19.4267 18.1516 19.4209L18.8106 19.2806C18.8513 19.2727 18.8545 19.2806 18.8186 19.3006L18.3636 19.5468C18.3235 19.5715 18.2936 19.6097 18.2791 19.6544L18.2448 19.7795C18.2424 19.7886 18.2382 19.797 18.2323 19.8043C18.2264 19.8116 18.219 19.8175 18.2106 19.8216C18.2022 19.8258 18.193 19.8281 18.1836 19.8284C18.1743 19.8287 18.165 19.827 18.1563 19.8234L18.0503 19.7811ZM17.2381 18.6114C17.2557 18.6253 17.2766 18.6346 17.2988 18.6384L17.8814 18.6957C17.891 18.6967 17.9008 18.6958 17.9101 18.6929C17.9194 18.6901 17.928 18.6854 17.9354 18.6791C17.9428 18.6729 17.9489 18.6652 17.9533 18.6566C17.9578 18.6479 17.9604 18.6385 17.9611 18.6288L18.0225 17.8749C18.0232 17.8651 18.022 17.8553 18.019 17.8461C18.016 17.8368 18.0111 17.8282 18.0048 17.8208C17.9984 17.8134 17.9906 17.8073 17.9819 17.8029C17.9732 17.7985 17.9637 17.7959 17.9539 17.7952L17.4686 17.7577C17.4468 17.755 17.4262 17.746 17.4094 17.7319C17.3925 17.7177 17.3802 17.699 17.3737 17.678L17.3658 17.6501C17.3628 17.6416 17.3619 17.6325 17.3633 17.6235C17.3646 17.6146 17.3681 17.6061 17.3734 17.5989C17.3787 17.5916 17.3858 17.5857 17.3939 17.5817C17.402 17.5777 17.4109 17.5758 17.4199 17.576L18.1006 17.5561C18.1221 17.5544 18.1427 17.5468 18.16 17.5339C18.1773 17.5211 18.1907 17.5036 18.1986 17.4836L18.2974 17.1855C18.3102 17.1464 18.2974 17.1385 18.2687 17.168L18.0806 17.3553C18.0636 17.3705 18.0437 17.3822 18.022 17.3897C18.0004 17.3973 17.9776 17.4004 17.9547 17.3991L17.2972 17.3194C17.277 17.3172 17.2567 17.3224 17.2401 17.3339C17.2234 17.3455 17.2114 17.3627 17.2064 17.3823L17.047 18.0669C17.038 18.1143 17.0416 18.1632 17.0573 18.2088L17.1976 18.5587C17.2065 18.5794 17.2204 18.5975 17.2381 18.6114ZM17.2693 11.4832C17.2693 11.5238 17.2494 11.5342 17.2199 11.5063L16.8892 11.1939C16.8745 11.1793 16.8651 11.1602 16.8627 11.1396C16.8602 11.1191 16.8648 11.0983 16.8756 11.0807L17.086 10.7619C17.0997 10.7442 17.1172 10.7298 17.1372 10.7197C17.1572 10.7096 17.1792 10.7042 17.2016 10.7037L17.6383 10.7213C17.6601 10.7214 17.6816 10.7155 17.7003 10.7043C17.719 10.693 17.7342 10.6768 17.7443 10.6575L17.9037 10.3284C17.912 10.3074 17.9156 10.2848 17.9145 10.2623C17.9134 10.2398 17.9076 10.2177 17.8973 10.1976L17.4988 9.52979C17.6455 9.40786 17.3028 9.00061 17.3028 9.00061C17.2765 8.96953 17.2869 8.95518 17.3251 8.96873L18.1603 9.26122C18.1692 9.2638 18.1774 9.26839 18.1842 9.27464C18.1911 9.28088 18.1964 9.28861 18.1998 9.29723C18.2032 9.30585 18.2045 9.31513 18.2038 9.32436C18.203 9.33359 18.2001 9.34253 18.1954 9.35048L18.1157 9.48835C18.1041 9.50853 18.0884 9.52605 18.0696 9.53977C18.0507 9.5535 18.0293 9.56313 18.0065 9.56805L17.8368 9.59435C17.7961 9.60072 17.7913 9.62463 17.8248 9.64695L18.1436 9.85735C18.1821 9.88545 18.2115 9.92425 18.2281 9.96892L18.4751 10.73C18.4809 10.7497 18.4798 10.7708 18.472 10.7898C18.4642 10.8088 18.4501 10.8245 18.4321 10.8344L17.9794 11.0608C17.9349 11.0813 17.8877 11.0952 17.8392 11.1022L17.3283 11.1588C17.309 11.1613 17.2913 11.1708 17.2785 11.1855C17.2658 11.2002 17.2588 11.219 17.259 11.2385L17.2693 11.4832ZM17.0804 8.72005C17.1117 8.75448 17.1552 8.77536 17.2016 8.77823H17.4144C17.455 8.77823 17.463 8.75592 17.4319 8.72962L17.0334 8.38772C16.9986 8.35431 16.9715 8.31381 16.9537 8.26897L16.882 8.06734C16.8635 8.0239 16.831 7.98795 16.7895 7.96533L16.0723 7.61546C16.0356 7.59713 16.03 7.6051 16.0603 7.63299L16.5608 8.09364C16.5966 8.12782 16.6304 8.164 16.662 8.20203L17.0804 8.72005ZM16.1958 12.642C16.1719 12.6085 16.1472 12.6149 16.1408 12.6556L16.089 13.0206C16.0851 13.0669 16.0994 13.1129 16.1289 13.1489L16.2962 13.3322C16.3011 13.3391 16.3078 13.3446 16.3156 13.3479C16.3234 13.3512 16.332 13.3522 16.3404 13.3507C16.3487 13.3493 16.3565 13.3455 16.3628 13.3399C16.3691 13.3342 16.3737 13.3268 16.3759 13.3186L16.4636 13.1138C16.4714 13.0928 16.4742 13.0702 16.4717 13.0479C16.4692 13.0257 16.4615 13.0043 16.4492 12.9855L16.1958 12.642ZM16.5121 13.8995C16.4964 13.9114 16.4856 13.9287 16.4819 13.9482L16.4269 14.2614C16.4218 14.3091 16.4289 14.3574 16.4477 14.4016L16.7728 15.0727C16.7748 15.0813 16.7794 15.0891 16.786 15.095C16.7927 15.1008 16.801 15.1044 16.8098 15.1053C16.8186 15.1062 16.8275 15.1043 16.8351 15.0999C16.8428 15.0954 16.8489 15.0887 16.8525 15.0806L17.0055 14.8814C17.017 14.8654 17.0221 14.8457 17.0199 14.8261C17.0177 14.8065 17.0083 14.7885 16.9936 14.7754L16.8406 14.6503C16.8249 14.6371 16.8146 14.6187 16.8114 14.5986C16.8081 14.5784 16.8123 14.5577 16.823 14.5403L16.9139 14.3976C16.9367 14.3561 16.9462 14.3085 16.941 14.2614L16.8932 13.9936C16.8879 13.9733 16.8769 13.955 16.8615 13.9409C16.8461 13.9268 16.8269 13.9174 16.8063 13.9139L16.5672 13.8836C16.5475 13.8819 16.5279 13.8875 16.5121 13.8995ZM17.4104 16.1534C17.3753 16.1749 17.3466 16.1582 17.3466 16.1175V15.9733C17.3478 15.9517 17.355 15.9308 17.3674 15.9131C17.3798 15.8953 17.3969 15.8814 17.4168 15.8728L17.985 15.6577C17.993 15.6536 18.0018 15.6517 18.0108 15.6522C18.0197 15.6526 18.0283 15.6554 18.0358 15.6602C18.0433 15.6651 18.0494 15.6718 18.0535 15.6798C18.0576 15.6877 18.0595 15.6966 18.0591 15.7055L18.0982 16.3128C18.0993 16.3218 18.0983 16.3309 18.0951 16.3394C18.092 16.3479 18.0868 16.3555 18.0801 16.3615C18.0733 16.3675 18.0652 16.3718 18.0564 16.374C18.0476 16.3763 18.0384 16.3763 18.0296 16.3741L17.7618 16.3271C17.7418 16.3233 17.7239 16.3122 17.7114 16.2961C17.6989 16.28 17.6928 16.2598 17.6941 16.2394L17.7077 16.0466C17.7077 16.0059 17.6845 15.99 17.6495 16.0107L17.4104 16.1534ZM17.0111 15.3134C17.0111 15.3134 17.3227 15.6083 17.396 15.6322L17.8232 15.307C17.8308 15.3025 17.8371 15.2961 17.8415 15.2884C17.8458 15.2807 17.8481 15.272 17.8481 15.2632C17.8481 15.2544 17.8458 15.2457 17.8415 15.238C17.8371 15.2303 17.8308 15.2239 17.8232 15.2194L17.3586 14.891C17.3422 14.8794 17.3219 14.8744 17.302 14.877C17.282 14.8797 17.2638 14.8898 17.251 14.9054L17.0039 15.205C16.9912 15.2206 16.9849 15.2405 16.9862 15.2606C16.9875 15.2807 16.9964 15.2996 17.0111 15.3134ZM18.4695 5.99603C18.4289 5.99603 18.4217 5.9761 18.4552 5.9514L18.7007 5.77128C18.7404 5.7456 18.7873 5.73331 18.8346 5.73622L19.1015 5.7673C19.1506 5.77379 19.1991 5.78391 19.2466 5.79759L19.8363 5.97451C19.8754 5.98567 19.8937 5.96495 19.8762 5.92829L19.7965 5.74578C19.786 5.72549 19.7711 5.7078 19.7529 5.69401C19.7347 5.68022 19.7137 5.67068 19.6913 5.66609L18.8385 5.56248C18.7916 5.55447 18.7479 5.53318 18.7126 5.50111L18.6226 5.41106C18.5873 5.37864 18.5432 5.35754 18.4959 5.35049L16.3504 5.12256C16.3098 5.11777 16.3018 5.13611 16.3329 5.1632L16.4126 5.23572C16.4437 5.26282 16.4413 5.2963 16.4078 5.30984C16.3873 5.31575 16.3657 5.31723 16.3446 5.31421C16.3234 5.31119 16.3031 5.30373 16.2851 5.29231L16.1161 5.17994C16.0748 5.15535 16.0279 5.14164 15.9798 5.14009L15.1032 5.16161C15.0536 5.16186 15.0041 5.15894 14.9549 5.15284L13.322 4.92889C13.3017 4.92573 13.2831 4.91553 13.2696 4.90009C13.256 4.88465 13.2483 4.86495 13.2478 4.84442V4.79819C13.2478 4.78853 13.2459 4.77897 13.2422 4.77006C13.2384 4.76116 13.2329 4.75309 13.226 4.74634C13.2191 4.73958 13.2109 4.73427 13.202 4.73072C13.193 4.72717 13.1834 4.72546 13.1737 4.72567L12.1759 4.74719C12.1558 4.7486 12.1369 4.75762 12.1231 4.77241C12.1094 4.78721 12.1018 4.80668 12.1018 4.82688V4.89781C12.1018 4.90727 12.0999 4.91663 12.0961 4.9253C12.0923 4.93396 12.0868 4.94173 12.0798 4.94812C12.0728 4.9545 12.0645 4.95935 12.0556 4.96235C12.0466 4.96535 12.0371 4.96644 12.0277 4.96555L11.371 4.90578C11.3623 4.90414 11.3534 4.90477 11.3451 4.90761C11.3367 4.91045 11.3293 4.9154 11.3234 4.92198C11.3175 4.92856 11.3135 4.93655 11.3116 4.94516C11.3098 4.95378 11.3102 4.96273 11.3128 4.97113L11.3295 5.04605C11.3383 5.0859 11.3144 5.10582 11.277 5.08988L11.1176 5.02453C11.0722 5.005 11.0294 4.98012 10.99 4.95041L10.6713 4.70016C10.6319 4.67242 10.5866 4.6544 10.539 4.64757L9.90617 4.58859C9.89771 4.5867 9.8889 4.58719 9.88069 4.59C9.87249 4.59281 9.86523 4.59783 9.8597 4.60451C9.85418 4.61119 9.85061 4.61927 9.84939 4.62785C9.84817 4.63643 9.84934 4.64519 9.85278 4.65314L9.86075 4.68104C9.86391 4.68923 9.86486 4.6981 9.86352 4.70678C9.86218 4.71545 9.85859 4.72362 9.85311 4.73048C9.84763 4.73733 9.84044 4.74263 9.83228 4.74584C9.82411 4.74905 9.81524 4.75007 9.80655 4.74878L9.48777 4.73205H9.33953L8.02454 4.75436C7.9839 4.75436 7.97752 4.73603 8.0102 4.71212L8.40151 4.43318C8.43498 4.40927 8.43099 4.37739 8.39354 4.36145L7.99506 4.20206C7.94926 4.18509 7.90117 4.17515 7.8524 4.17257L7.00044 4.15186C6.9529 4.15261 6.90673 4.1679 6.86815 4.19569L6.6434 4.37182C6.62498 4.38477 6.60383 4.3933 6.58157 4.39676C6.55932 4.40021 6.53657 4.39849 6.51509 4.39174L6.33737 4.3224C6.29142 4.30735 6.24274 4.30246 6.19472 4.30806L5.58982 4.39493C5.58074 4.39534 5.57194 4.39816 5.56432 4.40311C5.55671 4.40806 5.55055 4.41495 5.54649 4.42307C5.54242 4.4312 5.54061 4.44026 5.54122 4.44932C5.54183 4.45839 5.54485 4.46712 5.54997 4.47462L5.58105 4.53679C5.58578 4.54382 5.58842 4.55204 5.58864 4.56051C5.58887 4.56898 5.58668 4.57734 5.58234 4.58461C5.57799 4.59188 5.57167 4.59777 5.5641 4.60158C5.55653 4.60538 5.54804 4.60696 5.53961 4.60612L4.93232 4.62525C4.89088 4.62525 4.88849 4.64199 4.92515 4.65872L5.32363 4.84123C5.36109 4.85796 5.3579 4.86593 5.31805 4.85876L4.63506 4.73842C4.589 4.73316 4.5427 4.74602 4.50595 4.77428L4.42227 4.8476C4.41534 4.85409 4.40982 4.86193 4.40605 4.87063C4.40227 4.87934 4.40033 4.88872 4.40033 4.89821C4.40033 4.9077 4.40227 4.91708 4.40605 4.92579C4.40982 4.93449 4.41534 4.94233 4.42227 4.94882L4.58564 5.10821C4.62114 5.14038 4.66463 5.1624 4.71156 5.17197L5.19931 5.24688C5.23915 5.25326 5.23915 5.26123 5.19931 5.26521L4.83509 5.30028C4.8257 5.3007 4.81653 5.30328 4.80829 5.3078C4.80006 5.31233 4.79297 5.31869 4.78758 5.32639C4.78219 5.33409 4.77864 5.34293 4.7772 5.35222C4.77577 5.36151 4.77649 5.37101 4.77931 5.37997L4.79206 5.43098C4.79441 5.44036 4.79484 5.45011 4.79332 5.45966C4.79181 5.4692 4.78838 5.47835 4.78324 5.48653C4.77811 5.49472 4.77137 5.50179 4.76343 5.50731C4.7555 5.51283 4.74653 5.51668 4.73707 5.51865L4.32105 5.6095C4.2812 5.61747 4.27403 5.60312 4.30511 5.57682L4.50913 5.40468C4.52477 5.39174 4.53488 5.37332 4.5374 5.35317C4.53992 5.33303 4.53465 5.31269 4.52268 5.29629L4.19433 4.83167C4.16487 4.79427 4.12491 4.76651 4.07957 4.75197L3.85722 4.69299C3.83733 4.68813 3.81637 4.69032 3.79791 4.69918C3.77945 4.70805 3.76464 4.72304 3.75601 4.74161L3.66834 4.94643C3.66075 4.96578 3.65984 4.98711 3.66576 5.00704C3.67168 5.02696 3.68409 5.04434 3.70101 5.05641L4.01582 5.26681C4.05009 5.28912 4.04451 5.30267 4.00466 5.29709L3.74166 5.25724C3.73215 5.25553 3.72237 5.25587 3.713 5.25825C3.70363 5.26062 3.69487 5.26497 3.68732 5.27101C3.67977 5.27705 3.67361 5.28464 3.66923 5.29326C3.66486 5.30188 3.66238 5.31134 3.66196 5.321L3.64124 5.67246C3.64056 5.72108 3.65063 5.76925 3.67073 5.81352L3.76876 6.00958C3.77318 6.01822 3.7758 6.02767 3.77647 6.03736C3.77713 6.04704 3.77582 6.05677 3.77262 6.06593C3.76941 6.0751 3.76438 6.08351 3.75783 6.09068C3.75127 6.09784 3.74333 6.1036 3.73449 6.1076L3.63168 6.15462C3.61297 6.1643 3.59772 6.17953 3.58802 6.19823C3.57831 6.21692 3.57464 6.23816 3.57749 6.25903L3.65718 6.71648C3.66729 6.76624 3.66343 6.81782 3.64602 6.86552L3.61654 6.93166C3.59839 6.9764 3.58997 7.02449 3.59183 7.07273L3.61574 7.34529C3.61633 7.36763 3.61166 7.38981 3.60211 7.41002C3.59256 7.43023 3.57839 7.44792 3.56075 7.46165L3.39099 7.5788C3.37413 7.59018 3.36226 7.60759 3.35781 7.62744C3.35337 7.6473 3.35669 7.6681 3.36709 7.68559L3.74963 8.34309C3.77035 8.37895 3.75361 8.40684 3.71217 8.40684L2.58048 8.39011C2.55797 8.38849 2.53609 8.38194 2.5164 8.37092C2.4967 8.35991 2.47967 8.34469 2.46652 8.32635L2.36291 8.15978C2.35843 8.15181 2.35212 8.14501 2.34451 8.13993C2.3369 8.13485 2.3282 8.13163 2.31912 8.13055C2.31004 8.12946 2.30082 8.13053 2.29223 8.13367C2.28364 8.13682 2.27591 8.14194 2.26967 8.14863L1.82815 8.5758C1.81993 8.58004 1.81334 8.58685 1.80937 8.5952C1.8054 8.60355 1.80428 8.61297 1.80618 8.62202C1.80807 8.63107 1.81289 8.63924 1.81988 8.64529C1.82687 8.65134 1.83566 8.65492 1.84488 8.6555L2.32306 8.82525C2.36857 8.84312 2.41063 8.86873 2.44739 8.90096L2.52709 8.97428C2.54393 8.98847 2.56412 8.99812 2.58574 9.0023C2.60736 9.00649 2.6297 9.00507 2.65062 8.99819L2.73031 8.96791C2.75018 8.95828 2.76764 8.94434 2.78143 8.92711C2.79521 8.90987 2.80498 8.88978 2.81001 8.86829L2.81798 8.83163C2.82255 8.81135 2.8337 8.79315 2.84971 8.77989C2.86571 8.76662 2.88567 8.75903 2.90644 8.75831H3.30492C3.31448 8.75816 3.32396 8.76002 3.33276 8.76376C3.34155 8.7675 3.34947 8.77304 3.356 8.78001C3.36253 8.78699 3.36753 8.79526 3.37067 8.80429C3.37382 8.81331 3.37504 8.8229 3.37426 8.83242L3.36629 8.95834C3.3636 8.98034 3.35539 9.00129 3.34243 9.01927C3.32948 9.03724 3.31219 9.05165 3.29217 9.06115L3.11923 9.13288C3.08098 9.14802 3.07699 9.18069 3.10967 9.2054L3.42845 9.44449C3.46452 9.47481 3.48878 9.51684 3.49699 9.56324L3.53285 9.8366C3.53682 9.85822 3.54622 9.87849 3.56016 9.89549C3.5741 9.9125 3.59212 9.92569 3.61255 9.93383L3.74564 9.97846C3.76702 9.9868 3.78649 9.99936 3.80292 10.0154C3.81935 10.0314 3.83239 10.0505 3.84128 10.0717L3.97437 10.4439C3.97816 10.4523 3.97982 10.4616 3.9792 10.4708C3.97859 10.48 3.97571 10.489 3.97083 10.4969C3.96596 10.5047 3.95922 10.5113 3.95123 10.5159C3.94323 10.5206 3.93421 10.5232 3.92496 10.5236L3.56075 10.5626C3.51306 10.5652 3.46559 10.5544 3.42367 10.5315L3.0746 10.3164C3.03953 10.2949 3.03077 10.2582 3.05388 10.2367C3.05941 10.23 3.06345 10.2223 3.06574 10.214C3.06803 10.2056 3.06851 10.1969 3.06715 10.1884C3.06579 10.1799 3.06262 10.1717 3.05786 10.1645C3.0531 10.1573 3.04685 10.1512 3.03954 10.1466L2.92876 10.043C2.91286 10.0301 2.89303 10.0231 2.87257 10.0231C2.85212 10.0231 2.83228 10.0301 2.81638 10.043L2.72473 10.1227C2.70814 10.1363 2.68799 10.1449 2.66666 10.1475C2.64533 10.15 2.62372 10.1464 2.60439 10.1371L2.33263 9.98882C2.29676 9.96889 2.28082 9.98404 2.29756 10.0207L2.45695 10.3793C2.46127 10.3868 2.46349 10.3953 2.46339 10.4039C2.46329 10.4125 2.46087 10.4209 2.45638 10.4282C2.45189 10.4356 2.4455 10.4416 2.43789 10.4456C2.43028 10.4496 2.42172 10.4515 2.41312 10.4511L1.20173 10.522C1.17996 10.5243 1.1594 10.5331 1.14276 10.5474C1.12611 10.5616 1.11416 10.5805 1.10849 10.6017L0.877372 11.5062C0.867012 11.5461 0.843899 11.5764 0.824772 11.5748C0.805645 11.5732 0.804848 11.6011 0.824772 11.6385L0.936347 11.9023C0.953083 11.939 0.969023 11.9541 0.972211 11.9342C0.975399 11.9143 0.985758 11.9342 0.995321 11.9709L1.03517 12.1438C1.04763 12.1907 1.06901 12.2348 1.09813 12.2737L1.81301 13.1615C1.84119 13.2001 1.85752 13.2461 1.86003 13.2938V13.4134C1.86122 13.4358 1.86751 13.4576 1.87842 13.4772C1.88933 13.4968 1.90457 13.5137 1.92299 13.5265L2.11346 13.6437C2.15418 13.6706 2.19025 13.704 2.22025 13.7425L2.5231 14.1593C2.55097 14.1996 2.57247 14.244 2.58686 14.2908L2.76697 14.9523C2.7694 14.9616 2.77373 14.9702 2.77968 14.9777C2.78562 14.9853 2.79306 14.9915 2.80152 14.996C2.80999 15.0004 2.81929 15.0031 2.82884 15.0039C2.83839 15.0046 2.84799 15.0033 2.85703 15.0001L4.2286 14.5355C4.24933 14.5278 4.26764 14.5148 4.28165 14.4977C4.29565 14.4806 4.30486 14.4601 4.3083 14.4383L4.31786 14.3418C4.32081 14.3209 4.32998 14.3014 4.3442 14.2857C4.35841 14.2701 4.37701 14.2591 4.39756 14.2542L4.76337 14.184C4.80948 14.1734 4.85039 14.1469 4.87893 14.1091L5.45274 13.2803C5.45831 13.2726 5.46217 13.2638 5.46407 13.2544C5.46597 13.2451 5.46586 13.2355 5.46375 13.2262C5.46164 13.2169 5.45757 13.2082 5.45183 13.2006C5.44608 13.1931 5.43879 13.1868 5.43043 13.1823L4.99847 12.9384C4.95865 12.913 4.92794 12.8756 4.9108 12.8316L4.81118 12.5335C4.79843 12.4945 4.76656 12.4889 4.74026 12.52L4.46929 12.8451C4.45386 12.8616 4.43503 12.8745 4.4141 12.8829C4.39317 12.8913 4.37066 12.895 4.34815 12.8938L4.08117 12.8619C4.06061 12.8589 4.04147 12.8496 4.02636 12.8353C4.01125 12.8211 4.00089 12.8025 3.99669 12.7822L3.96879 12.5877C3.96321 12.5471 3.9401 12.5423 3.91859 12.5766L3.82773 12.72C3.82382 12.7272 3.81806 12.7331 3.81104 12.7373C3.80403 12.7414 3.79603 12.7436 3.78788 12.7436C3.77973 12.7436 3.77173 12.7414 3.76472 12.7373C3.75771 12.7331 3.75195 12.7272 3.74803 12.72L3.19175 11.8864C3.18631 11.8788 3.1826 11.8701 3.18089 11.8609C3.17919 11.8517 3.17952 11.8422 3.18188 11.8332C3.18424 11.8241 3.18856 11.8157 3.19454 11.8085C3.20051 11.8013 3.20799 11.7955 3.21646 11.7915L3.37585 11.7119C3.39512 11.7031 3.4166 11.7005 3.4374 11.7044C3.4582 11.7082 3.47733 11.7183 3.49221 11.7334L3.83172 12.1111C3.86555 12.1458 3.90627 12.1729 3.95126 12.1908L4.44299 12.3646C4.48844 12.3784 4.537 12.3784 4.58246 12.3646L4.8335 12.2705C4.84242 12.267 4.85196 12.2654 4.86153 12.2658C4.8711 12.2662 4.88049 12.2686 4.8891 12.2728C4.89771 12.277 4.90536 12.2829 4.91157 12.2902C4.91777 12.2975 4.92239 12.306 4.92515 12.3152L4.97934 12.4905C4.98619 12.5114 4.99879 12.53 5.0157 12.5441C5.03262 12.5582 5.05316 12.5672 5.07498 12.5702L6.56132 12.681C6.60904 12.6869 6.65482 12.7035 6.69521 12.7296L7.18454 13.0818C7.19218 13.0867 7.19852 13.0934 7.20305 13.1013C7.20757 13.1091 7.21013 13.118 7.21052 13.127C7.21091 13.1361 7.20912 13.1451 7.20529 13.1533C7.20146 13.1616 7.19571 13.1687 7.18853 13.1743L7.13115 13.2237C7.12437 13.2284 7.119 13.2349 7.11562 13.2424C7.11224 13.2499 7.11097 13.2582 7.11195 13.2664C7.11294 13.2746 7.11613 13.2824 7.1212 13.2889C7.12627 13.2954 7.13301 13.3004 7.14071 13.3034L7.34951 13.4078C7.39365 13.428 7.44129 13.4393 7.48978 13.4413H7.61012C7.62978 13.4413 7.64863 13.4335 7.66253 13.4196C7.67643 13.4057 7.68424 13.3868 7.68424 13.3671V13.2962C7.68424 13.2548 7.69301 13.254 7.70416 13.2962L7.81016 13.6652C7.82439 13.7124 7.84334 13.7581 7.86674 13.8015L8.42462 14.7945C8.4476 14.8377 8.46373 14.8842 8.47244 14.9324L8.49953 15.1268C8.5085 15.1746 8.52692 15.2202 8.55373 15.2607L9.02792 15.9206C9.03199 15.9283 9.03808 15.9347 9.04552 15.9392C9.05296 15.9437 9.06148 15.946 9.07016 15.946C9.07884 15.946 9.08737 15.9437 9.09481 15.9392C9.10225 15.9347 9.10833 15.9283 9.1124 15.9206L9.42003 15.4592C9.44431 15.4184 9.45467 15.3709 9.44951 15.3237L9.32758 14.5929C9.3249 14.5717 9.32864 14.5502 9.3383 14.5312C9.34796 14.5121 9.3631 14.4964 9.38177 14.4861L9.63919 14.357C9.68149 14.3335 9.71798 14.3008 9.74598 14.2613L10.1046 13.7035C10.1176 13.6857 10.1348 13.6715 10.1548 13.6621C10.1747 13.6528 10.1966 13.6487 10.2186 13.6501L10.2664 13.6564C10.2757 13.6577 10.2851 13.657 10.294 13.6542C10.3029 13.6515 10.3112 13.6469 10.3181 13.6407C10.3251 13.6345 10.3306 13.6268 10.3344 13.6183C10.3381 13.6097 10.3399 13.6004 10.3397 13.5911V13.4468C10.3404 13.4261 10.3478 13.4061 10.3609 13.39C10.374 13.3738 10.3921 13.3625 10.4122 13.3576L10.8522 13.2659C10.9002 13.255 10.9465 13.2379 10.99 13.2149L11.0697 13.1352C11.0905 13.1337 11.1112 13.139 11.1286 13.1504C11.146 13.1618 11.1592 13.1786 11.1662 13.1982L11.2682 13.517C11.2762 13.5372 11.2891 13.5551 11.3058 13.569C11.3225 13.583 11.3425 13.5925 11.3638 13.5967L11.5583 13.6238C11.5794 13.628 11.5989 13.6381 11.6145 13.6529C11.6302 13.6677 11.6413 13.6866 11.6467 13.7075L11.6659 13.8055C11.6775 13.8523 11.7004 13.8956 11.7328 13.9314L11.7743 13.972C11.8065 14.0079 11.8288 14.0516 11.8388 14.0988L11.8882 14.4175C11.8897 14.427 11.8932 14.436 11.8983 14.4441C11.9034 14.4522 11.9102 14.4591 11.9181 14.4645C11.926 14.4699 11.9349 14.4736 11.9443 14.4754C11.9537 14.4771 11.9634 14.477 11.9727 14.4749L12.0468 14.4582C12.0931 14.4447 12.1339 14.4168 12.1632 14.3785L12.2708 14.2303C12.2759 14.2228 12.2826 14.2166 12.2906 14.2121C12.2985 14.2077 12.3073 14.2052 12.3164 14.2049C12.3254 14.2045 12.3345 14.2062 12.3427 14.2099C12.351 14.2136 12.3583 14.2192 12.364 14.2263L12.4365 14.31C12.4666 14.3474 12.4869 14.3918 12.4955 14.4391L12.5242 14.6582C12.5332 14.705 12.5559 14.748 12.5895 14.7818L12.7489 14.9252C12.7824 14.9588 12.8037 15.0025 12.8095 15.0495L12.8717 15.8768C12.8778 15.9235 12.9004 15.9665 12.9354 15.9979L13.2104 16.2211C13.2472 16.2537 13.2794 16.2912 13.306 16.3326L13.62 16.8626C13.646 16.9045 13.6776 16.9426 13.7141 16.9758L14.1628 17.3663C14.1938 17.3926 14.205 17.3846 14.1875 17.348L14.0281 17.0188C14.0083 16.9737 13.9952 16.9259 13.989 16.877L13.9547 16.5375C13.9513 16.5153 13.9429 16.4942 13.93 16.4759C13.9172 16.4575 13.9003 16.4423 13.8806 16.4315L13.4025 16.2027C13.3612 16.1799 13.3292 16.1436 13.3116 16.0999L13.2128 15.8019C13.2047 15.7813 13.1914 15.7631 13.1742 15.7491C13.1571 15.7352 13.1366 15.7259 13.1147 15.7222L13.043 15.7142C13.0233 15.7122 13.005 15.703 12.9918 15.6882C12.9785 15.6735 12.9712 15.6543 12.9713 15.6345L12.992 14.9539C12.9934 14.9337 13.0024 14.9149 13.0172 14.9011C13.032 14.8874 13.0515 14.8797 13.0717 14.8798H13.1418C13.1616 14.8798 13.1805 14.8876 13.1945 14.9014C13.2086 14.9153 13.2166 14.9342 13.2168 14.9539V14.9762C13.2178 14.9975 13.2251 15.018 13.2377 15.0351C13.2503 15.0523 13.2677 15.0653 13.2877 15.0726L13.5355 15.1523C13.5796 15.1686 13.6159 15.2008 13.6376 15.2424L13.6981 15.3755C13.7198 15.417 13.7558 15.4492 13.7993 15.4664L14.0241 15.5413C14.0441 15.549 14.0615 15.5623 14.0741 15.5797C14.0867 15.5971 14.094 15.6178 14.095 15.6393V15.8561C14.095 15.8975 14.1157 15.9047 14.142 15.8736L14.2672 15.7198C14.2998 15.6833 14.3383 15.6526 14.3811 15.6289L14.4839 15.5333C14.5059 15.5342 14.5278 15.5295 14.5476 15.5198C14.5674 15.51 14.5844 15.4955 14.5971 15.4775L14.7143 15.287C14.7252 15.2668 14.7319 15.2446 14.734 15.2217C14.736 15.1988 14.7334 15.1758 14.7262 15.1539L14.4871 14.5363C14.4696 14.492 14.4423 14.4523 14.4074 14.4199L13.7898 13.9051C13.7745 13.8915 13.7644 13.873 13.7612 13.8528C13.758 13.8326 13.7619 13.812 13.7722 13.7943L14.0113 13.4086C14.0236 13.3906 14.0406 13.3763 14.0604 13.3673C14.0802 13.3583 14.1021 13.355 14.1237 13.3576L14.2703 13.3815C14.3166 13.3918 14.3588 13.4157 14.3915 13.45L14.4417 13.5082C14.468 13.5393 14.4943 13.5313 14.5007 13.4907V13.4676C14.5048 13.4461 14.5142 13.426 14.5281 13.4091C14.5421 13.3923 14.56 13.3792 14.5804 13.3711L15.1215 13.1974C15.1688 13.183 15.2174 13.1728 15.2666 13.1671L15.3622 13.1575C15.4083 13.1503 15.4497 13.1255 15.4777 13.0882L15.7854 12.6268C15.8106 12.5851 15.8271 12.5387 15.834 12.4905L15.893 11.8824C15.8938 11.8728 15.8928 11.8631 15.8899 11.8538C15.887 11.8446 15.8823 11.836 15.8761 11.8286C15.8699 11.8212 15.8622 11.8151 15.8536 11.8107C15.845 11.8062 15.8357 11.8035 15.826 11.8027L15.7057 11.7915C15.665 11.7915 15.6523 11.7581 15.677 11.7262L15.7567 11.6242C15.7627 11.6166 15.767 11.6079 15.7695 11.5985C15.772 11.5892 15.7725 11.5795 15.7711 11.5699C15.7697 11.5604 15.7663 11.5512 15.7612 11.543C15.7562 11.5348 15.7495 11.5277 15.7415 11.5222L15.5216 11.3628C15.4824 11.3331 15.4482 11.2973 15.4204 11.2568L15.2817 11.0408C15.2539 11.0019 15.2158 10.9716 15.1717 10.9531L15.0426 10.9061C15.0237 10.8985 15.008 10.8846 14.9983 10.8667C14.9885 10.8488 14.9853 10.8281 14.9892 10.8081L15.0052 10.734C15.0173 10.6898 15.0458 10.652 15.0848 10.628L15.2937 10.5236C15.3303 10.5052 15.3271 10.4829 15.2873 10.4734L15.1151 10.4335C15.0679 10.4255 15.0195 10.4304 14.9749 10.4479L14.8155 10.4758C14.8116 10.4829 14.8058 10.4889 14.7988 10.493C14.7918 10.4972 14.7838 10.4994 14.7756 10.4994C14.7675 10.4994 14.7595 10.4972 14.7525 10.493C14.7455 10.4889 14.7397 10.4829 14.7358 10.4758L14.6505 10.3538C14.6208 10.3166 14.5809 10.2889 14.5357 10.2741L14.3134 10.2152C14.2743 10.2048 14.2727 10.1841 14.3134 10.1697L14.4919 10.1004C14.5125 10.0912 14.5309 10.0776 14.5456 10.0605C14.5604 10.0434 14.5711 10.0233 14.5772 10.0016L14.6186 9.80552C14.6207 9.79614 14.6246 9.78728 14.6302 9.77946C14.6357 9.77165 14.6428 9.76505 14.651 9.76005C14.6592 9.75506 14.6683 9.75178 14.6778 9.75042C14.6873 9.74906 14.697 9.74963 14.7063 9.75212L14.8314 9.78639C14.8516 9.79277 14.8693 9.80523 14.8822 9.82206C14.895 9.83889 14.9023 9.85928 14.9031 9.88043V10.1458C14.9031 10.1873 14.9262 10.1968 14.9557 10.1681L15.0944 10.0295C15.1109 10.0142 15.1308 10.0033 15.1525 9.99742C15.1741 9.99159 15.1969 9.9911 15.2187 9.99599L15.4411 10.055C15.4611 10.0613 15.4788 10.0736 15.4916 10.0903C15.5044 10.107 15.5118 10.1272 15.5128 10.1482V10.2678C15.5134 10.2886 15.5209 10.3086 15.5342 10.3246C15.5475 10.3407 15.5658 10.3518 15.5861 10.3562L15.83 10.4016C15.8758 10.4131 15.9164 10.4395 15.9456 10.4766L16.2508 10.9157C16.2631 10.9323 16.2807 10.9442 16.3007 10.9496C16.3206 10.9549 16.3418 10.9534 16.3608 10.9452L16.5919 10.8376C16.6003 10.8341 16.6077 10.8286 16.6137 10.8217C16.6196 10.8148 16.6238 10.8066 16.626 10.7978C16.6281 10.7889 16.6282 10.7797 16.6262 10.7709C16.6241 10.762 16.62 10.7537 16.6142 10.7467L16.3425 10.3722C16.3121 10.334 16.2751 10.3016 16.2333 10.2765L15.8754 10.0797C15.8672 10.0759 15.86 10.0701 15.8545 10.0629C15.849 10.0556 15.8454 10.0472 15.8439 10.0382C15.8424 10.0293 15.8431 10.0201 15.846 10.0115C15.8488 10.0029 15.8537 9.9951 15.8603 9.98882L16.0037 9.82942C16.0178 9.81264 16.027 9.79234 16.0304 9.77072C16.0337 9.74909 16.0311 9.72695 16.0229 9.70669L15.9432 9.52419C15.9388 9.51672 15.9364 9.50821 15.9364 9.49953C15.9364 9.49086 15.9387 9.48234 15.9431 9.47486C15.9475 9.46738 15.9538 9.46121 15.9614 9.45699C15.969 9.45277 15.9775 9.45066 15.9862 9.45087L16.3974 9.4158C16.4176 9.41303 16.4363 9.40375 16.4507 9.38936C16.4651 9.37497 16.4744 9.35627 16.4771 9.3361L16.5568 8.43474C16.5588 8.38809 16.5428 8.34245 16.5122 8.30722L15.9081 7.6824C15.8732 7.64873 15.8324 7.62173 15.7878 7.60271L15.5104 7.48794C15.5023 7.48382 15.4932 7.4818 15.484 7.48207C15.4749 7.48233 15.466 7.48488 15.4581 7.48947C15.4501 7.49406 15.4435 7.50055 15.4387 7.50836C15.434 7.51616 15.4312 7.52503 15.4307 7.53417L15.4251 7.58119C15.4246 7.59036 15.4219 7.59927 15.4172 7.60717C15.4124 7.61506 15.4059 7.62171 15.3981 7.62655C15.3903 7.63139 15.3814 7.63429 15.3723 7.63499C15.3631 7.6357 15.3539 7.63419 15.3455 7.6306L14.8521 7.46005C14.8435 7.45769 14.8355 7.45324 14.829 7.4471C14.8224 7.44096 14.8175 7.43331 14.8146 7.42483C14.8117 7.41634 14.8109 7.40726 14.8123 7.3984C14.8137 7.38954 14.8173 7.38115 14.8226 7.37398L14.8872 7.27834C14.9124 7.23645 14.9304 7.19067 14.9406 7.14286L15.0131 6.70373C15.0172 6.68392 15.0282 6.66619 15.0441 6.65366C15.06 6.64112 15.0798 6.63458 15.1 6.63519L16.1958 6.69975C16.2171 6.70211 16.2372 6.71049 16.2539 6.7239C16.2705 6.73731 16.283 6.7552 16.2899 6.77546L16.2978 6.80335C16.3005 6.81269 16.305 6.82139 16.311 6.82894C16.3171 6.83648 16.3247 6.84272 16.3333 6.84726C16.3418 6.85181 16.3512 6.85457 16.3609 6.85538C16.3705 6.85619 16.3803 6.85502 16.3895 6.85197L16.7083 6.75075C16.7465 6.738 16.7465 6.71888 16.7083 6.70692L16.607 6.67664C16.5861 6.66988 16.5674 6.6573 16.5533 6.64037C16.5392 6.62344 16.5302 6.60285 16.5273 6.581L16.513 6.38734C16.512 6.37829 16.5131 6.36913 16.5162 6.36059C16.5194 6.35205 16.5245 6.34436 16.5312 6.33816C16.5378 6.33196 16.5459 6.32741 16.5546 6.32488C16.5634 6.32235 16.5726 6.3219 16.5815 6.32358L16.7999 6.35227C16.8473 6.36104 16.8917 6.3816 16.929 6.41204L17.0884 6.55629C17.1043 6.56965 17.124 6.5775 17.1447 6.57865C17.1654 6.5798 17.1859 6.57419 17.2032 6.56267L17.4486 6.38176C17.4821 6.35785 17.5068 6.3714 17.5036 6.41204L17.4901 6.60491C17.4848 6.65347 17.4701 6.70054 17.447 6.74358L17.3514 6.90776C17.3414 6.92609 17.3377 6.94724 17.341 6.96788C17.3444 6.98852 17.3545 7.00746 17.3697 7.02172L18.5755 8.09364C18.5807 8.10106 18.588 8.10671 18.5965 8.10981C18.605 8.11291 18.6142 8.11331 18.623 8.11095C18.6317 8.1086 18.6395 8.1036 18.6453 8.09665C18.651 8.0897 18.6545 8.08113 18.6552 8.07212L18.6863 7.97011C18.6971 7.92317 18.6971 7.87439 18.6863 7.82745L18.5269 7.2632C18.5116 7.21736 18.484 7.17658 18.4472 7.14525L17.8312 6.65273C17.7993 6.62722 17.8065 6.60332 17.8471 6.60013L17.9922 6.58817C18.0049 6.58817 18.0201 6.58771 18.0363 6.58721C18.0721 6.58612 18.1125 6.58488 18.1404 6.58817L18.6258 6.6065C18.6469 6.60659 18.6675 6.60001 18.6847 6.58771C18.7018 6.5754 18.7147 6.558 18.7214 6.53797L18.7517 6.43675C18.7595 6.41556 18.772 6.39636 18.7881 6.38052C18.8042 6.36468 18.8236 6.35259 18.8449 6.3451L19.3119 6.21519C19.351 6.20404 19.3518 6.18411 19.3119 6.17056L18.8919 6.02392C18.8449 6.0092 18.7961 6.00116 18.7469 6.00001L18.4695 5.99603ZM20.5725 17.8264C20.5934 17.8213 20.6154 17.8224 20.6357 17.8294L21.1466 18.0286C21.1671 18.0375 21.185 18.0513 21.1989 18.0689C21.2128 18.0864 21.2222 18.107 21.2262 18.129L21.3665 19.3348C21.3713 19.3723 21.3458 19.3922 21.3099 19.3723L21.0916 19.2496C21.0711 19.2399 21.0488 19.2349 21.0262 19.2349C21.0036 19.2349 20.9813 19.2399 20.9609 19.2496L20.8015 19.3293C20.7648 19.3476 20.7457 19.3308 20.7584 19.2918L20.858 18.9937C20.8639 18.972 20.8648 18.9492 20.8608 18.927C20.8568 18.9048 20.848 18.8838 20.8349 18.8654L20.6357 18.6152C20.6037 18.5796 20.5622 18.5539 20.5162 18.5411L19.7829 18.3817C19.7369 18.3681 19.6964 18.3402 19.6674 18.302L19.339 17.8381C19.3151 17.8047 19.3295 17.7712 19.3701 17.7712L19.8076 17.7345C19.8298 17.734 19.8517 17.7389 19.8716 17.7488C19.8914 17.7587 19.9086 17.7732 19.9216 17.7911L20.1607 18.1545C20.165 18.1623 20.1712 18.1689 20.1787 18.1737C20.1862 18.1784 20.1947 18.1813 20.2036 18.1819C20.2125 18.1825 20.2214 18.181 20.2295 18.1773C20.2375 18.1736 20.2446 18.168 20.25 18.1609L20.5177 17.8581C20.5326 17.8425 20.5516 17.8315 20.5725 17.8264Z" fill="white"/>
</svg>
