<svg width="24" height="24" viewBox="0 0 24 24" fill="none" xmlns="http://www.w3.org/2000/svg">
<path fill-rule="evenodd" clip-rule="evenodd" d="M12 24C18.6274 24 24 18.6274 24 12C24 5.37258 18.6274 0 12 0C5.37258 0 0 5.37258 0 12C0 18.6274 5.37258 24 12 24ZM4.24663 12.2066C4.17468 12.2239 4.13007 12.1807 4.1459 12.1073L4.25814 11.5821C4.28242 11.4984 4.33285 11.4248 4.40205 11.3719L4.80066 11.0841C4.87189 11.0385 4.95741 11.0206 5.04098 11.0338L5.39498 11.11C5.41213 11.1136 5.42841 11.1206 5.44285 11.1305C5.4573 11.1404 5.46964 11.1531 5.47914 11.1678C5.48865 11.1826 5.49513 11.199 5.49822 11.2163C5.50131 11.2335 5.50095 11.2512 5.49715 11.2683L5.37915 11.7993C5.36827 11.8378 5.34797 11.873 5.32007 11.9016C5.29218 11.9303 5.25758 11.9515 5.21941 11.9634L4.24663 12.2066ZM5.50866 10.8078C5.47654 10.7872 5.45139 10.7573 5.4365 10.7222C5.42161 10.687 5.41768 10.6481 5.4252 10.6107L5.44822 10.52C5.46354 10.4366 5.44875 10.3504 5.40649 10.2768L5.29136 10.1042C5.24963 10.0423 5.27266 10.0135 5.34317 10.038L5.57485 10.1229C5.61417 10.1347 5.65558 10.1381 5.69628 10.1326C5.73699 10.1271 5.77605 10.113 5.81085 10.0912L6.20802 9.80341C6.22031 9.7932 6.23497 9.78626 6.25064 9.78323C6.26632 9.78019 6.28251 9.78116 6.29771 9.78603C6.31292 9.79091 6.32665 9.79954 6.33763 9.81113C6.34862 9.82272 6.35651 9.83689 6.36056 9.85233L6.49583 10.2596C6.51783 10.3413 6.51124 10.4282 6.47713 10.5057L6.37783 10.7071C6.36209 10.7419 6.35737 10.7807 6.36431 10.8183C6.37126 10.8558 6.38953 10.8903 6.41668 10.9172L7.36357 11.7921C7.37643 11.8035 7.38673 11.8174 7.39379 11.8331C7.40084 11.8487 7.40449 11.8657 7.40449 11.8828C7.40449 11.9 7.40084 11.9169 7.39379 11.9325C7.38673 11.9482 7.37643 11.9621 7.36357 11.9735L7.07576 12.2339C7.00877 12.2899 6.9301 12.3302 6.84552 12.3519L5.39066 12.6498C5.3187 12.6642 5.28992 12.6239 5.32734 12.5606L5.50866 12.2685C5.54607 12.2051 5.59932 12.0972 5.62954 12.0296L5.78783 11.6598C5.82515 11.5826 5.88685 11.5199 5.96339 11.4813L6.11449 11.4137C6.13033 11.4107 6.14484 11.4028 6.15592 11.3911C6.167 11.3794 6.17409 11.3645 6.17617 11.3485C6.17824 11.3325 6.1752 11.3163 6.16748 11.3022C6.15976 11.288 6.14776 11.2767 6.1332 11.2698L5.81085 11.0007C5.74193 10.9443 5.6688 10.8934 5.59212 10.8481L5.50866 10.8078ZM1.64428 8.11309C1.65494 8.10071 1.66848 8.09115 1.68371 8.08525C1.68371 8.08525 2.31113 7.79026 2.44064 8.05504L3.71562 7.9356C3.80261 7.93105 3.88932 7.94889 3.96745 7.9874L4.12862 8.07806C4.19625 8.11404 4.19482 8.17016 4.12862 8.20326L3.22347 8.65511C3.14387 8.69105 3.05754 8.70969 2.9702 8.70979L2.13701 8.6767C2.05299 8.66848 1.97479 8.63014 1.91683 8.56877L1.64774 8.24643C1.63646 8.23461 1.62826 8.2202 1.62389 8.20447C1.61951 8.18873 1.61908 8.17217 1.62264 8.15623C1.6262 8.14029 1.63363 8.12547 1.64428 8.11309ZM9.03428 15.9266C9.03271 15.9429 9.03505 15.9594 9.04112 15.9747C9.04719 15.99 9.05681 16.0036 9.06919 16.0144C9.08156 16.0253 9.09633 16.033 9.11228 16.037C9.12823 16.041 9.1449 16.0411 9.16091 16.0374L9.29187 16.0158C9.32974 16.0079 9.36449 15.9891 9.39184 15.9618C9.41919 15.9344 9.43796 15.8997 9.44584 15.8618L9.50196 15.5323C9.51283 15.4449 9.50548 15.3562 9.48038 15.2718L9.33647 14.8329C9.31201 14.7624 9.27316 14.7624 9.24726 14.8329L9.10335 15.2085C9.0749 15.2928 9.05701 15.3803 9.05011 15.469L9.03428 15.9266ZM10.3711 16.482C10.3049 16.4489 10.3093 16.4129 10.3826 16.4L10.882 16.3136C10.8987 16.3114 10.9157 16.3125 10.932 16.3169C10.9483 16.3212 10.9636 16.3288 10.977 16.3391C10.9904 16.3494 11.0016 16.3622 11.01 16.3769C11.0183 16.3915 11.0238 16.4077 11.0259 16.4244L11.059 16.6863C11.0691 16.7612 11.0216 16.7943 10.9554 16.7612L10.3711 16.482ZM12.9168 16.5237C12.8664 16.469 12.8866 16.4302 12.96 16.4388L13.5528 16.5065C13.5682 16.5065 13.5833 16.5107 13.5964 16.5187C13.6095 16.5268 13.6202 16.5383 13.6272 16.552C13.6342 16.5656 13.6372 16.581 13.6361 16.5963C13.6349 16.6117 13.6295 16.6264 13.6205 16.6388L13.4535 16.9339C13.4471 16.9483 13.437 16.9608 13.4242 16.9701C13.4115 16.9794 13.3965 16.9852 13.3808 16.987C13.3651 16.9887 13.3492 16.9863 13.3347 16.98C13.3202 16.9738 13.3076 16.9638 13.2981 16.9511L12.9168 16.5237ZM19.6831 15.761C19.6198 15.725 19.5896 15.7524 19.6198 15.8186L19.9177 16.4647C19.9255 16.4781 19.9295 16.4935 19.9293 16.509C19.9291 16.5245 19.9247 16.5397 19.9166 16.553C19.9085 16.5663 19.897 16.5771 19.8832 16.5844C19.8695 16.5916 19.854 16.595 19.8385 16.5942L17.6512 16.7223C17.5622 16.7291 17.4741 16.744 17.3878 16.7669L16.5446 17.0029C16.462 17.0204 16.3758 17.0082 16.3014 16.9684L15.9574 16.7568C15.9243 16.7382 15.8862 16.7305 15.8484 16.7349C15.8107 16.7393 15.7753 16.7555 15.7474 16.7813L15.6293 16.8993C15.6021 16.9248 15.5671 16.9406 15.5299 16.9443C15.4927 16.9479 15.4553 16.9392 15.4236 16.9194L14.6767 16.41C14.6075 16.3581 14.555 16.287 14.5256 16.2057L14.3414 15.6301C14.3351 15.6161 14.3328 15.6006 14.3348 15.5855C14.3368 15.5703 14.3431 15.5559 14.3528 15.5441C14.3625 15.5323 14.3754 15.5234 14.3899 15.5185C14.4044 15.5136 14.42 15.5129 14.435 15.5164L15.0106 15.5768C15.0944 15.5803 15.1763 15.5515 15.2394 15.4962L15.2696 15.466C15.3004 15.4379 15.3365 15.4162 15.3758 15.4022C15.4151 15.3881 15.4567 15.3819 15.4984 15.384L15.6711 15.4013C15.7116 15.403 15.752 15.3955 15.7891 15.3793C15.8263 15.3631 15.8592 15.3386 15.8855 15.3077L15.9877 15.1638C16.0144 15.1321 16.0474 15.1062 16.0845 15.0876C16.1216 15.069 16.1621 15.0583 16.2035 15.0559H16.6352C16.7227 15.06 16.8084 15.0821 16.8871 15.1206L17.136 15.2559C17.2145 15.2956 17.3001 15.3196 17.3878 15.3264L18.221 15.3595C18.3098 15.3609 18.3983 15.3508 18.4844 15.3293L18.7103 15.2674C18.7456 15.2566 18.776 15.234 18.7965 15.2033C18.817 15.1726 18.8262 15.1358 18.8226 15.0991L18.8125 15.0142C18.8048 14.9742 18.7878 14.9367 18.7628 14.9047C18.7377 14.8727 18.7055 14.847 18.6686 14.83L18.4786 14.7537C18.4096 14.7264 18.3002 14.676 18.234 14.6414L17.4598 14.2371C17.427 14.2206 17.4017 14.1922 17.3891 14.1577C17.3765 14.1232 17.3776 14.0852 17.3922 14.0515L17.5979 13.5507C17.6253 13.483 17.5893 13.4413 17.5188 13.4586L16.6784 13.66C16.6065 13.6773 16.5906 13.7334 16.6424 13.7867L16.8928 14.0371C16.9446 14.0889 16.9288 14.1421 16.8554 14.1551L16.3719 14.24C16.3309 14.2451 16.2893 14.2417 16.2497 14.2301C16.2101 14.2185 16.1733 14.1988 16.1416 14.1723L15.5876 13.6514C15.5759 13.6394 15.5616 13.6302 15.5458 13.6245C15.53 13.6188 15.5131 13.6167 15.4964 13.6183C15.4797 13.62 15.4636 13.6254 15.4492 13.6341C15.4349 13.6428 15.4227 13.6546 15.4135 13.6687L14.8623 14.4616C14.8132 14.5358 14.7718 14.6149 14.7386 14.6976L14.7012 14.7983C14.6891 14.8356 14.6876 14.8754 14.6967 14.9135C14.7059 14.9516 14.7253 14.9864 14.753 15.0142L14.9947 15.2315C15.0494 15.2804 15.0336 15.3264 14.9602 15.3264L14.0392 15.3595C13.9526 15.3671 13.8693 15.3968 13.7975 15.4459L13.6536 15.548C13.6209 15.5702 13.5829 15.5833 13.5434 15.5861C13.504 15.5889 13.4646 15.5812 13.4291 15.5639L13.2679 15.4746C13.2003 15.4387 13.1729 15.4646 13.2003 15.5336L13.2765 15.725C13.3107 15.8049 13.3595 15.8776 13.4204 15.9395L13.7083 16.1999C13.7629 16.2488 13.7485 16.2805 13.6752 16.2676L12.8837 16.1352C12.7981 16.1177 12.7181 16.0797 12.6506 16.0244L12.4549 15.8502C12.3948 15.79 12.3563 15.7116 12.3455 15.6272L12.3196 15.2343C12.3146 15.1941 12.3003 15.1556 12.2778 15.1219C12.2553 15.0881 12.2253 15.0601 12.1901 15.0401L11.1971 14.5436C11.1204 14.5018 11.054 14.4432 11.0029 14.3724L10.8 14.0673C10.7763 14.0356 10.7447 14.0106 10.7083 13.9949C10.6719 13.9793 10.6321 13.9735 10.5927 13.9781L10.3294 14.0212C10.3142 14.0212 10.2994 14.0257 10.2868 14.0342C10.2742 14.0427 10.2644 14.0547 10.2587 14.0688C10.253 14.0828 10.2516 14.0983 10.2547 14.1131C10.2578 14.128 10.2653 14.1416 10.2762 14.1522L10.7338 14.7724C10.7882 14.8413 10.8551 14.8994 10.9309 14.9436L11.8073 15.6358L11.6217 15.4919C11.5641 15.4459 11.5267 15.4689 11.5382 15.5408L11.5828 15.8056C11.5921 15.8903 11.5734 15.9757 11.5296 16.0488L11.3267 16.3539C11.2849 16.4158 11.2518 16.4057 11.2518 16.3323V15.9395C11.2469 15.856 11.2091 15.7779 11.1468 15.7222L9.51636 14.4357C9.48257 14.4128 9.44432 14.3974 9.40413 14.3905C9.36394 14.3835 9.32273 14.3852 9.28324 14.3954L8.61265 14.6184C8.52829 14.645 8.44061 14.6595 8.35219 14.6616H7.78377C7.74728 14.6615 7.71213 14.6753 7.68541 14.7001C7.6587 14.725 7.64242 14.759 7.63986 14.7954L7.61972 15.0127C7.61406 15.052 7.59761 15.0889 7.57221 15.1194C7.5468 15.1499 7.51343 15.1728 7.47582 15.1854L7.02684 15.3293C6.94621 15.3587 6.87678 15.4125 6.82825 15.4833L6.13176 16.6201C6.0835 16.6895 6.0129 16.7403 5.93174 16.764L4.91578 17.0101C4.83085 17.0259 4.74313 17.0159 4.66395 16.9813L4.11137 16.705C4.07693 16.6853 4.04813 16.6571 4.02772 16.6231C4.00731 16.5891 3.99598 16.5504 3.99481 16.5107L4.03366 14.7091C4.03403 14.6916 4.03787 14.6743 4.04496 14.6583C4.05205 14.6423 4.06225 14.6278 4.07497 14.6158C4.08769 14.6037 4.10266 14.5943 4.11904 14.5881C4.13542 14.5819 4.15286 14.579 4.17037 14.5796L6.10442 14.6573C6.14314 14.657 6.18097 14.6456 6.21338 14.6245C6.24579 14.6033 6.27141 14.5732 6.28718 14.5378L6.49728 13.9953C6.51 13.9569 6.5135 13.9161 6.5075 13.8761C6.5015 13.8361 6.48617 13.7981 6.46274 13.7651L6.27854 13.5348C6.22097 13.4667 6.15579 13.4054 6.08427 13.3521L5.6871 13.0643C5.62666 13.0211 5.63818 12.9938 5.71157 12.9938L6.32459 13.024C6.34074 13.0256 6.35705 13.0234 6.37214 13.0174C6.38722 13.0114 6.40064 13.0019 6.41124 12.9896C6.42183 12.9773 6.4293 12.9626 6.43301 12.9468C6.43672 12.931 6.43655 12.9145 6.43252 12.8988L6.39655 12.7218C6.39249 12.7057 6.39226 12.6889 6.39586 12.6727C6.39946 12.6565 6.40679 12.6414 6.41727 12.6285C6.42775 12.6156 6.4411 12.6054 6.45624 12.5986C6.47138 12.5918 6.4879 12.5887 6.50447 12.5894H6.80811C6.88294 12.5894 7.00238 12.5966 7.07577 12.6052L7.20528 12.6196C7.22158 12.622 7.2382 12.6205 7.25385 12.6154C7.26949 12.6103 7.28373 12.6016 7.29545 12.59C7.30716 12.5784 7.31603 12.5643 7.32136 12.5487C7.32669 12.5331 7.32833 12.5165 7.32616 12.5002L7.30889 12.3275C7.30644 12.2927 7.31749 12.2584 7.33974 12.2316C7.36199 12.2048 7.39372 12.1876 7.42833 12.1836L7.95501 12.1246C7.99463 12.1157 8.0318 12.0982 8.06388 12.0733C8.09597 12.0485 8.12218 12.0168 8.14065 11.9807L8.33779 11.6137C8.35793 11.5788 8.38602 11.5492 8.41978 11.5272C8.45353 11.5052 8.492 11.4914 8.53206 11.4871L9.36526 11.454C9.38074 11.4551 9.39623 11.452 9.41005 11.4449C9.42387 11.4379 9.4355 11.4272 9.44366 11.414C9.45182 11.4008 9.4562 11.3856 9.45633 11.37C9.45646 11.3545 9.45234 11.3393 9.44441 11.3259L9.20121 10.7791C9.19398 10.7633 9.19007 10.7462 9.18973 10.7288C9.18939 10.7115 9.19263 10.6942 9.19925 10.6781C9.20586 10.6621 9.21571 10.6476 9.22818 10.6355C9.24064 10.6234 9.25547 10.614 9.27172 10.6079L9.59407 10.4841C9.60966 10.4776 9.62649 10.4746 9.64337 10.4753C9.66024 10.4761 9.67675 10.4805 9.69172 10.4883C9.70669 10.4962 9.71976 10.5072 9.72999 10.5206C9.74022 10.5341 9.74737 10.5496 9.75092 10.5661L9.90777 11.231C9.91172 11.2477 9.9191 11.2635 9.92943 11.2773C9.93977 11.2911 9.95285 11.3026 9.96784 11.3112C9.98284 11.3197 9.99944 11.325 10.0166 11.3268C10.0337 11.3286 10.0511 11.3268 10.0675 11.3216L10.3841 11.2238C10.4195 11.2143 10.4571 11.2176 10.4902 11.2331C10.5234 11.2487 10.55 11.2754 10.5654 11.3087L10.5913 11.3691C10.6057 11.4023 10.632 11.4289 10.6651 11.4436C10.6981 11.4582 10.7355 11.4599 10.7698 11.4482L11.6188 11.1417C11.6575 11.1305 11.6984 11.1284 11.7381 11.1356C11.7778 11.1429 11.8153 11.1593 11.8476 11.1835L11.9512 11.2741C11.9618 11.2851 11.9753 11.2931 11.99 11.2971C12.0048 11.3011 12.0204 11.301 12.0352 11.2969C12.0499 11.2928 12.0633 11.2847 12.0738 11.2736C12.0844 11.2625 12.0917 11.2488 12.0951 11.2338L12.1411 11.0899C12.154 11.0558 12.1786 11.0272 12.2104 11.0093C12.2422 10.9914 12.2794 10.9853 12.3153 10.9921L12.4491 11.0223C12.4633 11.028 12.4789 11.0294 12.494 11.0263C12.509 11.0232 12.5228 11.0157 12.5335 11.0048C12.5443 10.9939 12.5516 10.98 12.5545 10.9649C12.5574 10.9499 12.5558 10.9343 12.5498 10.9201L12.4347 10.4337C12.4189 10.3618 12.4606 10.3229 12.5311 10.3488L13.1154 10.5647C13.1844 10.5906 13.2161 10.556 13.1844 10.4899L12.9456 9.98331C12.9374 9.97056 12.9332 9.95575 12.9332 9.94064C12.9332 9.92553 12.9376 9.91074 12.9458 9.89802C12.9539 9.88531 12.9656 9.8752 12.9793 9.86889C12.993 9.86259 13.0083 9.86035 13.0233 9.86244H13.7673C13.8567 9.86036 13.9458 9.85024 14.0335 9.83222L14.3443 9.76027C14.4162 9.743 14.4321 9.68688 14.3803 9.63507L14.2177 9.47246C14.1865 9.44514 14.1503 9.42432 14.111 9.41123C14.0717 9.39813 14.0302 9.39302 13.9889 9.39619L12.7139 9.57895C12.6752 9.58255 12.6363 9.57514 12.6017 9.55757C12.5671 9.54 12.5381 9.51298 12.5182 9.47965L12.2908 9.05514C12.2745 9.02179 12.2699 8.98393 12.2778 8.94765C12.2856 8.91138 12.3054 8.87879 12.334 8.85511L13.2665 8.1356C13.3255 8.08955 13.3125 8.05358 13.2391 8.05358H12.3628C12.3457 8.05324 12.3287 8.05659 12.313 8.06338C12.2973 8.07017 12.2833 8.08025 12.2718 8.09294C12.2603 8.10562 12.2517 8.12062 12.2466 8.13692C12.2414 8.15322 12.2398 8.17044 12.2419 8.18741L12.2591 8.36009C12.2613 8.39818 12.2517 8.43603 12.2317 8.46847C12.2116 8.50092 12.182 8.52639 12.1469 8.54141L11.4734 8.799C11.4361 8.81586 11.4028 8.8405 11.3757 8.87127C11.3487 8.90204 11.3285 8.93824 11.3166 8.97743L11.2461 9.28826C11.2396 9.32303 11.2461 9.35898 11.2644 9.38923C11.2827 9.41949 11.3115 9.44195 11.3454 9.45231L11.921 9.60485C11.9872 9.62356 11.9886 9.66241 11.921 9.68975L11.4202 9.89553C11.3844 9.91312 11.3534 9.93925 11.3301 9.97163C11.3067 10.004 11.2917 10.0416 11.2864 10.0812L11.2619 10.3862C11.2566 10.4262 11.2419 10.4643 11.2192 10.4975C11.1964 10.5307 11.1662 10.5582 11.1309 10.5776L10.5366 10.8582C10.5029 10.8732 10.4651 10.8759 10.4297 10.8659C10.3942 10.8559 10.3633 10.8339 10.3424 10.8036L9.73941 9.88402C9.71825 9.85353 9.6873 9.8312 9.6517 9.82073C9.6161 9.81026 9.57799 9.81228 9.5437 9.82646L8.90765 10.1143C8.89196 10.1215 8.87495 10.1254 8.85769 10.1257C8.84042 10.126 8.82327 10.1228 8.80733 10.1161C8.79138 10.1095 8.77697 10.0997 8.76501 10.0872C8.75306 10.0748 8.74381 10.06 8.73784 10.0438L8.43565 9.2379C8.42522 9.20422 8.42752 9.16788 8.44211 9.13578C8.4567 9.10369 8.48256 9.07806 8.5148 9.06378L9.76099 8.58746C9.83941 8.55296 9.90489 8.49452 9.94807 8.42053L10.4863 7.38155C10.5063 7.34491 10.534 7.31306 10.5676 7.28821C10.6011 7.26336 10.6397 7.24611 10.6805 7.23765L13.9385 6.79011C14.0263 6.78052 14.115 6.78391 14.2018 6.80018L16.6309 7.31967C16.6681 7.32944 16.7015 7.34994 16.7271 7.3786C16.7527 7.40726 16.7693 7.44282 16.7748 7.48084L16.7892 7.61036C16.7919 7.6271 16.7907 7.64423 16.7858 7.66046C16.7809 7.67668 16.7724 7.69158 16.7609 7.70405C16.7494 7.71651 16.7352 7.72621 16.7194 7.73241C16.7037 7.73862 16.6867 7.74116 16.6698 7.73987L15.0005 7.70245C14.9271 7.70101 14.9026 7.7485 14.9458 7.80894L15.3603 8.38455C15.4138 8.45037 15.4895 8.49438 15.5732 8.50831L16.1488 8.56731C16.2222 8.57594 16.2337 8.54572 16.1747 8.50112L15.861 8.26655C15.802 8.2205 15.8121 8.20036 15.8826 8.2205L16.9446 8.50831C17.0166 8.52845 17.0281 8.50543 16.972 8.45794L16.6496 8.18884C16.5921 8.14136 16.6036 8.08524 16.6741 8.06509L17.2986 7.87801C17.3144 7.87394 17.329 7.86621 17.3412 7.85544C17.3535 7.84466 17.363 7.83116 17.369 7.81601C17.375 7.80087 17.3774 7.78452 17.3759 7.76829C17.3745 7.75206 17.3692 7.7364 17.3605 7.7226L17.1418 7.33838C17.1044 7.27506 17.1245 7.25636 17.1864 7.29665L17.4915 7.49955C17.5533 7.54416 17.6555 7.60748 17.7203 7.64345L18.103 7.86363C18.1154 7.87279 18.13 7.87831 18.1453 7.87956C18.1606 7.88081 18.176 7.87773 18.1896 7.87068C18.2033 7.86364 18.2147 7.8529 18.2225 7.83969C18.2304 7.82649 18.2343 7.81135 18.234 7.79599L18.2484 7.66648C18.2551 7.62691 18.2719 7.58973 18.2971 7.55848C18.3222 7.52724 18.355 7.50298 18.3923 7.48804L19.2399 7.18296C19.2559 7.17675 19.273 7.17405 19.2902 7.17506C19.3073 7.17608 19.324 7.18077 19.3392 7.18883C19.3543 7.19689 19.3676 7.20812 19.378 7.22176C19.3884 7.2354 19.3958 7.25112 19.3996 7.26787L19.4226 7.35853C19.4263 7.37522 19.4335 7.39094 19.4438 7.40461C19.454 7.41828 19.4671 7.42959 19.4821 7.43777C19.4971 7.44596 19.5137 7.45083 19.5307 7.45205C19.5478 7.45327 19.5649 7.45083 19.5809 7.44487L19.945 7.31392C20.0292 7.28713 20.1172 7.27449 20.2055 7.2765L20.7293 7.30528C20.8041 7.3096 20.8113 7.28369 20.7465 7.24772L20.276 6.98294C20.2112 6.94696 20.2184 6.92538 20.2918 6.93689L21.833 7.16138L22.0359 7.1916C22.0748 7.1916 22.0978 7.26067 22.0978 7.3355L22.0604 7.97011C22.0591 8.0579 22.0773 8.14488 22.1136 8.22482L22.2906 8.57882C22.2986 8.59443 22.3033 8.61149 22.3045 8.62898C22.3057 8.64647 22.3034 8.66403 22.2976 8.68058C22.2918 8.69713 22.2827 8.71233 22.2709 8.72526C22.259 8.7382 22.2447 8.74859 22.2287 8.75582L22.0431 8.84072C22.0093 8.8582 21.9818 8.8857 21.9643 8.91946C21.9467 8.95321 21.9401 8.99156 21.9452 9.02924L22.0892 9.85524C22.1011 9.94145 22.0902 10.0293 22.0575 10.1099L21.9999 10.2251C21.9672 10.3058 21.952 10.3927 21.9553 10.4798L21.9985 10.9719C21.9996 11.0123 21.9911 11.0523 21.9739 11.0888C21.9566 11.1253 21.9311 11.1572 21.8992 11.182L21.5927 11.3936C21.5622 11.4141 21.5408 11.4455 21.5328 11.4814C21.5247 11.5172 21.5307 11.5548 21.5495 11.5864L22.2402 12.7736C22.2777 12.8383 22.2474 12.8887 22.1726 12.8887L20.1292 12.8585C20.0886 12.8556 20.049 12.8437 20.0135 12.8239C19.9779 12.804 19.9472 12.7765 19.9234 12.7434L19.7363 12.4426C19.7282 12.4282 19.7169 12.4159 19.7031 12.4068C19.6894 12.3976 19.6737 12.3918 19.6573 12.3898C19.6409 12.3879 19.6242 12.3898 19.6087 12.3955C19.5932 12.4011 19.5792 12.4104 19.568 12.4225L18.7708 13.1938C18.7559 13.2014 18.744 13.2137 18.7368 13.2288C18.7297 13.2439 18.7276 13.2609 18.7311 13.2772C18.7345 13.2936 18.7432 13.3083 18.7558 13.3193C18.7685 13.3302 18.7843 13.3367 18.801 13.3377L19.6644 13.6442C19.7466 13.6765 19.8225 13.7227 19.8889 13.7809L20.0328 13.9133C20.0875 13.9637 20.122 14.004 20.1119 14.0126C20.1019 14.0212 20.1062 14.0845 20.1206 14.1565L20.1666 14.3882C20.1871 14.4732 20.2275 14.5522 20.2846 14.6184L20.961 15.3466C21.003 15.3959 21.057 15.4335 21.1178 15.4559C21.1552 15.4559 21.184 15.5265 21.184 15.5998V15.8718C21.1863 15.9389 21.1671 16.0049 21.1293 16.0603C21.0991 16.0906 21.0286 16.0762 20.971 16.0301L20.7595 15.8589C20.7308 15.8356 20.695 15.8229 20.658 15.8229C20.6211 15.8229 20.5853 15.8356 20.5566 15.8589L20.3911 16.0028C20.3611 16.0274 20.3248 16.0429 20.2862 16.0475C20.2477 16.0521 20.2087 16.0456 20.1738 16.0287L19.6831 15.761Z" fill="white"/>
</svg>
