<svg width="24" height="24" viewBox="0 0 24 24" fill="none" xmlns="http://www.w3.org/2000/svg">
<path fill-rule="evenodd" clip-rule="evenodd" d="M12 24C18.6274 24 24 18.6274 24 12C24 5.37258 18.6274 0 12 0C5.37258 0 0 5.37258 0 12C0 18.6274 5.37258 24 12 24ZM2.42685 14.5385C2.43614 14.551 2.44799 14.5613 2.46161 14.5689L3.09583 14.9285C3.12731 14.9442 3.16263 14.9506 3.19761 14.9469C3.2326 14.9432 3.2658 14.9295 3.29329 14.9076L3.78236 14.4695C3.84227 14.4222 3.91828 14.4002 3.9942 14.4081L4.79319 14.531C4.87023 14.5389 4.94767 14.5204 5.01289 14.4787L5.8158 13.9007C5.88202 13.8574 5.95797 13.8314 6.03679 13.8248L8.1147 13.7529C8.15063 13.7537 8.18575 13.7638 8.21668 13.7821C8.2476 13.8004 8.27327 13.8264 8.29123 13.8575L8.62208 14.5205C8.62889 14.5344 8.63855 14.5468 8.65043 14.5568C8.66231 14.5668 8.67614 14.5742 8.69104 14.5785C8.70595 14.5828 8.7216 14.5839 8.73697 14.5818C8.75234 14.5797 8.76711 14.5744 8.78031 14.5663L9.29292 14.2524C9.30383 14.2435 9.31703 14.2379 9.331 14.2362C9.34498 14.2345 9.35915 14.2368 9.37187 14.2429C9.38459 14.2489 9.39535 14.2584 9.4029 14.2703C9.41045 14.2821 9.41448 14.2959 9.41453 14.31L9.61984 15.7484C9.62697 15.7843 9.64255 15.818 9.66529 15.8466C9.68803 15.8753 9.71728 15.8981 9.7506 15.9132L10.9641 16.3853C11.0388 16.41 11.1188 16.4141 11.1956 16.397L12.6013 16.0204C12.6371 16.0088 12.6702 15.9903 12.6987 15.9658C12.7272 15.9413 12.7506 15.9114 12.7674 15.8779L13.2303 14.82C13.2654 14.7477 13.3118 14.6815 13.3676 14.6238L13.9914 14.0314C14.0462 13.9747 14.0858 13.9049 14.1065 13.8287L14.5733 11.7051C14.5864 11.6284 14.5745 11.5495 14.5393 11.4802L13.5586 9.72787C13.5153 9.66088 13.4588 9.60347 13.3925 9.55918L12.8014 9.2048C12.7354 9.1634 12.6884 9.09761 12.6707 9.02173L12.4313 7.6212C12.4244 7.58982 12.4062 7.56208 12.3802 7.54326C12.3541 7.52445 12.3221 7.51588 12.2901 7.5192L12.0103 7.56236C11.9752 7.56592 11.9399 7.55945 11.9084 7.54371C11.877 7.52796 11.8506 7.50359 11.8324 7.47343L11.227 6.32791C11.1956 6.26906 11.1642 6.2743 11.1564 6.34099L10.9027 8.62027C10.9033 8.63373 10.9 8.64708 10.8931 8.65864C10.8861 8.6702 10.8759 8.67944 10.8637 8.68518C10.8516 8.69093 10.8379 8.69292 10.8246 8.69091C10.8113 8.6889 10.7989 8.68297 10.7889 8.67388L9.38968 7.72974C9.36175 7.70975 9.34122 7.68108 9.33128 7.6482C9.32135 7.61532 9.32258 7.58008 9.33476 7.54797L9.6826 6.69406C9.68958 6.68157 9.69301 6.66742 9.69252 6.65312C9.69204 6.63883 9.68765 6.62494 9.67984 6.61295C9.67203 6.60097 9.6611 6.59135 9.64822 6.58513C9.63534 6.57891 9.621 6.57634 9.60676 6.57768L7.92901 6.54368C7.89368 6.54469 7.85931 6.5555 7.82976 6.5749C7.80021 6.59429 7.77662 6.62151 7.76162 6.65352L7.36932 7.62774C7.36483 7.64185 7.35694 7.65463 7.34634 7.66496C7.33574 7.67529 7.32276 7.68286 7.30855 7.687C7.29434 7.69113 7.27933 7.6917 7.26484 7.68867C7.25035 7.68563 7.23683 7.67908 7.22548 7.66958L6.70241 7.29298C6.67248 7.27403 6.63779 7.26397 6.60237 7.26397C6.56695 7.26397 6.53225 7.27403 6.50233 7.29298L5.26265 8.15474C5.19968 8.20276 5.14903 8.26506 5.11488 8.3365L4.80889 9.07273C4.77477 9.14258 4.71936 9.19981 4.65066 9.23619L2.42761 10.2549C2.39617 10.2705 2.37007 10.2952 2.35262 10.3257C2.33517 10.3561 2.32713 10.3911 2.32953 10.4262L2.70352 13.8667C2.70708 13.9443 2.68751 14.0212 2.64729 14.0877L2.4263 14.4081C2.4171 14.4206 2.41069 14.435 2.40748 14.4502C2.40427 14.4655 2.40434 14.4812 2.40768 14.4964C2.41101 14.5116 2.41755 14.526 2.42685 14.5385ZM10.7615 18.1507C10.7209 18.0304 10.5784 16.9907 10.5784 16.9907C10.5692 16.9241 10.6085 16.8979 10.6673 16.9306L10.9367 17.0888C10.9698 17.1046 11.0059 17.1128 11.0426 17.1128C11.0793 17.1128 11.1154 17.1046 11.1485 17.0888L11.7357 16.7658C11.7945 16.7331 11.8324 16.7658 11.8207 16.8273L11.7043 17.4681C11.6849 17.5432 11.6383 17.6084 11.5735 17.6511L10.7615 18.1507ZM16.6443 19.2771C16.6814 19.2758 16.7177 19.2662 16.7506 19.2491L18.4231 18.2527C18.4914 18.2099 18.5542 18.159 18.6101 18.101L19.4458 17.1987C19.4564 17.1881 19.4644 17.1753 19.4692 17.1611C19.474 17.1469 19.4754 17.1318 19.4734 17.117C19.4713 17.1022 19.4659 17.088 19.4575 17.0756C19.4491 17.0633 19.4379 17.053 19.4248 17.0457L19.1123 16.8535C19.0833 16.8367 19.0493 16.8306 19.0163 16.8363C18.9834 16.8421 18.9534 16.8592 18.9318 16.8848L18.278 17.6943C18.2261 17.7557 18.1642 17.8078 18.0949 17.8486L16.1086 18.9327C16.0484 18.9641 16.0484 19.0151 16.1086 19.0451L16.5362 19.257C16.5703 19.2716 16.6072 19.2785 16.6443 19.2771ZM19.7125 17.23C19.6981 17.2967 19.7308 17.3163 19.7831 17.2745L21.232 16.1446C21.2843 16.1028 21.2752 16.0557 21.2098 16.0413L20.6057 15.8975C20.573 15.8883 20.5443 15.8686 20.5239 15.8414C20.5036 15.8142 20.4928 15.781 20.4932 15.7471L20.522 15.0305C20.5217 14.9933 20.5131 14.9565 20.4968 14.9231C20.4805 14.8896 20.4569 14.8602 20.4278 14.837L19.7857 14.3793C19.7321 14.34 19.7007 14.361 19.719 14.4263L20.0957 15.8308C20.1036 15.8664 20.1019 15.9035 20.0906 15.9383C20.0793 15.973 20.059 16.0041 20.0316 16.0282L19.5804 16.3944C19.5682 16.4039 19.5581 16.416 19.5509 16.4297C19.5437 16.4434 19.5395 16.4586 19.5387 16.474C19.5378 16.4895 19.5402 16.505 19.5459 16.5195C19.5515 16.5339 19.5602 16.547 19.5713 16.5579L19.719 16.7056C19.7441 16.733 19.7627 16.7657 19.7733 16.8012C19.784 16.8368 19.7864 16.8743 19.7805 16.9109L19.7125 17.23ZM12.6872 5.01252C12.692 5.04719 12.7088 5.07907 12.7347 5.10258L13.8763 6.10425C13.926 6.14741 13.913 6.17618 13.8463 6.17618L12.9309 6.1121C12.8938 6.1079 12.858 6.09581 12.826 6.07663C12.794 6.05746 12.7664 6.03166 12.7452 6.00095L12.3529 5.36803C12.3321 5.33806 12.3044 5.31358 12.272 5.29672C12.2397 5.27987 12.2037 5.27113 12.1672 5.27126L11.7304 5.29611C11.7144 5.29709 11.6988 5.30128 11.6845 5.30845C11.6701 5.31562 11.6574 5.32561 11.647 5.33782C11.6366 5.35003 11.6288 5.36422 11.6241 5.37952C11.6193 5.39482 11.6177 5.41093 11.6193 5.42688L11.6389 5.66357C11.6409 5.67831 11.6393 5.69331 11.6343 5.70731C11.6293 5.72132 11.621 5.73391 11.6101 5.74403C11.5992 5.75416 11.586 5.76152 11.5717 5.76549C11.5574 5.76947 11.5423 5.76994 11.5278 5.76688L11.0047 5.68449C10.9514 5.67795 10.8991 5.66477 10.8491 5.64526C10.8191 5.60462 10.8022 5.55581 10.8007 5.50534L10.5705 3.52682C10.5627 3.46144 10.6071 3.42613 10.6699 3.45098L12.0116 3.97405C12.046 3.98978 12.0769 4.01223 12.1025 4.04007C12.1281 4.06792 12.1479 4.1006 12.1607 4.1362L12.2496 4.42258C12.2624 4.45597 12.2835 4.48553 12.311 4.50842C12.3385 4.53131 12.3714 4.54678 12.4065 4.55335L12.7648 4.60042C12.7789 4.60014 12.7927 4.60392 12.8047 4.6113C12.8167 4.61868 12.8263 4.62936 12.8323 4.64205C12.8384 4.65474 12.8407 4.6689 12.8389 4.68286C12.8372 4.69681 12.8314 4.70996 12.8224 4.72073L12.7086 4.91296C12.69 4.94261 12.6824 4.97786 12.6872 5.01252Z" fill="white"/>
</svg>
